<svg width="40" height="40" viewBox="0 0 40 40" fill="none" xmlns="http://www.w3.org/2000/svg">
<path d="M19.9994 0.605469C22.5712 0.605469 25.0377 1.62711 26.8562 3.44565C28.6747 5.26418 29.6964 7.73064 29.6964 10.3024C29.6964 12.8742 28.6747 15.3407 26.8562 17.1592C25.0377 18.9778 22.5712 19.9994 19.9994 19.9994C17.4276 19.9994 14.9612 18.9778 13.1426 17.1592C11.3241 15.3407 10.3024 12.8742 10.3024 10.3024C10.3024 7.73064 11.3241 5.26418 13.1426 3.44565C14.9612 1.62711 17.4276 0.605469 19.9994 0.605469ZM19.9994 24.8479C30.7146 24.8479 39.3933 29.1873 39.3933 34.5449V39.3933H0.605469V34.5449C0.605469 29.1873 9.28426 24.8479 19.9994 24.8479Z" fill="#FCFAF7"/>
</svg>
