<svg width="28" height="26" viewBox="0 0 28 26" fill="none" xmlns="http://www.w3.org/2000/svg">
<path d="M27.7186 6.2309L24.3936 3.6689C24.1677 3.52385 23.922 3.41211 23.6642 3.3371C23.4074 3.254 23.1402 3.20781 22.8704 3.1999H13.3L14.4214 10.1999H22.8704C23.1 10.1999 23.387 10.1481 23.6628 10.0627C23.9386 9.9773 24.2046 9.8597 24.3922 9.7323L27.7172 7.1675C27.9062 7.0401 28 6.8707 28 6.6999C28 6.5291 27.9062 6.3597 27.7186 6.2309ZM11.9 0.399902H10.5C10.3143 0.399902 10.1363 0.473652 10.005 0.604928C9.87375 0.736203 9.8 0.914251 9.8 1.0999V5.9999H5.1296C4.8972 5.9999 4.6116 6.0517 4.3358 6.1385C4.0586 6.2225 3.794 6.3387 3.6064 6.4689L0.2814 9.0309C0.0924 9.1583 0 9.3291 0 9.4999C0 9.6693 0.0924 9.8387 0.2814 9.9689L3.6064 12.5337C3.794 12.6611 4.0586 12.7787 4.3358 12.8627C4.6116 12.9481 4.8972 12.9999 5.1296 12.9999H9.8V24.8999C9.8 25.0856 9.87375 25.2636 10.005 25.3949C10.1363 25.5262 10.3143 25.5999 10.5 25.5999H11.9C12.0857 25.5999 12.2637 25.5262 12.395 25.3949C12.5263 25.2636 12.6 25.0856 12.6 24.8999V1.0999C12.6 0.914251 12.5263 0.736203 12.395 0.604928C12.2637 0.473652 12.0857 0.399902 11.9 0.399902Z" fill="#3511A3"/>
</svg>
