<svg width="16" height="17" viewBox="0 0 16 17" fill="none" xmlns="http://www.w3.org/2000/svg">
<path d="M4.79868 13.2987C3.91892 13.2987 3.20712 14.0185 3.20712 14.8982C3.20712 15.778 3.91892 16.4978 4.79868 16.4978C5.67844 16.4978 6.39824 15.778 6.39824 14.8982C6.39824 14.0185 5.67844 13.2987 4.79868 13.2987ZM0 1.30198C0 1.74186 0.359901 2.10176 0.79978 2.10176H1.59956L4.47877 8.17209L3.39906 10.1235C2.81522 11.1953 3.58301 12.4989 4.79868 12.4989H13.5963C14.0361 12.4989 14.396 12.139 14.396 11.6991C14.396 11.2592 14.0361 10.8993 13.5963 10.8993H4.79868L5.67844 9.29978H11.6368C12.2366 9.29978 12.7645 8.97187 13.0364 8.476L15.8996 3.28543C15.967 3.16421 16.0016 3.02748 15.9999 2.88879C15.9983 2.75009 15.9604 2.61423 15.8901 2.49466C15.8198 2.37508 15.7196 2.27593 15.5992 2.20702C15.4788 2.13811 15.3425 2.10183 15.2038 2.10176H3.36707L2.83122 0.958073C2.76694 0.821555 2.6651 0.706174 2.53763 0.625439C2.41015 0.544704 2.26231 0.501955 2.11142 0.502198H0.79978C0.359901 0.502198 0 0.862099 0 1.30198ZM12.7965 13.2987C11.9167 13.2987 11.2049 14.0185 11.2049 14.8982C11.2049 15.778 11.9167 16.4978 12.7965 16.4978C13.6762 16.4978 14.396 15.778 14.396 14.8982C14.396 14.0185 13.6762 13.2987 12.7965 13.2987Z" fill="#0C0738"/>
</svg>
