<svg width="40" height="40" viewBox="0 0 40 40" fill="none" xmlns="http://www.w3.org/2000/svg">
<path d="M12 32C9.8 32 8.02 33.8 8.02 36C8.02 38.2 9.8 40 12 40C14.2 40 16 38.2 16 36C16 33.8 14.2 32 12 32ZM0 2C0 3.1 0.9 4 2 4H4L11.2 19.18L8.5 24.06C7.04 26.74 8.96 30 12 30H34C35.1 30 36 29.1 36 28C36 26.9 35.1 26 34 26H12L14.2 22H29.1C30.6 22 31.92 21.18 32.6 19.94L39.76 6.96C39.9285 6.65685 40.015 6.31494 40.0109 5.96811C40.0067 5.62128 39.9121 5.28154 39.7363 4.98252C39.5605 4.68351 39.3097 4.43556 39.0087 4.26324C38.7077 4.09091 38.3669 4.00017 38.02 4H8.42L7.08 1.14C6.91926 0.798615 6.66459 0.510083 6.34581 0.308189C6.02703 0.106295 5.65733 -0.000605722 5.28 2.58169e-06H2C0.9 2.58169e-06 0 0.900002 0 2ZM32 32C29.8 32 28.02 33.8 28.02 36C28.02 38.2 29.8 40 32 40C34.2 40 36 38.2 36 36C36 33.8 34.2 32 32 32Z" fill="#FCFAF7"/>
</svg>
