<svg width="526" height="78" viewBox="0 0 526 78" fill="none" xmlns="http://www.w3.org/2000/svg">
<path d="M58.8729 26.52C58.8729 40.061 47.8896 51.04 34.3388 51.04C20.788 51.04 9.80469 40.061 9.80469 26.52C9.80469 12.979 20.788 2 34.3388 2C47.8896 2 58.8729 12.979 58.8729 26.52Z" stroke="url(#paint0_linear_355_20283)" stroke-width="4"/>
<path d="M286.754 26.52C286.754 40.061 275.771 51.04 262.22 51.04C248.669 51.04 237.686 40.061 237.686 26.52C237.686 12.979 248.669 2 262.22 2C275.771 2 286.754 12.979 286.754 26.52Z" stroke="#848189" stroke-width="4"/>
<path d="M514.635 26.52C514.635 40.061 503.651 51.04 490.101 51.04C476.55 51.04 465.566 40.061 465.566 26.52C465.566 12.979 476.55 2 490.101 2C503.651 2 514.635 12.979 514.635 26.52Z" stroke="#848189" stroke-width="4"/>
<path d="M9.52525 72.2311C8.76792 72.2311 8.08525 72.1137 7.47725 71.8791C6.86925 71.6337 6.35192 71.2764 5.92525 70.8071C5.49858 70.3271 5.16792 69.7351 4.93325 69.0311C4.69858 68.3164 4.58125 67.4844 4.58125 66.5351C4.58125 65.5964 4.69858 64.7644 4.93325 64.0391C5.16792 63.3031 5.49858 62.6897 5.92525 62.1991C6.35192 61.6977 6.86925 61.3191 7.47725 61.0631C8.08525 60.8071 8.76792 60.6791 9.52525 60.6791C10.5599 60.6791 11.4133 60.8924 12.0853 61.3191C12.7573 61.7351 13.2959 62.3964 13.7013 63.3031L11.6053 64.3911C11.4559 63.9217 11.2213 63.5484 10.9013 63.2711C10.5919 62.9831 10.1333 62.8391 9.52525 62.8391C8.81058 62.8391 8.23458 63.0737 7.79725 63.5431C7.37058 64.0017 7.15725 64.6737 7.15725 65.5591V67.3511C7.15725 68.2364 7.37058 68.9137 7.79725 69.3831C8.23458 69.8417 8.81058 70.0711 9.52525 70.0711C10.1226 70.0711 10.5973 69.9111 10.9493 69.5911C11.3119 69.2604 11.5786 68.8657 11.7493 68.4071L13.7333 69.5591C13.3173 70.4124 12.7679 71.0737 12.0853 71.5431C11.4133 72.0017 10.5599 72.2311 9.52525 72.2311ZM18.7151 72.2311C18.0965 72.2311 17.5418 72.1297 17.0511 71.9271C16.5711 71.7244 16.1605 71.4311 15.8191 71.0471C15.4885 70.6631 15.2325 70.1991 15.0511 69.6551C14.8698 69.1111 14.7791 68.5031 14.7791 67.8311C14.7791 67.1591 14.8698 66.5511 15.0511 66.0071C15.2325 65.4631 15.4885 65.0044 15.8191 64.6311C16.1605 64.2471 16.5711 63.9537 17.0511 63.7511C17.5418 63.5484 18.0965 63.4471 18.7151 63.4471C19.3338 63.4471 19.8831 63.5484 20.3631 63.7511C20.8538 63.9537 21.2645 64.2471 21.5951 64.6311C21.9365 65.0044 22.1978 65.4631 22.3791 66.0071C22.5605 66.5511 22.6511 67.1591 22.6511 67.8311C22.6511 68.5031 22.5605 69.1111 22.3791 69.6551C22.1978 70.1991 21.9365 70.6631 21.5951 71.0471C21.2645 71.4311 20.8538 71.7244 20.3631 71.9271C19.8831 72.1297 19.3338 72.2311 18.7151 72.2311ZM18.7151 70.3591C19.1845 70.3591 19.5471 70.2151 19.8031 69.9271C20.0591 69.6391 20.1871 69.2284 20.1871 68.6951V66.9831C20.1871 66.4497 20.0591 66.0391 19.8031 65.7511C19.5471 65.4631 19.1845 65.3191 18.7151 65.3191C18.2458 65.3191 17.8831 65.4631 17.6271 65.7511C17.3711 66.0391 17.2431 66.4497 17.2431 66.9831V68.6951C17.2431 69.2284 17.3711 69.6391 17.6271 69.9271C17.8831 70.2151 18.2458 70.3591 18.7151 70.3591ZM24.3384 72.0391V63.6391H26.7064V65.0631H26.8024C26.9517 64.6257 27.213 64.2471 27.5864 63.9271C27.9597 63.6071 28.477 63.4471 29.1384 63.4471C30.0024 63.4471 30.653 63.7351 31.0904 64.3111C31.5384 64.8871 31.7624 65.7084 31.7624 66.7751V72.0391H29.3944V66.9671C29.3944 66.4231 29.309 66.0231 29.1384 65.7671C28.9677 65.5004 28.6637 65.3671 28.2264 65.3671C28.0344 65.3671 27.8477 65.3937 27.6664 65.4471C27.485 65.4897 27.3197 65.5644 27.1704 65.6711C27.0317 65.7777 26.9197 65.9111 26.8344 66.0711C26.749 66.2204 26.7064 66.3964 26.7064 66.5991V72.0391H24.3384ZM36.8136 72.0391C35.9923 72.0391 35.3683 71.8311 34.9416 71.4151C34.5256 70.9991 34.3176 70.3911 34.3176 69.5911V65.4791H33.1336V63.6391H33.7256C34.0456 63.6391 34.2643 63.5644 34.3816 63.4151C34.499 63.2551 34.5576 63.0311 34.5576 62.7431V61.3671H36.6856V63.6391H38.3496V65.4791H36.6856V70.1991H38.2216V72.0391H36.8136ZM46.2026 72.0391C45.776 72.0391 45.4186 71.9057 45.1306 71.6391C44.8533 71.3724 44.6773 71.0151 44.6026 70.5671H44.5066C44.3786 71.1111 44.096 71.5271 43.6586 71.8151C43.2213 72.0924 42.6826 72.2311 42.0426 72.2311C41.2 72.2311 40.5546 72.0071 40.1066 71.5591C39.6586 71.1111 39.4346 70.5191 39.4346 69.7831C39.4346 68.8977 39.7546 68.2417 40.3946 67.8151C41.0453 67.3777 41.9253 67.1591 43.0346 67.1591H44.3626V66.6311C44.3626 66.2257 44.256 65.9057 44.0426 65.6711C43.8293 65.4257 43.472 65.3031 42.9706 65.3031C42.5013 65.3031 42.128 65.4044 41.8506 65.6071C41.5733 65.8097 41.344 66.0391 41.1626 66.2951L39.7546 65.0471C40.096 64.5457 40.5226 64.1564 41.0346 63.8791C41.5573 63.5911 42.2613 63.4471 43.1466 63.4471C44.3413 63.4471 45.2373 63.7084 45.8346 64.2311C46.432 64.7537 46.7306 65.5164 46.7306 66.5191V70.1991H47.5146V72.0391H46.2026ZM42.9226 70.5831C43.3173 70.5831 43.6533 70.4977 43.9306 70.3271C44.2186 70.1564 44.3626 69.8791 44.3626 69.4951V68.5031H43.2106C42.2826 68.5031 41.8186 68.8177 41.8186 69.4471V69.6871C41.8186 69.9964 41.9146 70.2257 42.1066 70.3751C42.2986 70.5137 42.5706 70.5831 42.9226 70.5831ZM52.496 72.2311C51.8667 72.2311 51.3067 72.1297 50.816 71.9271C50.3253 71.7137 49.9147 71.4204 49.584 71.0471C49.2533 70.6631 49.0027 70.1991 48.832 69.6551C48.6613 69.1111 48.576 68.5031 48.576 67.8311C48.576 67.1591 48.6613 66.5564 48.832 66.0231C49.0027 65.4791 49.2533 65.0151 49.584 64.6311C49.9147 64.2471 50.3253 63.9537 50.816 63.7511C51.3067 63.5484 51.8667 63.4471 52.496 63.4471C53.3493 63.4471 54.0587 63.6391 54.624 64.0231C55.2 64.4071 55.6107 64.9457 55.856 65.6391L53.936 66.4711C53.8613 66.1511 53.7067 65.8791 53.472 65.6551C53.2373 65.4311 52.912 65.3191 52.496 65.3191C52.016 65.3191 51.6533 65.4791 51.408 65.7991C51.1627 66.1084 51.04 66.5297 51.04 67.0631V68.6311C51.04 69.1644 51.1627 69.5857 51.408 69.8951C51.6533 70.2044 52.016 70.3591 52.496 70.3591C52.9227 70.3591 53.2587 70.2471 53.504 70.0231C53.76 69.7884 53.9467 69.4844 54.064 69.1111L55.904 69.9111C55.6267 70.7111 55.1947 71.2977 54.608 71.6711C54.032 72.0444 53.328 72.2311 52.496 72.2311ZM60.3136 72.0391C59.4923 72.0391 58.8683 71.8311 58.4416 71.4151C58.0256 70.9991 57.8176 70.3911 57.8176 69.5911V65.4791H56.6336V63.6391H57.2256C57.5456 63.6391 57.7643 63.5644 57.8816 63.4151C57.999 63.2551 58.0576 63.0311 58.0576 62.7431V61.3671H60.1856V63.6391H61.8496V65.4791H60.1856V70.1991H61.7216V72.0391H60.3136Z" fill="url(#paint1_linear_355_20283)"/>
<path d="M234.634 72.2311C233.727 72.2311 232.954 72.0604 232.314 71.7191C231.674 71.3671 231.13 70.8871 230.682 70.2791L231.674 69.4471C232.068 69.9697 232.506 70.3697 232.986 70.6471C233.466 70.9137 234.031 71.0471 234.682 71.0471C235.482 71.0471 236.09 70.8551 236.506 70.4711C236.932 70.0871 237.146 69.5751 237.146 68.9351C237.146 68.4017 236.986 67.9911 236.666 67.7031C236.346 67.4151 235.818 67.1857 235.082 67.0151L234.17 66.8071C233.146 66.5724 232.362 66.2204 231.818 65.7511C231.284 65.2711 231.018 64.5991 231.018 63.7351C231.018 63.2444 231.108 62.8071 231.29 62.4231C231.471 62.0391 231.722 61.7191 232.042 61.4631C232.372 61.2071 232.762 61.0151 233.21 60.8871C233.668 60.7484 234.17 60.6791 234.714 60.6791C235.556 60.6791 236.276 60.8337 236.874 61.1431C237.482 61.4524 237.994 61.9057 238.41 62.5031L237.402 63.2391C237.092 62.8124 236.719 62.4764 236.282 62.2311C235.844 61.9857 235.3 61.8631 234.65 61.8631C233.935 61.8631 233.37 62.0177 232.954 62.3271C232.548 62.6257 232.346 63.0791 232.346 63.6871C232.346 64.2204 232.516 64.6257 232.858 64.9031C233.21 65.1697 233.738 65.3831 234.442 65.5431L235.354 65.7511C236.452 65.9964 237.247 66.3697 237.738 66.8711C238.228 67.3724 238.474 68.0391 238.474 68.8711C238.474 69.3831 238.383 69.8471 238.202 70.2631C238.031 70.6791 237.78 71.0311 237.45 71.3191C237.119 71.6071 236.714 71.8311 236.234 71.9911C235.764 72.1511 235.231 72.2311 234.634 72.2311ZM240.667 60.1991H241.947V65.1271H242.011C242.213 64.6577 242.496 64.2844 242.859 64.0071C243.232 63.7297 243.728 63.5911 244.347 63.5911C245.2 63.5911 245.872 63.8684 246.363 64.4231C246.864 64.9671 247.115 65.7404 247.115 66.7431V72.0391H245.835V66.9671C245.835 65.4844 245.211 64.7431 243.963 64.7431C243.707 64.7431 243.456 64.7751 243.211 64.8391C242.976 64.9031 242.763 64.9991 242.571 65.1271C242.379 65.2551 242.224 65.4204 242.107 65.6231C242 65.8151 241.947 66.0444 241.947 66.3111V72.0391H240.667V60.1991ZM250.4 61.8471C250.123 61.8471 249.92 61.7831 249.792 61.6551C249.675 61.5164 249.616 61.3404 249.616 61.1271V60.9191C249.616 60.7057 249.675 60.5351 249.792 60.4071C249.92 60.2684 250.123 60.1991 250.4 60.1991C250.678 60.1991 250.875 60.2684 250.992 60.4071C251.12 60.5351 251.184 60.7057 251.184 60.9191V61.1271C251.184 61.3404 251.12 61.5164 250.992 61.6551C250.875 61.7831 250.678 61.8471 250.4 61.8471ZM249.76 63.7831H251.04V72.0391H249.76V63.7831ZM253.76 63.7831H255.04V65.1271H255.104C255.318 64.6044 255.627 64.2204 256.032 63.9751C256.448 63.7191 256.944 63.5911 257.52 63.5911C258.032 63.5911 258.496 63.6924 258.912 63.8951C259.328 64.0977 259.68 64.3857 259.968 64.7591C260.267 65.1324 260.491 65.5857 260.64 66.1191C260.8 66.6524 260.88 67.2497 260.88 67.9111C260.88 68.5724 260.8 69.1697 260.64 69.7031C260.491 70.2364 260.267 70.6897 259.968 71.0631C259.68 71.4364 259.328 71.7244 258.912 71.9271C258.496 72.1297 258.032 72.2311 257.52 72.2311C256.4 72.2311 255.595 71.7191 255.104 70.6951H255.04V75.2391H253.76V63.7831ZM257.168 71.0791C257.894 71.0791 258.464 70.8551 258.88 70.4071C259.296 69.9484 259.504 69.3511 259.504 68.6151V67.2071C259.504 66.4711 259.296 65.8791 258.88 65.4311C258.464 64.9724 257.894 64.7431 257.168 64.7431C256.88 64.7431 256.603 64.7857 256.336 64.8711C256.08 64.9457 255.856 65.0524 255.664 65.1911C255.472 65.3297 255.318 65.5004 255.2 65.7031C255.094 65.8951 255.04 66.1031 255.04 66.3271V69.3991C255.04 69.6657 255.094 69.9057 255.2 70.1191C255.318 70.3217 255.472 70.4977 255.664 70.6471C255.856 70.7857 256.08 70.8924 256.336 70.9671C256.603 71.0417 256.88 71.0791 257.168 71.0791ZM263.042 63.7831H264.322V65.1271H264.386C264.599 64.6044 264.908 64.2204 265.314 63.9751C265.73 63.7191 266.226 63.5911 266.802 63.5911C267.314 63.5911 267.778 63.6924 268.194 63.8951C268.61 64.0977 268.962 64.3857 269.25 64.7591C269.548 65.1324 269.772 65.5857 269.922 66.1191C270.082 66.6524 270.162 67.2497 270.162 67.9111C270.162 68.5724 270.082 69.1697 269.922 69.7031C269.772 70.2364 269.548 70.6897 269.25 71.0631C268.962 71.4364 268.61 71.7244 268.194 71.9271C267.778 72.1297 267.314 72.2311 266.802 72.2311C265.682 72.2311 264.876 71.7191 264.386 70.6951H264.322V75.2391H263.042V63.7831ZM266.45 71.0791C267.175 71.0791 267.746 70.8551 268.162 70.4071C268.578 69.9484 268.786 69.3511 268.786 68.6151V67.2071C268.786 66.4711 268.578 65.8791 268.162 65.4311C267.746 64.9724 267.175 64.7431 266.45 64.7431C266.162 64.7431 265.884 64.7857 265.618 64.8711C265.362 64.9457 265.138 65.0524 264.946 65.1911C264.754 65.3297 264.599 65.5004 264.482 65.7031C264.375 65.8951 264.322 66.1031 264.322 66.3271V69.3991C264.322 69.6657 264.375 69.9057 264.482 70.1191C264.599 70.3217 264.754 70.4977 264.946 70.6471C265.138 70.7857 265.362 70.8924 265.618 70.9671C265.884 71.0417 266.162 71.0791 266.45 71.0791ZM272.963 61.8471C272.686 61.8471 272.483 61.7831 272.355 61.6551C272.238 61.5164 272.179 61.3404 272.179 61.1271V60.9191C272.179 60.7057 272.238 60.5351 272.355 60.4071C272.483 60.2684 272.686 60.1991 272.963 60.1991C273.24 60.1991 273.438 60.2684 273.555 60.4071C273.683 60.5351 273.747 60.7057 273.747 60.9191V61.1271C273.747 61.3404 273.683 61.5164 273.555 61.6551C273.438 61.7831 273.24 61.8471 272.963 61.8471ZM272.323 63.7831H273.603V72.0391H272.323V63.7831ZM276.323 72.0391V63.7831H277.603V65.1271H277.667C277.87 64.6577 278.152 64.2844 278.515 64.0071C278.888 63.7297 279.384 63.5911 280.003 63.5911C280.856 63.5911 281.528 63.8684 282.019 64.4231C282.52 64.9671 282.771 65.7404 282.771 66.7431V72.0391H281.491V66.9671C281.491 65.4844 280.867 64.7431 279.619 64.7431C279.363 64.7431 279.112 64.7751 278.867 64.8391C278.632 64.9031 278.419 64.9991 278.227 65.1271C278.035 65.2551 277.88 65.4204 277.763 65.6231C277.656 65.8151 277.603 66.0444 277.603 66.3111V72.0391H276.323ZM292.377 72.9511C292.377 73.8044 292.041 74.4284 291.369 74.8231C290.707 75.2284 289.71 75.4311 288.377 75.4311C287.086 75.4311 286.158 75.2551 285.593 74.9031C285.027 74.5511 284.745 74.0497 284.745 73.3991C284.745 72.9511 284.862 72.5991 285.097 72.3431C285.331 72.0977 285.651 71.9164 286.057 71.7991V71.6231C285.566 71.3884 285.321 71.0044 285.321 70.4711C285.321 70.0551 285.454 69.7404 285.721 69.5271C285.987 69.3031 286.329 69.1377 286.745 69.0311V68.9671C286.254 68.7324 285.87 68.3964 285.593 67.9591C285.326 67.5217 285.193 67.0151 285.193 66.4391C285.193 66.0231 285.267 65.6391 285.417 65.2871C285.566 64.9351 285.774 64.6364 286.041 64.3911C286.318 64.1351 286.643 63.9377 287.017 63.7991C287.401 63.6604 287.827 63.5911 288.297 63.5911C288.883 63.5911 289.406 63.6977 289.865 63.9111V63.7671C289.865 63.4471 289.939 63.1857 290.089 62.9831C290.238 62.7697 290.483 62.6631 290.825 62.6631H292.057V63.7831H290.489V64.3111C290.787 64.5671 291.017 64.8764 291.177 65.2391C291.347 65.5911 291.433 65.9911 291.433 66.4391C291.433 66.8551 291.358 67.2391 291.209 67.5911C291.059 67.9431 290.846 68.2471 290.569 68.5031C290.302 68.7484 289.977 68.9404 289.593 69.0791C289.209 69.2177 288.782 69.2871 288.313 69.2871C288.046 69.2871 287.779 69.2604 287.513 69.2071C287.235 69.2817 286.985 69.3937 286.761 69.5431C286.537 69.6817 286.425 69.8791 286.425 70.1351C286.425 70.3804 286.542 70.5457 286.777 70.6311C287.011 70.7164 287.315 70.7591 287.689 70.7591H289.449C290.473 70.7591 291.214 70.9564 291.673 71.3511C292.142 71.7351 292.377 72.2684 292.377 72.9511ZM291.177 73.0471C291.177 72.7164 291.049 72.4497 290.793 72.2471C290.547 72.0551 290.105 71.9591 289.465 71.9591H286.713C286.201 72.1937 285.945 72.5671 285.945 73.0791C285.945 73.4417 286.078 73.7511 286.345 74.0071C286.622 74.2631 287.086 74.3911 287.737 74.3911H288.921C289.635 74.3911 290.19 74.2791 290.585 74.0551C290.979 73.8311 291.177 73.4951 291.177 73.0471ZM288.313 68.2631C288.857 68.2631 289.289 68.1351 289.609 67.8791C289.929 67.6124 290.089 67.2071 290.089 66.6631V66.2151C290.089 65.6711 289.929 65.2711 289.609 65.0151C289.289 64.7484 288.857 64.6151 288.313 64.6151C287.769 64.6151 287.337 64.7484 287.017 65.0151C286.697 65.2711 286.537 65.6711 286.537 66.2151V66.6631C286.537 67.2071 286.697 67.6124 287.017 67.8791C287.337 68.1351 287.769 68.2631 288.313 68.2631Z" fill="#848189"/>
<path d="M457.842 72.0391V60.8711H462.29C463.292 60.8711 464.06 61.1591 464.594 61.7351C465.138 62.3004 465.41 63.0791 465.41 64.0711C465.41 65.0631 465.138 65.8471 464.594 66.4231C464.06 66.9884 463.292 67.2711 462.29 67.2711H459.186V72.0391H457.842ZM459.186 66.0871H462.29C462.823 66.0871 463.234 65.9484 463.522 65.6711C463.82 65.3937 463.97 64.9991 463.97 64.4871V63.6551C463.97 63.1431 463.82 62.7484 463.522 62.4711C463.234 62.1937 462.823 62.0551 462.29 62.0551H459.186V66.0871ZM473.26 72.0391C472.78 72.0391 472.434 71.9111 472.22 71.6551C472.018 71.3991 471.89 71.0791 471.836 70.6951H471.756C471.575 71.2071 471.276 71.5911 470.86 71.8471C470.444 72.1031 469.948 72.2311 469.372 72.2311C468.498 72.2311 467.815 72.0071 467.324 71.5591C466.844 71.1111 466.604 70.5031 466.604 69.7351C466.604 68.9564 466.887 68.3591 467.452 67.9431C468.028 67.5271 468.919 67.3191 470.124 67.3191H471.756V66.5031C471.756 65.9164 471.596 65.4684 471.276 65.1591C470.956 64.8497 470.466 64.6951 469.804 64.6951C469.303 64.6951 468.882 64.8071 468.54 65.0311C468.21 65.2551 467.932 65.5537 467.708 65.9271L466.94 65.2071C467.164 64.7591 467.522 64.3804 468.012 64.0711C468.503 63.7511 469.122 63.5911 469.868 63.5911C470.871 63.5911 471.65 63.8364 472.204 64.3271C472.759 64.8177 473.036 65.5004 473.036 66.3751V70.9191H473.98V72.0391H473.26ZM469.58 71.1431C469.9 71.1431 470.194 71.1057 470.46 71.0311C470.727 70.9564 470.956 70.8497 471.148 70.7111C471.34 70.5724 471.49 70.4124 471.596 70.2311C471.703 70.0497 471.756 69.8524 471.756 69.6391V68.2791H470.06C469.324 68.2791 468.786 68.3857 468.444 68.5991C468.114 68.8124 467.948 69.1217 467.948 69.5271V69.8631C467.948 70.2684 468.092 70.5831 468.38 70.8071C468.679 71.0311 469.079 71.1431 469.58 71.1431ZM480.817 63.7831H482.081L478.385 73.9591C478.289 74.2044 478.193 74.4071 478.097 74.5671C478.001 74.7377 477.884 74.8711 477.745 74.9671C477.606 75.0631 477.43 75.1324 477.217 75.1751C477.014 75.2177 476.764 75.2391 476.465 75.2391H475.809V74.1191H477.105L477.729 72.3591L474.641 63.7831H475.921L477.905 69.3991L478.289 70.7431H478.369L478.817 69.3991L480.817 63.7831ZM483.714 72.0391V63.7831H484.994V65.1271H485.058C485.154 64.9137 485.26 64.7164 485.378 64.5351C485.506 64.3431 485.655 64.1777 485.826 64.0391C486.007 63.9004 486.215 63.7937 486.45 63.7191C486.684 63.6337 486.962 63.5911 487.282 63.5911C487.826 63.5911 488.327 63.7244 488.786 63.9911C489.244 64.2471 489.586 64.6737 489.81 65.2711H489.842C489.991 64.8231 490.268 64.4337 490.674 64.1031C491.09 63.7617 491.65 63.5911 492.354 63.5911C493.196 63.5911 493.852 63.8684 494.322 64.4231C494.802 64.9671 495.042 65.7404 495.042 66.7431V72.0391H493.762V66.9671C493.762 66.2311 493.618 65.6764 493.33 65.3031C493.042 64.9297 492.583 64.7431 491.954 64.7431C491.698 64.7431 491.452 64.7751 491.218 64.8391C490.994 64.9031 490.791 64.9991 490.61 65.1271C490.428 65.2551 490.284 65.4204 490.178 65.6231C490.071 65.8151 490.018 66.0444 490.018 66.3111V72.0391H488.738V66.9671C488.738 66.2311 488.594 65.6764 488.306 65.3031C488.018 64.9297 487.57 64.7431 486.962 64.7431C486.706 64.7431 486.46 64.7751 486.226 64.8391C485.991 64.9031 485.783 64.9991 485.602 65.1271C485.42 65.2551 485.271 65.4204 485.154 65.6231C485.047 65.8151 484.994 66.0444 484.994 66.3111V72.0391H483.714ZM500.786 72.2311C500.221 72.2311 499.709 72.1297 499.25 71.9271C498.802 71.7244 498.413 71.4364 498.082 71.0631C497.762 70.6791 497.512 70.2257 497.33 69.7031C497.16 69.1697 497.074 68.5724 497.074 67.9111C497.074 67.2604 497.16 66.6684 497.33 66.1351C497.512 65.6017 497.762 65.1484 498.082 64.7751C498.413 64.3911 498.802 64.0977 499.25 63.8951C499.709 63.6924 500.221 63.5911 500.786 63.5911C501.341 63.5911 501.837 63.6924 502.274 63.8951C502.712 64.0977 503.085 64.3804 503.394 64.7431C503.704 65.0951 503.938 65.5164 504.098 66.0071C504.269 66.4977 504.354 67.0364 504.354 67.6231V68.2311H498.418V68.6151C498.418 68.9671 498.472 69.2977 498.578 69.6071C498.696 69.9057 498.856 70.1671 499.058 70.3911C499.272 70.6151 499.528 70.7911 499.826 70.9191C500.136 71.0471 500.482 71.1111 500.866 71.1111C501.389 71.1111 501.842 70.9884 502.226 70.7431C502.621 70.4977 502.925 70.1457 503.138 69.6871L504.05 70.3431C503.784 70.9084 503.368 71.3671 502.802 71.7191C502.237 72.0604 501.565 72.2311 500.786 72.2311ZM500.786 64.6631C500.434 64.6631 500.114 64.7271 499.826 64.8551C499.538 64.9724 499.288 65.1431 499.074 65.3671C498.872 65.5911 498.712 65.8577 498.594 66.1671C498.477 66.4657 498.418 66.7964 498.418 67.1591V67.2711H502.978V67.0951C502.978 66.3591 502.776 65.7724 502.37 65.3351C501.976 64.8871 501.448 64.6631 500.786 64.6631ZM506.464 72.0391V63.7831H507.744V65.1271H507.808C508.01 64.6577 508.293 64.2844 508.656 64.0071C509.029 63.7297 509.525 63.5911 510.144 63.5911C510.997 63.5911 511.669 63.8684 512.16 64.4231C512.661 64.9671 512.912 65.7404 512.912 66.7431V72.0391H511.632V66.9671C511.632 65.4844 511.008 64.7431 509.76 64.7431C509.504 64.7431 509.253 64.7751 509.008 64.8391C508.773 64.9031 508.56 64.9991 508.368 65.1271C508.176 65.2551 508.021 65.4204 507.904 65.6231C507.797 65.8151 507.744 66.0444 507.744 66.3111V72.0391H506.464ZM517.381 72.0391C516.933 72.0391 516.592 71.9164 516.357 71.6711C516.133 71.4151 516.021 71.0844 516.021 70.6791V64.9031H514.661V63.7831H515.429C515.707 63.7831 515.893 63.7297 515.989 63.6231C516.096 63.5057 516.149 63.3084 516.149 63.0311V61.4951H517.301V63.7831H519.109V64.9031H517.301V70.9191H518.981V72.0391H517.381Z" fill="#848189"/>
<line x1="60.873" y1="27.0801" x2="235.686" y2="27.0801" stroke="#848189" stroke-width="2"/>
<line x1="288.754" y1="27.0801" x2="463.567" y2="27.0801" stroke="#848189" stroke-width="2"/>
<defs>
<linearGradient id="paint0_linear_355_20283" x1="34.3388" y1="-18.9429" x2="34.3388" y2="70.0886" gradientUnits="userSpaceOnUse">
<stop stop-color="#4D1FDA"/>
<stop offset="1" stop-color="#F55D1C"/>
</linearGradient>
<linearGradient id="paint1_linear_355_20283" x1="31.5" y1="47.5391" x2="31.5" y2="82.7891" gradientUnits="userSpaceOnUse">
<stop stop-color="#4D1FDA"/>
<stop offset="1" stop-color="#F55D1C"/>
</linearGradient>
</defs>
</svg>
