<svg width="526" height="79" viewBox="0 0 526 79" fill="none" xmlns="http://www.w3.org/2000/svg">
<circle cx="34.3388" cy="26.5341" r="24.5341" stroke="url(#paint0_linear_356_21325)" stroke-width="4"/>
<path d="M286.754 26.5341C286.754 40.0839 275.77 51.0682 262.22 51.0682C248.67 51.0682 237.686 40.0839 237.686 26.5341C237.686 12.9843 248.67 2 262.22 2C275.77 2 286.754 12.9843 286.754 26.5341Z" stroke="url(#paint1_linear_356_21325)" stroke-width="4"/>
<path d="M514.635 26.5341C514.635 40.0839 503.65 51.0682 490.101 51.0682C476.551 51.0682 465.566 40.0839 465.566 26.5341C465.566 12.9843 476.551 2 490.101 2C503.65 2 514.635 12.9843 514.635 26.5341Z" stroke="#848189" stroke-width="4"/>
<path d="M9.34925 72.2604C7.88792 72.2604 6.74125 71.7697 5.90925 70.7884C5.07725 69.7964 4.66125 68.3617 4.66125 66.4844C4.66125 65.5457 4.76792 64.719 4.98125 64.0044C5.19458 63.2897 5.50392 62.687 5.90925 62.1964C6.31458 61.7057 6.80525 61.3377 7.38125 61.0924C7.96792 60.8364 8.62392 60.7084 9.34925 60.7084C10.3199 60.7084 11.1306 60.9217 11.7812 61.3484C12.4426 61.775 12.9599 62.4044 13.3333 63.2364L11.8133 64.0684C11.6213 63.535 11.3226 63.1137 10.9173 62.8044C10.5226 62.4844 9.99992 62.3244 9.34925 62.3244C8.48525 62.3244 7.80792 62.6177 7.31725 63.2044C6.82658 63.791 6.58125 64.6017 6.58125 65.6364V67.3324C6.58125 68.367 6.82658 69.1777 7.31725 69.7644C7.80792 70.351 8.48525 70.6444 9.34925 70.6444C10.0213 70.6444 10.5653 70.4737 10.9813 70.1324C11.4079 69.7804 11.7226 69.3324 11.9253 68.7884L13.3813 69.6684C13.0079 70.479 12.4853 71.1137 11.8133 71.5724C11.1413 72.031 10.3199 72.2604 9.34925 72.2604ZM18.4339 72.2604C17.8579 72.2604 17.3299 72.159 16.8499 71.9564C16.3805 71.7537 15.9805 71.4657 15.6499 71.0924C15.3192 70.7084 15.0632 70.2497 14.8819 69.7164C14.7005 69.1724 14.6099 68.5697 14.6099 67.9084C14.6099 67.247 14.7005 66.6497 14.8819 66.1164C15.0632 65.5724 15.3192 65.1137 15.6499 64.7404C15.9805 64.3564 16.3805 64.063 16.8499 63.8604C17.3299 63.6577 17.8579 63.5564 18.4339 63.5564C19.0099 63.5564 19.5325 63.6577 20.0019 63.8604C20.4819 64.063 20.8872 64.3564 21.2179 64.7404C21.5485 65.1137 21.8045 65.5724 21.9859 66.1164C22.1672 66.6497 22.2579 67.247 22.2579 67.9084C22.2579 68.5697 22.1672 69.1724 21.9859 69.7164C21.8045 70.2497 21.5485 70.7084 21.2179 71.0924C20.8872 71.4657 20.4819 71.7537 20.0019 71.9564C19.5325 72.159 19.0099 72.2604 18.4339 72.2604ZM18.4339 70.8204C19.0312 70.8204 19.5112 70.639 19.8739 70.2764C20.2365 69.903 20.4179 69.3484 20.4179 68.6124V67.2044C20.4179 66.4684 20.2365 65.919 19.8739 65.5564C19.5112 65.183 19.0312 64.9964 18.4339 64.9964C17.8365 64.9964 17.3565 65.183 16.9939 65.5564C16.6312 65.919 16.4499 66.4684 16.4499 67.2044V68.6124C16.4499 69.3484 16.6312 69.903 16.9939 70.2764C17.3565 70.639 17.8365 70.8204 18.4339 70.8204ZM24.2011 72.0684V63.7484H25.9451V65.1244H26.0251C26.2065 64.6764 26.4785 64.303 26.8411 64.0044C27.2145 63.7057 27.7211 63.5564 28.3611 63.5564C29.2145 63.5564 29.8758 63.839 30.3451 64.4044C30.8251 64.959 31.0651 65.7537 31.0651 66.7884V72.0684H29.3211V67.0124C29.3211 65.711 28.7985 65.0604 27.7531 65.0604C27.5291 65.0604 27.3051 65.0924 27.0811 65.1564C26.8678 65.2097 26.6758 65.295 26.5051 65.4124C26.3345 65.5297 26.1958 65.679 26.0891 65.8604C25.9931 66.0417 25.9451 66.255 25.9451 66.5004V72.0684H24.2011ZM35.7864 72.0684C35.1784 72.0684 34.7197 71.9137 34.4104 71.6044C34.101 71.2844 33.9464 70.8364 33.9464 70.2604V65.1724H32.6504V63.7484H33.3544C33.6424 63.7484 33.8397 63.6844 33.9464 63.5564C34.0637 63.4284 34.1224 63.2204 34.1224 62.9324V61.4764H35.6904V63.7484H37.4344V65.1724H35.6904V70.6444H37.3064V72.0684H35.7864ZM45.4221 72.0684C44.9635 72.0684 44.6115 71.9404 44.3661 71.6844C44.1208 71.4177 43.9715 71.0817 43.9181 70.6764H43.8381C43.6781 71.199 43.3848 71.5937 42.9581 71.8604C42.5315 72.127 42.0141 72.2604 41.4061 72.2604C40.5421 72.2604 39.8755 72.0364 39.4061 71.5884C38.9475 71.1404 38.7181 70.5377 38.7181 69.7804C38.7181 68.9484 39.0168 68.3244 39.6141 67.9084C40.2221 67.4924 41.1075 67.2844 42.2701 67.2844H43.7741V66.5804C43.7741 66.0684 43.6355 65.6737 43.3581 65.3964C43.0808 65.119 42.6488 64.9804 42.0621 64.9804C41.5715 64.9804 41.1715 65.087 40.8621 65.3004C40.5528 65.5137 40.2915 65.7857 40.0781 66.1164L39.0381 65.1724C39.3155 64.703 39.7048 64.319 40.2061 64.0204C40.7075 63.711 41.3635 63.5564 42.1741 63.5564C43.2515 63.5564 44.0781 63.807 44.6541 64.3084C45.2301 64.8097 45.5181 65.5297 45.5181 66.4684V70.6444H46.3981V72.0684H45.4221ZM41.9021 70.9324C42.4461 70.9324 42.8941 70.815 43.2461 70.5804C43.5981 70.335 43.7741 70.0097 43.7741 69.6044V68.4044H42.3021C41.0968 68.4044 40.4941 68.7777 40.4941 69.5244V69.8124C40.4941 70.1857 40.6168 70.4684 40.8621 70.6604C41.1181 70.8417 41.4648 70.9324 41.9021 70.9324ZM51.3234 72.2604C50.726 72.2604 50.1927 72.159 49.7234 71.9564C49.254 71.7537 48.8594 71.4657 48.5394 71.0924C48.2194 70.7084 47.974 70.2497 47.8034 69.7164C47.6327 69.1724 47.5474 68.5697 47.5474 67.9084C47.5474 67.247 47.6327 66.6497 47.8034 66.1164C47.974 65.5724 48.2194 65.1137 48.5394 64.7404C48.8594 64.3564 49.254 64.063 49.7234 63.8604C50.1927 63.6577 50.726 63.5564 51.3234 63.5564C52.1554 63.5564 52.838 63.743 53.3714 64.1164C53.9047 64.4897 54.294 64.9857 54.5394 65.6044L53.0994 66.2764C52.982 65.8924 52.774 65.5884 52.4754 65.3644C52.1874 65.1297 51.8034 65.0124 51.3234 65.0124C50.6834 65.0124 50.198 65.215 49.8674 65.6204C49.5474 66.015 49.3874 66.5324 49.3874 67.1724V68.6604C49.3874 69.3004 49.5474 69.823 49.8674 70.2284C50.198 70.623 50.6834 70.8204 51.3234 70.8204C51.8354 70.8204 52.2407 70.6977 52.5394 70.4524C52.8487 70.1964 53.094 69.8604 53.2754 69.4444L54.6034 70.1484C54.326 70.831 53.91 71.3537 53.3554 71.7164C52.8007 72.079 52.1234 72.2604 51.3234 72.2604ZM58.5676 72.0684C57.9596 72.0684 57.501 71.9137 57.1916 71.6044C56.8823 71.2844 56.7276 70.8364 56.7276 70.2604V65.1724H55.4316V63.7484H56.1356C56.4236 63.7484 56.621 63.6844 56.7276 63.5564C56.845 63.4284 56.9036 63.2204 56.9036 62.9324V61.4764H58.4716V63.7484H60.2156V65.1724H58.4716V70.6444H60.0876V72.0684H58.5676Z" fill="url(#paint2_linear_356_21325)"/>
<path d="M232.872 72.2604C231.912 72.2604 231.096 72.0897 230.424 71.7484C229.763 71.407 229.192 70.959 228.712 70.4044L230.136 69.0284C230.52 69.4764 230.947 69.8177 231.416 70.0524C231.896 70.287 232.424 70.4044 233 70.4044C233.651 70.4044 234.141 70.2657 234.472 69.9884C234.803 69.7004 234.968 69.3164 234.968 68.8364C234.968 68.463 234.861 68.159 234.648 67.9244C234.435 67.6897 234.035 67.519 233.448 67.4124L232.392 67.2524C230.163 66.9004 229.048 65.8177 229.048 64.0044C229.048 63.503 229.139 63.0497 229.32 62.6444C229.512 62.239 229.784 61.8924 230.136 61.6044C230.488 61.3164 230.909 61.0977 231.4 60.9484C231.901 60.7884 232.467 60.7084 233.096 60.7084C233.939 60.7084 234.675 60.847 235.304 61.1244C235.933 61.4017 236.472 61.8124 236.92 62.3564L235.48 63.7164C235.203 63.375 234.867 63.0977 234.472 62.8844C234.077 62.671 233.581 62.5644 232.984 62.5644C232.376 62.5644 231.917 62.6817 231.608 62.9164C231.309 63.1404 231.16 63.4604 231.16 63.8764C231.16 64.303 231.283 64.6177 231.528 64.8204C231.773 65.023 232.168 65.1724 232.712 65.2684L233.752 65.4604C234.883 65.663 235.715 66.0257 236.248 66.5484C236.792 67.0604 237.064 67.7804 237.064 68.7084C237.064 69.2417 236.968 69.727 236.776 70.1644C236.595 70.591 236.323 70.9644 235.96 71.2844C235.608 71.5937 235.171 71.8337 234.648 72.0044C234.136 72.175 233.544 72.2604 232.872 72.2604ZM239.053 60.2284H241.101V65.1084H241.181C241.352 64.6604 241.618 64.287 241.981 63.9884C242.354 63.679 242.866 63.5244 243.517 63.5244C244.381 63.5244 245.042 63.807 245.501 64.3724C245.96 64.9377 246.189 65.743 246.189 66.7884V72.0684H244.141V66.9964C244.141 66.399 244.034 65.951 243.821 65.6524C243.608 65.3537 243.256 65.2044 242.765 65.2044C242.552 65.2044 242.344 65.2364 242.141 65.3004C241.949 65.3537 241.773 65.439 241.613 65.5564C241.464 65.663 241.341 65.8017 241.245 65.9724C241.149 66.1324 241.101 66.3244 241.101 66.5484V72.0684H239.053V60.2284ZM249.483 62.5004C249.057 62.5004 248.747 62.4044 248.555 62.2124C248.374 62.0204 248.283 61.775 248.283 61.4764V61.1564C248.283 60.8577 248.374 60.6124 248.555 60.4204C248.747 60.2284 249.057 60.1324 249.483 60.1324C249.899 60.1324 250.203 60.2284 250.395 60.4204C250.587 60.6124 250.683 60.8577 250.683 61.1564V61.4764C250.683 61.775 250.587 62.0204 250.395 62.2124C250.203 62.4044 249.899 62.5004 249.483 62.5004ZM248.459 63.7164H250.507V72.0684H248.459V63.7164ZM252.881 63.7164H254.929V65.0924H254.993C255.143 64.6124 255.425 64.2337 255.841 63.9564C256.257 63.6684 256.743 63.5244 257.297 63.5244C258.364 63.5244 259.175 63.903 259.729 64.6604C260.295 65.407 260.577 66.479 260.577 67.8764C260.577 69.2844 260.295 70.367 259.729 71.1244C259.175 71.8817 258.364 72.2604 257.297 72.2604C256.743 72.2604 256.257 72.1164 255.841 71.8284C255.436 71.5404 255.153 71.1564 254.993 70.6764H254.929V75.2684H252.881V63.7164ZM256.641 70.5644C257.175 70.5644 257.607 70.3884 257.937 70.0364C258.268 69.6844 258.433 69.2097 258.433 68.6124V67.1724C258.433 66.575 258.268 66.1004 257.937 65.7484C257.607 65.3857 257.175 65.2044 256.641 65.2044C256.151 65.2044 255.74 65.327 255.409 65.5724C255.089 65.8177 254.929 66.143 254.929 66.5484V69.2044C254.929 69.6417 255.089 69.9777 255.409 70.2124C255.74 70.447 256.151 70.5644 256.641 70.5644ZM262.475 63.7164H264.523V65.0924H264.587C264.736 64.6124 265.019 64.2337 265.435 63.9564C265.851 63.6684 266.336 63.5244 266.891 63.5244C267.958 63.5244 268.768 63.903 269.323 64.6604C269.888 65.407 270.171 66.479 270.171 67.8764C270.171 69.2844 269.888 70.367 269.323 71.1244C268.768 71.8817 267.958 72.2604 266.891 72.2604C266.336 72.2604 265.851 72.1164 265.435 71.8284C265.03 71.5404 264.747 71.1564 264.587 70.6764H264.523V75.2684H262.475V63.7164ZM266.235 70.5644C266.768 70.5644 267.2 70.3884 267.531 70.0364C267.862 69.6844 268.027 69.2097 268.027 68.6124V67.1724C268.027 66.575 267.862 66.1004 267.531 65.7484C267.2 65.3857 266.768 65.2044 266.235 65.2044C265.744 65.2044 265.334 65.327 265.003 65.5724C264.683 65.8177 264.523 66.143 264.523 66.5484V69.2044C264.523 69.6417 264.683 69.9777 265.003 70.2124C265.334 70.447 265.744 70.5644 266.235 70.5644ZM273.093 62.5004C272.666 62.5004 272.357 62.4044 272.165 62.2124C271.983 62.0204 271.893 61.775 271.893 61.4764V61.1564C271.893 60.8577 271.983 60.6124 272.165 60.4204C272.357 60.2284 272.666 60.1324 273.093 60.1324C273.509 60.1324 273.813 60.2284 274.005 60.4204C274.197 60.6124 274.293 60.8577 274.293 61.1564V61.4764C274.293 61.775 274.197 62.0204 274.005 62.2124C273.813 62.4044 273.509 62.5004 273.093 62.5004ZM272.069 63.7164H274.117V72.0684H272.069V63.7164ZM276.491 72.0684V63.7164H278.539V65.1084H278.619C278.789 64.6604 279.056 64.287 279.419 63.9884C279.792 63.679 280.304 63.5244 280.955 63.5244C281.819 63.5244 282.48 63.807 282.939 64.3724C283.397 64.9377 283.627 65.743 283.627 66.7884V72.0684H281.579V66.9964C281.579 66.399 281.472 65.951 281.259 65.6524C281.045 65.3537 280.693 65.2044 280.203 65.2044C279.989 65.2044 279.781 65.2364 279.579 65.3004C279.387 65.3537 279.211 65.439 279.051 65.5564C278.901 65.663 278.779 65.8017 278.683 65.9724C278.587 66.1324 278.539 66.3244 278.539 66.5484V72.0684H276.491ZM293.433 72.7724C293.433 73.2097 293.353 73.5937 293.193 73.9244C293.044 74.2657 292.793 74.5484 292.441 74.7724C292.089 74.9964 291.636 75.167 291.081 75.2844C290.526 75.4017 289.849 75.4604 289.049 75.4604C288.345 75.4604 287.748 75.4124 287.257 75.3164C286.766 75.231 286.361 75.103 286.041 74.9324C285.732 74.7724 285.508 74.5697 285.369 74.3244C285.23 74.079 285.161 73.8017 285.161 73.4924C285.161 73.023 285.289 72.655 285.545 72.3884C285.812 72.1324 286.18 71.967 286.649 71.8924V71.7164C286.308 71.631 286.041 71.4657 285.849 71.2204C285.668 70.9644 285.577 70.6657 285.577 70.3244C285.577 70.111 285.62 69.9244 285.705 69.7644C285.79 69.5937 285.902 69.4497 286.041 69.3324C286.19 69.215 286.356 69.119 286.537 69.0444C286.718 68.959 286.91 68.895 287.113 68.8524V68.7884C286.601 68.5537 286.217 68.2284 285.961 67.8124C285.716 67.3964 285.593 66.911 285.593 66.3564C285.593 65.503 285.886 64.8204 286.473 64.3084C287.06 63.7857 287.918 63.5244 289.049 63.5244C289.305 63.5244 289.556 63.5404 289.801 63.5724C290.057 63.6044 290.292 63.6577 290.505 63.7324V63.4604C290.505 62.6497 290.9 62.2444 291.689 62.2444H292.985V63.8124H291.209V64.0364C291.646 64.2817 291.972 64.6017 292.185 64.9964C292.398 65.391 292.505 65.8444 292.505 66.3564C292.505 67.199 292.212 67.8764 291.625 68.3884C291.049 68.9004 290.19 69.1564 289.049 69.1564C288.558 69.1564 288.132 69.1084 287.769 69.0124C287.609 69.087 287.47 69.1884 287.353 69.3164C287.236 69.4337 287.177 69.583 287.177 69.7644C287.177 70.1804 287.54 70.3884 288.265 70.3884H290.505C291.529 70.3884 292.27 70.6017 292.729 71.0284C293.198 71.4444 293.433 72.0257 293.433 72.7724ZM291.513 73.0124C291.513 72.7457 291.406 72.5377 291.193 72.3884C290.98 72.239 290.612 72.1644 290.089 72.1644H287.241C286.953 72.3777 286.809 72.6657 286.809 73.0284C286.809 73.3484 286.942 73.599 287.209 73.7804C287.476 73.9617 287.929 74.0524 288.569 74.0524H289.593C290.265 74.0524 290.75 73.967 291.049 73.7964C291.358 73.6257 291.513 73.3644 291.513 73.0124ZM289.049 67.7644C290.052 67.7644 290.553 67.3377 290.553 66.4844V66.2124C290.553 65.359 290.052 64.9324 289.049 64.9324C288.046 64.9324 287.545 65.359 287.545 66.2124V66.4844C287.545 67.3377 288.046 67.7644 289.049 67.7644Z" fill="url(#paint3_linear_356_21325)"/>
<path d="M457.526 72.0684V60.9004H462.326C463.361 60.9004 464.161 61.2044 464.726 61.8124C465.292 62.4204 465.574 63.2364 465.574 64.2604C465.574 65.2844 465.292 66.1004 464.726 66.7084C464.161 67.3164 463.361 67.6204 462.326 67.6204H459.334V72.0684H457.526ZM459.334 66.0364H462.214C462.673 66.0364 463.03 65.919 463.286 65.6844C463.542 65.439 463.67 65.0924 463.67 64.6444V63.8764C463.67 63.4284 463.542 63.087 463.286 62.8524C463.03 62.607 462.673 62.4844 462.214 62.4844H459.334V66.0364ZM473.338 72.0684C472.879 72.0684 472.527 71.9404 472.282 71.6844C472.037 71.4177 471.887 71.0817 471.834 70.6764H471.754C471.594 71.199 471.301 71.5937 470.874 71.8604C470.447 72.127 469.93 72.2604 469.322 72.2604C468.458 72.2604 467.791 72.0364 467.322 71.5884C466.863 71.1404 466.634 70.5377 466.634 69.7804C466.634 68.9484 466.933 68.3244 467.53 67.9084C468.138 67.4924 469.023 67.2844 470.186 67.2844H471.69V66.5804C471.69 66.0684 471.551 65.6737 471.274 65.3964C470.997 65.119 470.565 64.9804 469.978 64.9804C469.487 64.9804 469.087 65.087 468.778 65.3004C468.469 65.5137 468.207 65.7857 467.994 66.1164L466.954 65.1724C467.231 64.703 467.621 64.319 468.122 64.0204C468.623 63.711 469.279 63.5564 470.09 63.5564C471.167 63.5564 471.994 63.807 472.57 64.3084C473.146 64.8097 473.434 65.5297 473.434 66.4684V70.6444H474.314V72.0684H473.338ZM469.818 70.9324C470.362 70.9324 470.81 70.815 471.162 70.5804C471.514 70.335 471.69 70.0097 471.69 69.6044V68.4044H470.218C469.013 68.4044 468.41 68.7777 468.41 69.5244V69.8124C468.41 70.1857 468.533 70.4684 468.778 70.6604C469.034 70.8417 469.381 70.9324 469.818 70.9324ZM481.018 63.7484H482.698L479.194 73.7164C479.098 73.9937 478.986 74.2284 478.858 74.4204C478.741 74.623 478.597 74.783 478.426 74.9004C478.266 75.0284 478.069 75.119 477.834 75.1724C477.599 75.2364 477.322 75.2684 477.002 75.2684H475.994V73.8444H477.402L477.882 72.4364L474.858 63.7484H476.602L478.266 68.6444L478.746 70.4524H478.826L479.354 68.6444L481.018 63.7484ZM484.133 72.0684V63.7484H485.877V65.1244H485.957C486.042 64.911 486.143 64.7084 486.261 64.5164C486.389 64.3244 486.538 64.159 486.709 64.0204C486.89 63.871 487.098 63.759 487.333 63.6844C487.578 63.599 487.861 63.5564 488.181 63.5564C488.746 63.5564 489.247 63.695 489.685 63.9724C490.122 64.2497 490.442 64.6764 490.645 65.2524H490.693C490.842 64.783 491.13 64.383 491.557 64.0524C491.983 63.7217 492.533 63.5564 493.205 63.5564C494.037 63.5564 494.682 63.839 495.141 64.4044C495.599 64.959 495.829 65.7537 495.829 66.7884V72.0684H494.085V66.9964C494.085 66.3564 493.962 65.8764 493.717 65.5564C493.471 65.2257 493.082 65.0604 492.549 65.0604C492.325 65.0604 492.111 65.0924 491.909 65.1564C491.706 65.2097 491.525 65.295 491.365 65.4124C491.215 65.5297 491.093 65.679 490.997 65.8604C490.901 66.0417 490.853 66.2497 490.853 66.4844V72.0684H489.109V66.9964C489.109 65.7057 488.602 65.0604 487.589 65.0604C487.375 65.0604 487.162 65.0924 486.949 65.1564C486.746 65.2097 486.565 65.295 486.405 65.4124C486.245 65.5297 486.117 65.679 486.021 65.8604C485.925 66.0417 485.877 66.2497 485.877 66.4844V72.0684H484.133ZM501.506 72.2604C500.909 72.2604 500.375 72.159 499.906 71.9564C499.437 71.7537 499.037 71.4657 498.706 71.0924C498.375 70.7084 498.119 70.2497 497.938 69.7164C497.767 69.1724 497.682 68.5697 497.682 67.9084C497.682 67.247 497.767 66.6497 497.938 66.1164C498.119 65.5724 498.375 65.1137 498.706 64.7404C499.037 64.3564 499.437 64.063 499.906 63.8604C500.375 63.6577 500.909 63.5564 501.506 63.5564C502.114 63.5564 502.647 63.663 503.106 63.8764C503.575 64.0897 503.965 64.3884 504.274 64.7724C504.583 65.1457 504.813 65.583 504.962 66.0844C505.122 66.5857 505.202 67.1244 505.202 67.7004V68.3564H499.49V68.6284C499.49 69.2684 499.677 69.7964 500.05 70.2124C500.434 70.6177 500.978 70.8204 501.682 70.8204C502.194 70.8204 502.626 70.7084 502.978 70.4844C503.33 70.2604 503.629 69.9564 503.874 69.5724L504.898 70.5804C504.589 71.0924 504.141 71.503 503.554 71.8124C502.967 72.111 502.285 72.2604 501.506 72.2604ZM501.506 64.9164C501.207 64.9164 500.93 64.9697 500.674 65.0764C500.429 65.183 500.215 65.3324 500.034 65.5244C499.863 65.7164 499.73 65.9457 499.634 66.2124C499.538 66.479 499.49 66.7724 499.49 67.0924V67.2044H503.362V67.0444C503.362 66.4044 503.197 65.8924 502.866 65.5084C502.535 65.1137 502.082 64.9164 501.506 64.9164ZM507.133 72.0684V63.7484H508.877V65.1244H508.957C509.138 64.6764 509.41 64.303 509.773 64.0044C510.146 63.7057 510.653 63.5564 511.293 63.5564C512.146 63.5564 512.807 63.839 513.277 64.4044C513.757 64.959 513.997 65.7537 513.997 66.7884V72.0684H512.253V67.0124C512.253 65.711 511.73 65.0604 510.685 65.0604C510.461 65.0604 510.237 65.0924 510.013 65.1564C509.799 65.2097 509.607 65.295 509.437 65.4124C509.266 65.5297 509.127 65.679 509.021 65.8604C508.925 66.0417 508.877 66.255 508.877 66.5004V72.0684H507.133ZM518.718 72.0684C518.11 72.0684 517.651 71.9137 517.342 71.6044C517.033 71.2844 516.878 70.8364 516.878 70.2604V65.1724H515.582V63.7484H516.286C516.574 63.7484 516.771 63.6844 516.878 63.5564C516.995 63.4284 517.054 63.2204 517.054 62.9324V61.4764H518.622V63.7484H520.366V65.1724H518.622V70.6444H520.238V72.0684H518.718Z" fill="#848189"/>
<line x1="60.873" y1="27.0957" x2="235.686" y2="27.0957" stroke="#A54078" stroke-width="2"/>
<line x1="288.754" y1="27.0957" x2="463.567" y2="27.0957" stroke="#848189" stroke-width="2"/>
<path d="M43.6089 18.6358C44.0487 18.2172 44.6338 17.9857 45.241 17.9903C45.8481 17.9949 46.4297 18.2352 46.8631 18.6604C47.2964 19.0857 47.5476 19.6627 47.5637 20.2696C47.5797 20.8765 47.3594 21.466 46.9491 21.9135L34.4937 37.4906C34.2795 37.7213 34.021 37.9065 33.7336 38.035C33.4463 38.1635 33.136 38.2327 32.8212 38.2385C32.5065 38.2443 32.1938 38.1866 31.9019 38.0689C31.61 37.9511 31.3448 37.7757 31.1223 37.5531L22.8624 29.2932C22.6323 29.0788 22.4478 28.8203 22.3199 28.5332C22.1919 28.246 22.1231 27.9359 22.1176 27.6216C22.112 27.3072 22.1698 26.995 22.2876 26.7034C22.4053 26.4119 22.5806 26.1471 22.8029 25.9248C23.0252 25.7024 23.2901 25.5272 23.5816 25.4094C23.8731 25.2917 24.1854 25.2338 24.4997 25.2394C24.8141 25.2449 25.1241 25.3137 25.4113 25.4417C25.6985 25.5697 25.957 25.7542 26.1713 25.9842L32.7081 32.5178L43.5496 18.7045L43.6089 18.6358Z" fill="url(#paint4_linear_356_21325)"/>
<path d="M271.49 18.6358C271.93 18.2172 272.515 17.9857 273.122 17.9903C273.729 17.9949 274.311 18.2352 274.744 18.6604C275.177 19.0857 275.428 19.6627 275.445 20.2696C275.461 20.8765 275.24 21.466 274.83 21.9135L262.375 37.4906C262.16 37.7213 261.902 37.9065 261.614 38.035C261.327 38.1635 261.017 38.2327 260.702 38.2385C260.387 38.2443 260.075 38.1866 259.783 38.0689C259.491 37.9511 259.226 37.7757 259.003 37.5531L250.743 29.2932C250.513 29.0788 250.329 28.8203 250.201 28.5332C250.073 28.246 250.004 27.9359 249.998 27.6216C249.993 27.3072 250.051 26.995 250.168 26.7034C250.286 26.4119 250.461 26.1471 250.684 25.9248C250.906 25.7024 251.171 25.5272 251.462 25.4094C251.754 25.2917 252.066 25.2338 252.381 25.2394C252.695 25.2449 253.005 25.3137 253.292 25.4417C253.579 25.5697 253.838 25.7542 254.052 25.9842L260.589 32.5178L271.43 18.7045L271.49 18.6358Z" fill="#FCFAF7"/>
<defs>
<linearGradient id="paint0_linear_356_21325" x1="34.3388" y1="-18.9529" x2="34.3388" y2="70.1259" gradientUnits="userSpaceOnUse">
<stop stop-color="#4D1FDA"/>
<stop offset="1" stop-color="#F55D1C"/>
</linearGradient>
<linearGradient id="paint1_linear_356_21325" x1="262.22" y1="-18.9529" x2="262.22" y2="70.1259" gradientUnits="userSpaceOnUse">
<stop stop-color="#4D1FDA"/>
<stop offset="1" stop-color="#F55D1C"/>
</linearGradient>
<linearGradient id="paint2_linear_356_21325" x1="30.5" y1="47.5684" x2="30.5" y2="82.8184" gradientUnits="userSpaceOnUse">
<stop stop-color="#4D1FDA"/>
<stop offset="1" stop-color="#F55D1C"/>
</linearGradient>
<linearGradient id="paint3_linear_356_21325" x1="260.76" y1="47.5684" x2="260.76" y2="82.8184" gradientUnits="userSpaceOnUse">
<stop stop-color="#4D1FDA"/>
<stop offset="1" stop-color="#F55D1C"/>
</linearGradient>
<linearGradient id="paint4_linear_356_21325" x1="34.8408" y1="10.7586" x2="34.8408" y2="44.7474" gradientUnits="userSpaceOnUse">
<stop stop-color="#4D1FDA"/>
<stop offset="1" stop-color="#F55D1C"/>
</linearGradient>
</defs>
</svg>
