<svg width="338" height="51" viewBox="0 0 338 51" fill="none" xmlns="http://www.w3.org/2000/svg">
<circle cx="22.5" cy="17.5" r="15" stroke="#FCFAF7" stroke-width="4"/>
<circle cx="168.5" cy="17.5" r="15" stroke="#FCFAF7" stroke-width="4"/>
<circle cx="314.5" cy="17.5" r="15" stroke="#FCFAF7" stroke-width="4"/>
<path d="M4.676 47.644C3.58 47.644 2.72 47.276 2.096 46.54C1.472 45.796 1.16 44.72 1.16 43.312C1.16 42.608 1.24 41.988 1.4 41.452C1.56 40.916 1.792 40.464 2.096 40.096C2.4 39.728 2.768 39.452 3.2 39.268C3.64 39.076 4.132 38.98 4.676 38.98C5.404 38.98 6.012 39.14 6.5 39.46C6.996 39.78 7.384 40.252 7.664 40.876L6.524 41.5C6.38 41.1 6.156 40.784 5.852 40.552C5.556 40.312 5.164 40.192 4.676 40.192C4.028 40.192 3.52 40.412 3.152 40.852C2.784 41.292 2.6 41.9 2.6 42.676V43.948C2.6 44.724 2.784 45.332 3.152 45.772C3.52 46.212 4.028 46.432 4.676 46.432C5.18 46.432 5.588 46.304 5.9 46.048C6.22 45.784 6.456 45.448 6.608 45.04L7.7 45.7C7.42 46.308 7.028 46.784 6.524 47.128C6.02 47.472 5.404 47.644 4.676 47.644ZM11.4895 47.644C11.0575 47.644 10.6615 47.568 10.3015 47.416C9.94947 47.264 9.64947 47.048 9.40147 46.768C9.15347 46.48 8.96147 46.136 8.82547 45.736C8.68947 45.328 8.62147 44.876 8.62147 44.38C8.62147 43.884 8.68947 43.436 8.82547 43.036C8.96147 42.628 9.15347 42.284 9.40147 42.004C9.64947 41.716 9.94947 41.496 10.3015 41.344C10.6615 41.192 11.0575 41.116 11.4895 41.116C11.9215 41.116 12.3135 41.192 12.6655 41.344C13.0255 41.496 13.3295 41.716 13.5775 42.004C13.8255 42.284 14.0175 42.628 14.1535 43.036C14.2895 43.436 14.3575 43.884 14.3575 44.38C14.3575 44.876 14.2895 45.328 14.1535 45.736C14.0175 46.136 13.8255 46.48 13.5775 46.768C13.3295 47.048 13.0255 47.264 12.6655 47.416C12.3135 47.568 11.9215 47.644 11.4895 47.644ZM11.4895 46.564C11.9375 46.564 12.2975 46.428 12.5695 46.156C12.8415 45.876 12.9775 45.46 12.9775 44.908V43.852C12.9775 43.3 12.8415 42.888 12.5695 42.616C12.2975 42.336 11.9375 42.196 11.4895 42.196C11.0415 42.196 10.6815 42.336 10.4095 42.616C10.1375 42.888 10.0015 43.3 10.0015 43.852V44.908C10.0015 45.46 10.1375 45.876 10.4095 46.156C10.6815 46.428 11.0415 46.564 11.4895 46.564ZM15.8149 47.5V41.26H17.1229V42.292H17.1829C17.3189 41.956 17.5229 41.676 17.7949 41.452C18.0749 41.228 18.4549 41.116 18.9349 41.116C19.5749 41.116 20.0709 41.328 20.4229 41.752C20.7829 42.168 20.9629 42.764 20.9629 43.54V47.5H19.6549V43.708C19.6549 42.732 19.2629 42.244 18.4789 42.244C18.3109 42.244 18.1429 42.268 17.9749 42.316C17.8149 42.356 17.6709 42.42 17.5429 42.508C17.4149 42.596 17.3109 42.708 17.2309 42.844C17.1589 42.98 17.1229 43.14 17.1229 43.324V47.5H15.8149ZM24.5038 47.5C24.0478 47.5 23.7038 47.384 23.4718 47.152C23.2398 46.912 23.1238 46.576 23.1238 46.144V42.328H22.1518V41.26H22.6798C22.8958 41.26 23.0438 41.212 23.1238 41.116C23.2118 41.02 23.2558 40.864 23.2558 40.648V39.556H24.4318V41.26H25.7398V42.328H24.4318V46.432H25.6438V47.5H24.5038ZM31.7307 47.5C31.3867 47.5 31.1227 47.404 30.9387 47.212C30.7547 47.012 30.6427 46.76 30.6027 46.456H30.5427C30.4227 46.848 30.2027 47.144 29.8827 47.344C29.5627 47.544 29.1747 47.644 28.7187 47.644C28.0707 47.644 27.5707 47.476 27.2187 47.14C26.8747 46.804 26.7027 46.352 26.7027 45.784C26.7027 45.16 26.9267 44.692 27.3747 44.38C27.8307 44.068 28.4947 43.912 29.3667 43.912H30.4947V43.384C30.4947 43 30.3907 42.704 30.1827 42.496C29.9747 42.288 29.6507 42.184 29.2107 42.184C28.8427 42.184 28.5427 42.264 28.3107 42.424C28.0787 42.584 27.8827 42.788 27.7227 43.036L26.9427 42.328C27.1507 41.976 27.4427 41.688 27.8187 41.464C28.1947 41.232 28.6867 41.116 29.2947 41.116C30.1027 41.116 30.7227 41.304 31.1547 41.68C31.5867 42.056 31.8027 42.596 31.8027 43.3V46.432H32.4627V47.5H31.7307ZM29.0907 46.648C29.4987 46.648 29.8347 46.56 30.0987 46.384C30.3627 46.2 30.4947 45.956 30.4947 45.652V44.752H29.3907C28.4867 44.752 28.0347 45.032 28.0347 45.592V45.808C28.0347 46.088 28.1267 46.3 28.3107 46.444C28.5027 46.58 28.7627 46.648 29.0907 46.648ZM36.1566 47.644C35.7086 47.644 35.3086 47.568 34.9566 47.416C34.6046 47.264 34.3086 47.048 34.0686 46.768C33.8286 46.48 33.6446 46.136 33.5166 45.736C33.3886 45.328 33.3246 44.876 33.3246 44.38C33.3246 43.884 33.3886 43.436 33.5166 43.036C33.6446 42.628 33.8286 42.284 34.0686 42.004C34.3086 41.716 34.6046 41.496 34.9566 41.344C35.3086 41.192 35.7086 41.116 36.1566 41.116C36.7806 41.116 37.2926 41.256 37.6926 41.536C38.0926 41.816 38.3846 42.188 38.5686 42.652L37.4886 43.156C37.4006 42.868 37.2446 42.64 37.0206 42.472C36.8046 42.296 36.5166 42.208 36.1566 42.208C35.6766 42.208 35.3126 42.36 35.0646 42.664C34.8246 42.96 34.7046 43.348 34.7046 43.828V44.944C34.7046 45.424 34.8246 45.816 35.0646 46.12C35.3126 46.416 35.6766 46.564 36.1566 46.564C36.5406 46.564 36.8446 46.472 37.0686 46.288C37.3006 46.096 37.4846 45.844 37.6206 45.532L38.6166 46.06C38.4086 46.572 38.0966 46.964 37.6806 47.236C37.2646 47.508 36.7566 47.644 36.1566 47.644ZM41.5898 47.5C41.1338 47.5 40.7898 47.384 40.5578 47.152C40.3258 46.912 40.2098 46.576 40.2098 46.144V42.328H39.2378V41.26H39.7658C39.9818 41.26 40.1298 41.212 40.2098 41.116C40.2978 41.02 40.3418 40.864 40.3418 40.648V39.556H41.5178V41.26H42.8258V42.328H41.5178V46.432H42.7298V47.5H41.5898Z" fill="#FCFAF7"/>
<path d="M147.493 47.644C146.789 47.644 146.189 47.516 145.693 47.26C145.205 47.004 144.785 46.66 144.433 46.228L145.369 45.352C145.665 45.712 145.989 45.984 146.341 46.168C146.701 46.352 147.109 46.444 147.565 46.444C148.101 46.444 148.505 46.324 148.777 46.084C149.049 45.844 149.185 45.52 149.185 45.112C149.185 44.784 149.089 44.524 148.897 44.332C148.705 44.14 148.365 43.996 147.877 43.9L147.133 43.768C146.317 43.616 145.705 43.348 145.297 42.964C144.889 42.58 144.685 42.052 144.685 41.38C144.685 41.012 144.753 40.68 144.889 40.384C145.033 40.08 145.229 39.828 145.477 39.628C145.733 39.42 146.041 39.26 146.401 39.148C146.761 39.036 147.165 38.98 147.613 38.98C148.245 38.98 148.793 39.092 149.257 39.316C149.721 39.532 150.117 39.848 150.445 40.264L149.497 41.104C149.281 40.824 149.017 40.6 148.705 40.432C148.393 40.264 148.005 40.18 147.541 40.18C147.061 40.18 146.689 40.276 146.425 40.468C146.161 40.66 146.029 40.94 146.029 41.308C146.029 41.66 146.137 41.924 146.353 42.1C146.569 42.268 146.905 42.396 147.361 42.484L148.105 42.64C148.945 42.8 149.557 43.072 149.941 43.456C150.333 43.84 150.529 44.368 150.529 45.04C150.529 45.432 150.461 45.788 150.325 46.108C150.189 46.428 149.989 46.704 149.725 46.936C149.469 47.16 149.153 47.336 148.777 47.464C148.401 47.584 147.973 47.644 147.493 47.644ZM152.061 38.62H153.369V42.292H153.429C153.565 41.956 153.769 41.676 154.041 41.452C154.321 41.228 154.701 41.116 155.181 41.116C155.821 41.116 156.317 41.328 156.669 41.752C157.029 42.168 157.209 42.764 157.209 43.54V47.5H155.901V43.696C155.901 42.728 155.509 42.244 154.725 42.244C154.557 42.244 154.389 42.268 154.221 42.316C154.061 42.356 153.917 42.42 153.789 42.508C153.661 42.596 153.557 42.708 153.477 42.844C153.405 42.98 153.369 43.136 153.369 43.312V47.5H152.061V38.62ZM159.682 40.144C159.41 40.144 159.21 40.08 159.082 39.952C158.962 39.824 158.902 39.66 158.902 39.46V39.256C158.902 39.056 158.962 38.892 159.082 38.764C159.21 38.636 159.41 38.572 159.682 38.572C159.954 38.572 160.15 38.636 160.27 38.764C160.39 38.892 160.45 39.056 160.45 39.256V39.46C160.45 39.66 160.39 39.824 160.27 39.952C160.15 40.08 159.954 40.144 159.682 40.144ZM159.022 41.26H160.33V47.5H159.022V41.26ZM162.198 41.26H163.506V42.292H163.566C163.702 41.916 163.922 41.628 164.226 41.428C164.538 41.22 164.902 41.116 165.318 41.116C166.11 41.116 166.722 41.404 167.154 41.98C167.586 42.548 167.802 43.348 167.802 44.38C167.802 45.412 167.586 46.216 167.154 46.792C166.722 47.36 166.11 47.644 165.318 47.644C164.902 47.644 164.538 47.54 164.226 47.332C163.922 47.124 163.702 46.836 163.566 46.468H163.506V49.9H162.198V41.26ZM164.922 46.516C165.378 46.516 165.742 46.372 166.014 46.084C166.286 45.788 166.422 45.4 166.422 44.92V43.84C166.422 43.36 166.286 42.976 166.014 42.688C165.742 42.392 165.378 42.244 164.922 42.244C164.522 42.244 164.186 42.344 163.914 42.544C163.642 42.736 163.506 42.992 163.506 43.312V45.448C163.506 45.768 163.642 46.028 163.914 46.228C164.186 46.42 164.522 46.516 164.922 46.516ZM169.299 41.26H170.607V42.292H170.667C170.803 41.916 171.023 41.628 171.327 41.428C171.639 41.22 172.003 41.116 172.419 41.116C173.211 41.116 173.823 41.404 174.255 41.98C174.687 42.548 174.903 43.348 174.903 44.38C174.903 45.412 174.687 46.216 174.255 46.792C173.823 47.36 173.211 47.644 172.419 47.644C172.003 47.644 171.639 47.54 171.327 47.332C171.023 47.124 170.803 46.836 170.667 46.468H170.607V49.9H169.299V41.26ZM172.023 46.516C172.479 46.516 172.843 46.372 173.115 46.084C173.387 45.788 173.523 45.4 173.523 44.92V43.84C173.523 43.36 173.387 42.976 173.115 42.688C172.843 42.392 172.479 42.244 172.023 42.244C171.623 42.244 171.287 42.344 171.015 42.544C170.743 42.736 170.607 42.992 170.607 43.312V45.448C170.607 45.768 170.743 46.028 171.015 46.228C171.287 46.42 171.623 46.516 172.023 46.516ZM177.061 40.144C176.789 40.144 176.589 40.08 176.461 39.952C176.341 39.824 176.281 39.66 176.281 39.46V39.256C176.281 39.056 176.341 38.892 176.461 38.764C176.589 38.636 176.789 38.572 177.061 38.572C177.333 38.572 177.529 38.636 177.649 38.764C177.769 38.892 177.829 39.056 177.829 39.256V39.46C177.829 39.66 177.769 39.824 177.649 39.952C177.529 40.08 177.333 40.144 177.061 40.144ZM176.401 41.26H177.709V47.5H176.401V41.26ZM179.577 47.5V41.26H180.885V42.292H180.945C181.081 41.956 181.285 41.676 181.557 41.452C181.837 41.228 182.217 41.116 182.697 41.116C183.337 41.116 183.833 41.328 184.185 41.752C184.545 42.168 184.725 42.764 184.725 43.54V47.5H183.417V43.708C183.417 42.732 183.025 42.244 182.241 42.244C182.073 42.244 181.905 42.268 181.737 42.316C181.577 42.356 181.433 42.42 181.305 42.508C181.177 42.596 181.073 42.708 180.993 42.844C180.921 42.98 180.885 43.14 180.885 43.324V47.5H179.577ZM192.01 48.088C192.01 48.736 191.762 49.224 191.266 49.552C190.77 49.88 189.962 50.044 188.842 50.044C188.33 50.044 187.894 50.008 187.534 49.936C187.182 49.872 186.89 49.776 186.658 49.648C186.434 49.52 186.27 49.364 186.166 49.18C186.062 48.996 186.01 48.784 186.01 48.544C186.01 48.2 186.102 47.932 186.286 47.74C186.478 47.548 186.742 47.416 187.078 47.344V47.212C186.606 47.06 186.37 46.74 186.37 46.252C186.37 45.932 186.478 45.688 186.694 45.52C186.91 45.344 187.17 45.22 187.474 45.148V45.1C187.106 44.924 186.822 44.68 186.622 44.368C186.43 44.048 186.334 43.676 186.334 43.252C186.334 42.612 186.546 42.096 186.97 41.704C187.402 41.312 188.018 41.116 188.818 41.116C189.258 41.116 189.634 41.18 189.946 41.308V41.14C189.946 40.86 190.01 40.644 190.138 40.492C190.274 40.332 190.482 40.252 190.762 40.252H191.722V41.308H190.45V41.56C190.73 41.744 190.946 41.984 191.098 42.28C191.25 42.568 191.326 42.892 191.326 43.252C191.326 43.884 191.11 44.396 190.678 44.788C190.246 45.172 189.63 45.364 188.83 45.364C188.526 45.364 188.254 45.332 188.014 45.268C187.854 45.324 187.714 45.404 187.594 45.508C187.474 45.604 187.414 45.732 187.414 45.892C187.414 46.06 187.49 46.18 187.642 46.252C187.794 46.324 188.01 46.36 188.29 46.36H189.826C190.594 46.36 191.15 46.516 191.494 46.828C191.838 47.132 192.01 47.552 192.01 48.088ZM190.786 48.232C190.786 48.016 190.702 47.844 190.534 47.716C190.374 47.588 190.078 47.524 189.646 47.524H187.534C187.246 47.692 187.102 47.932 187.102 48.244C187.102 48.5 187.202 48.704 187.402 48.856C187.61 49.016 187.958 49.096 188.446 49.096H189.262C190.278 49.096 190.786 48.808 190.786 48.232ZM188.83 44.416C189.214 44.416 189.51 44.332 189.718 44.164C189.934 43.988 190.042 43.72 190.042 43.36V43.12C190.042 42.76 189.934 42.496 189.718 42.328C189.51 42.152 189.214 42.064 188.83 42.064C188.446 42.064 188.146 42.152 187.93 42.328C187.722 42.496 187.618 42.76 187.618 43.12V43.36C187.618 43.72 187.722 43.988 187.93 44.164C188.146 44.332 188.446 44.416 188.83 44.416Z" fill="#FCFAF7"/>
<path d="M289.828 47.5V39.124H293.596C293.98 39.124 294.324 39.188 294.628 39.316C294.94 39.436 295.204 39.612 295.42 39.844C295.636 40.068 295.8 40.34 295.912 40.66C296.024 40.98 296.08 41.332 296.08 41.716C296.08 42.108 296.024 42.464 295.912 42.784C295.8 43.096 295.636 43.368 295.42 43.6C295.204 43.824 294.94 44 294.628 44.128C294.324 44.248 293.98 44.308 293.596 44.308H291.412V47.5H289.828ZM291.412 42.94H293.452C293.756 42.94 293.996 42.86 294.172 42.7C294.348 42.532 294.436 42.296 294.436 41.992V41.44C294.436 41.136 294.348 40.904 294.172 40.744C293.996 40.584 293.756 40.504 293.452 40.504H291.412V42.94ZM301.863 47.5C301.527 47.5 301.259 47.404 301.059 47.212C300.867 47.012 300.747 46.748 300.699 46.42H300.627C300.523 46.828 300.311 47.136 299.991 47.344C299.671 47.544 299.275 47.644 298.803 47.644C298.163 47.644 297.671 47.476 297.327 47.14C296.983 46.804 296.811 46.356 296.811 45.796C296.811 45.148 297.043 44.668 297.507 44.356C297.971 44.036 298.631 43.876 299.487 43.876H300.555V43.42C300.555 43.068 300.463 42.796 300.279 42.604C300.095 42.412 299.799 42.316 299.391 42.316C299.031 42.316 298.739 42.396 298.515 42.556C298.299 42.708 298.115 42.892 297.963 43.108L297.051 42.292C297.283 41.932 297.591 41.644 297.975 41.428C298.359 41.204 298.867 41.092 299.499 41.092C300.347 41.092 300.991 41.284 301.431 41.668C301.871 42.052 302.091 42.604 302.091 43.324V46.276H302.715V47.5H301.863ZM299.319 46.528C299.663 46.528 299.955 46.452 300.195 46.3C300.435 46.148 300.555 45.924 300.555 45.628V44.8H299.571C298.771 44.8 298.371 45.056 298.371 45.568V45.772C298.371 46.028 298.451 46.22 298.611 46.348C298.779 46.468 299.015 46.528 299.319 46.528ZM307.705 41.236H309.145L306.625 48.616C306.545 48.84 306.453 49.032 306.349 49.192C306.253 49.36 306.137 49.496 306.001 49.6C305.865 49.704 305.701 49.78 305.509 49.828C305.317 49.876 305.093 49.9 304.837 49.9H303.913V48.676H305.041L305.329 47.8L303.085 41.236H304.609L305.701 44.548L306.109 46.132H306.181L306.613 44.548L307.705 41.236ZM310.158 47.5V41.236H311.694V42.28H311.754C311.874 41.952 312.066 41.672 312.33 41.44C312.594 41.208 312.962 41.092 313.434 41.092C313.866 41.092 314.238 41.196 314.55 41.404C314.862 41.612 315.094 41.928 315.246 42.352H315.27C315.382 42 315.602 41.704 315.93 41.464C316.266 41.216 316.686 41.092 317.19 41.092C317.806 41.092 318.278 41.304 318.606 41.728C318.942 42.152 319.11 42.756 319.11 43.54V47.5H317.574V43.696C317.574 42.8 317.238 42.352 316.566 42.352C316.414 42.352 316.266 42.376 316.122 42.424C315.986 42.464 315.862 42.528 315.75 42.616C315.646 42.696 315.562 42.8 315.498 42.928C315.434 43.048 315.402 43.192 315.402 43.36V47.5H313.866V43.696C313.866 42.8 313.53 42.352 312.858 42.352C312.714 42.352 312.57 42.376 312.426 42.424C312.29 42.464 312.166 42.528 312.054 42.616C311.95 42.696 311.862 42.8 311.79 42.928C311.726 43.048 311.694 43.192 311.694 43.36V47.5H310.158ZM323.342 47.644C322.878 47.644 322.462 47.568 322.094 47.416C321.734 47.256 321.426 47.036 321.17 46.756C320.922 46.468 320.73 46.124 320.594 45.724C320.458 45.316 320.39 44.86 320.39 44.356C320.39 43.86 320.454 43.412 320.582 43.012C320.718 42.612 320.91 42.272 321.158 41.992C321.406 41.704 321.71 41.484 322.07 41.332C322.43 41.172 322.838 41.092 323.294 41.092C323.782 41.092 324.206 41.176 324.566 41.344C324.926 41.512 325.222 41.74 325.454 42.028C325.686 42.316 325.858 42.652 325.97 43.036C326.09 43.412 326.15 43.816 326.15 44.248V44.752H321.986V44.908C321.986 45.364 322.114 45.732 322.37 46.012C322.626 46.284 323.006 46.42 323.51 46.42C323.894 46.42 324.206 46.34 324.446 46.18C324.694 46.02 324.914 45.816 325.106 45.568L325.934 46.492C325.678 46.852 325.326 47.136 324.878 47.344C324.438 47.544 323.926 47.644 323.342 47.644ZM323.318 42.244C322.91 42.244 322.586 42.38 322.346 42.652C322.106 42.924 321.986 43.276 321.986 43.708V43.804H324.554V43.696C324.554 43.264 324.446 42.916 324.23 42.652C324.022 42.38 323.718 42.244 323.318 42.244ZM327.501 47.5V41.236H329.037V42.28H329.097C329.225 41.944 329.425 41.664 329.697 41.44C329.977 41.208 330.361 41.092 330.849 41.092C331.497 41.092 331.993 41.304 332.337 41.728C332.681 42.152 332.853 42.756 332.853 43.54V47.5H331.317V43.696C331.317 43.248 331.237 42.912 331.077 42.688C330.917 42.464 330.653 42.352 330.285 42.352C330.125 42.352 329.969 42.376 329.817 42.424C329.673 42.464 329.541 42.528 329.421 42.616C329.309 42.696 329.217 42.8 329.145 42.928C329.073 43.048 329.037 43.192 329.037 43.36V47.5H327.501ZM336.512 47.5C335.984 47.5 335.58 47.364 335.3 47.092C335.028 46.812 334.892 46.416 334.892 45.904V42.46H333.968V41.236H334.448C334.68 41.236 334.836 41.184 334.916 41.08C335.004 40.968 335.048 40.804 335.048 40.588V39.52H336.428V41.236H337.712V42.46H336.428V46.276H337.616V47.5H336.512Z" fill="#FCFAF7"/>
<line x1="39.5" y1="17.5" x2="151.5" y2="17.5" stroke="#FCFAF7" stroke-width="2"/>
<line x1="185.5" y1="17.5" x2="297.5" y2="17.5" stroke="#FCFAF7" stroke-width="2"/>
<path d="M28.4413 12.4409C28.723 12.1727 29.0979 12.0244 29.4869 12.0274C29.8759 12.0303 30.2485 12.1843 30.5262 12.4567C30.8038 12.7292 30.9648 13.0988 30.9751 13.4877C30.9853 13.8766 30.8442 14.2542 30.5813 14.541L22.6013 24.521C22.4641 24.6687 22.2985 24.7874 22.1144 24.8697C21.9303 24.952 21.7314 24.9964 21.5298 25.0001C21.3282 25.0038 21.1278 24.9669 20.9408 24.8914C20.7538 24.816 20.5839 24.7036 20.4413 24.561L15.1493 19.269C15.0019 19.1316 14.8837 18.966 14.8017 18.782C14.7197 18.598 14.6757 18.3994 14.6721 18.198C14.6686 17.9966 14.7056 17.7965 14.781 17.6098C14.8565 17.423 14.9688 17.2533 15.1112 17.1109C15.2537 16.9684 15.4233 16.8561 15.6101 16.7807C15.7969 16.7053 15.9969 16.6682 16.1983 16.6718C16.3997 16.6753 16.5984 16.7194 16.7824 16.8014C16.9664 16.8834 17.132 17.0016 17.2693 17.149L21.4573 21.335L28.4033 12.485L28.4413 12.4409Z" fill="#FCFAF7"/>
<path d="M174.441 12.4409C174.723 12.1727 175.098 12.0244 175.487 12.0274C175.876 12.0303 176.249 12.1843 176.526 12.4567C176.804 12.7292 176.965 13.0988 176.975 13.4877C176.985 13.8766 176.844 14.2542 176.581 14.541L168.601 24.521C168.464 24.6687 168.298 24.7874 168.114 24.8697C167.93 24.952 167.731 24.9964 167.53 25.0001C167.328 25.0038 167.128 24.9669 166.941 24.8914C166.754 24.816 166.584 24.7036 166.441 24.561L161.149 19.269C161.002 19.1316 160.884 18.966 160.802 18.782C160.72 18.598 160.676 18.3994 160.672 18.198C160.669 17.9966 160.706 17.7965 160.781 17.6098C160.856 17.423 160.969 17.2533 161.111 17.1109C161.254 16.9684 161.423 16.8561 161.61 16.7807C161.797 16.7053 161.997 16.6682 162.198 16.6718C162.4 16.6753 162.598 16.7194 162.782 16.8014C162.966 16.8834 163.132 17.0016 163.269 17.149L167.457 21.335L174.403 12.485L174.441 12.4409Z" fill="#FCFAF7"/>
<path d="M320.441 12.4409C320.723 12.1727 321.098 12.0244 321.487 12.0274C321.876 12.0303 322.249 12.1843 322.526 12.4567C322.804 12.7292 322.965 13.0988 322.975 13.4877C322.985 13.8766 322.844 14.2542 322.581 14.541L314.601 24.521C314.464 24.6687 314.298 24.7874 314.114 24.8697C313.93 24.952 313.731 24.9964 313.53 25.0001C313.328 25.0038 313.128 24.9669 312.941 24.8914C312.754 24.816 312.584 24.7036 312.441 24.561L307.149 19.269C307.002 19.1316 306.884 18.966 306.802 18.782C306.72 18.598 306.676 18.3994 306.672 18.198C306.669 17.9966 306.706 17.7965 306.781 17.6098C306.856 17.423 306.969 17.2533 307.111 17.1109C307.254 16.9684 307.423 16.8561 307.61 16.7807C307.797 16.7053 307.997 16.6682 308.198 16.6718C308.4 16.6753 308.598 16.7194 308.782 16.8014C308.966 16.8834 309.132 17.0016 309.269 17.149L313.457 21.335L320.403 12.485L320.441 12.4409Z" fill="#FCFAF7"/>
</svg>
