<svg width="526" height="79" viewBox="0 0 526 79" fill="none" xmlns="http://www.w3.org/2000/svg">
<circle cx="34.3388" cy="26.5341" r="24.5341" stroke="url(#paint0_linear_356_21602)" stroke-width="4"/>
<path d="M286.752 26.5341C286.752 40.0839 275.768 51.0682 262.218 51.0682C248.668 51.0682 237.684 40.0839 237.684 26.5341C237.684 12.9843 248.668 2 262.218 2C275.768 2 286.752 12.9843 286.752 26.5341Z" stroke="url(#paint1_linear_356_21602)" stroke-width="4"/>
<path d="M514.635 26.5341C514.635 40.0839 503.65 51.0682 490.101 51.0682C476.551 51.0682 465.566 40.0839 465.566 26.5341C465.566 12.9843 476.551 2 490.101 2C503.65 2 514.635 12.9843 514.635 26.5341Z" stroke="url(#paint2_linear_356_21602)" stroke-width="4"/>
<path d="M9.34925 72.2604C7.88792 72.2604 6.74125 71.7697 5.90925 70.7884C5.07725 69.7964 4.66125 68.3617 4.66125 66.4844C4.66125 65.5457 4.76792 64.719 4.98125 64.0044C5.19458 63.2897 5.50392 62.687 5.90925 62.1964C6.31458 61.7057 6.80525 61.3377 7.38125 61.0924C7.96792 60.8364 8.62392 60.7084 9.34925 60.7084C10.3199 60.7084 11.1306 60.9217 11.7812 61.3484C12.4426 61.775 12.9599 62.4044 13.3333 63.2364L11.8133 64.0684C11.6213 63.535 11.3226 63.1137 10.9173 62.8044C10.5226 62.4844 9.99992 62.3244 9.34925 62.3244C8.48525 62.3244 7.80792 62.6177 7.31725 63.2044C6.82658 63.791 6.58125 64.6017 6.58125 65.6364V67.3324C6.58125 68.367 6.82658 69.1777 7.31725 69.7644C7.80792 70.351 8.48525 70.6444 9.34925 70.6444C10.0213 70.6444 10.5653 70.4737 10.9813 70.1324C11.4079 69.7804 11.7226 69.3324 11.9253 68.7884L13.3813 69.6684C13.0079 70.479 12.4853 71.1137 11.8133 71.5724C11.1413 72.031 10.3199 72.2604 9.34925 72.2604ZM18.4339 72.2604C17.8579 72.2604 17.3299 72.159 16.8499 71.9564C16.3805 71.7537 15.9805 71.4657 15.6499 71.0924C15.3192 70.7084 15.0632 70.2497 14.8819 69.7164C14.7005 69.1724 14.6099 68.5697 14.6099 67.9084C14.6099 67.247 14.7005 66.6497 14.8819 66.1164C15.0632 65.5724 15.3192 65.1137 15.6499 64.7404C15.9805 64.3564 16.3805 64.063 16.8499 63.8604C17.3299 63.6577 17.8579 63.5564 18.4339 63.5564C19.0099 63.5564 19.5325 63.6577 20.0019 63.8604C20.4819 64.063 20.8872 64.3564 21.2179 64.7404C21.5485 65.1137 21.8045 65.5724 21.9859 66.1164C22.1672 66.6497 22.2579 67.247 22.2579 67.9084C22.2579 68.5697 22.1672 69.1724 21.9859 69.7164C21.8045 70.2497 21.5485 70.7084 21.2179 71.0924C20.8872 71.4657 20.4819 71.7537 20.0019 71.9564C19.5325 72.159 19.0099 72.2604 18.4339 72.2604ZM18.4339 70.8204C19.0312 70.8204 19.5112 70.639 19.8739 70.2764C20.2365 69.903 20.4179 69.3484 20.4179 68.6124V67.2044C20.4179 66.4684 20.2365 65.919 19.8739 65.5564C19.5112 65.183 19.0312 64.9964 18.4339 64.9964C17.8365 64.9964 17.3565 65.183 16.9939 65.5564C16.6312 65.919 16.4499 66.4684 16.4499 67.2044V68.6124C16.4499 69.3484 16.6312 69.903 16.9939 70.2764C17.3565 70.639 17.8365 70.8204 18.4339 70.8204ZM24.2011 72.0684V63.7484H25.9451V65.1244H26.0251C26.2065 64.6764 26.4785 64.303 26.8411 64.0044C27.2145 63.7057 27.7211 63.5564 28.3611 63.5564C29.2145 63.5564 29.8758 63.839 30.3451 64.4044C30.8251 64.959 31.0651 65.7537 31.0651 66.7884V72.0684H29.3211V67.0124C29.3211 65.711 28.7985 65.0604 27.7531 65.0604C27.5291 65.0604 27.3051 65.0924 27.0811 65.1564C26.8678 65.2097 26.6758 65.295 26.5051 65.4124C26.3345 65.5297 26.1958 65.679 26.0891 65.8604C25.9931 66.0417 25.9451 66.255 25.9451 66.5004V72.0684H24.2011ZM35.7864 72.0684C35.1784 72.0684 34.7197 71.9137 34.4104 71.6044C34.101 71.2844 33.9464 70.8364 33.9464 70.2604V65.1724H32.6504V63.7484H33.3544C33.6424 63.7484 33.8397 63.6844 33.9464 63.5564C34.0637 63.4284 34.1224 63.2204 34.1224 62.9324V61.4764H35.6904V63.7484H37.4344V65.1724H35.6904V70.6444H37.3064V72.0684H35.7864ZM45.4221 72.0684C44.9635 72.0684 44.6115 71.9404 44.3661 71.6844C44.1208 71.4177 43.9715 71.0817 43.9181 70.6764H43.8381C43.6781 71.199 43.3848 71.5937 42.9581 71.8604C42.5315 72.127 42.0141 72.2604 41.4061 72.2604C40.5421 72.2604 39.8755 72.0364 39.4061 71.5884C38.9475 71.1404 38.7181 70.5377 38.7181 69.7804C38.7181 68.9484 39.0168 68.3244 39.6141 67.9084C40.2221 67.4924 41.1075 67.2844 42.2701 67.2844H43.7741V66.5804C43.7741 66.0684 43.6355 65.6737 43.3581 65.3964C43.0808 65.119 42.6488 64.9804 42.0621 64.9804C41.5715 64.9804 41.1715 65.087 40.8621 65.3004C40.5528 65.5137 40.2915 65.7857 40.0781 66.1164L39.0381 65.1724C39.3155 64.703 39.7048 64.319 40.2061 64.0204C40.7075 63.711 41.3635 63.5564 42.1741 63.5564C43.2515 63.5564 44.0781 63.807 44.6541 64.3084C45.2301 64.8097 45.5181 65.5297 45.5181 66.4684V70.6444H46.3981V72.0684H45.4221ZM41.9021 70.9324C42.4461 70.9324 42.8941 70.815 43.2461 70.5804C43.5981 70.335 43.7741 70.0097 43.7741 69.6044V68.4044H42.3021C41.0968 68.4044 40.4941 68.7777 40.4941 69.5244V69.8124C40.4941 70.1857 40.6168 70.4684 40.8621 70.6604C41.1181 70.8417 41.4648 70.9324 41.9021 70.9324ZM51.3234 72.2604C50.726 72.2604 50.1927 72.159 49.7234 71.9564C49.254 71.7537 48.8594 71.4657 48.5394 71.0924C48.2194 70.7084 47.974 70.2497 47.8034 69.7164C47.6327 69.1724 47.5474 68.5697 47.5474 67.9084C47.5474 67.247 47.6327 66.6497 47.8034 66.1164C47.974 65.5724 48.2194 65.1137 48.5394 64.7404C48.8594 64.3564 49.254 64.063 49.7234 63.8604C50.1927 63.6577 50.726 63.5564 51.3234 63.5564C52.1554 63.5564 52.838 63.743 53.3714 64.1164C53.9047 64.4897 54.294 64.9857 54.5394 65.6044L53.0994 66.2764C52.982 65.8924 52.774 65.5884 52.4754 65.3644C52.1874 65.1297 51.8034 65.0124 51.3234 65.0124C50.6834 65.0124 50.198 65.215 49.8674 65.6204C49.5474 66.015 49.3874 66.5324 49.3874 67.1724V68.6604C49.3874 69.3004 49.5474 69.823 49.8674 70.2284C50.198 70.623 50.6834 70.8204 51.3234 70.8204C51.8354 70.8204 52.2407 70.6977 52.5394 70.4524C52.8487 70.1964 53.094 69.8604 53.2754 69.4444L54.6034 70.1484C54.326 70.831 53.91 71.3537 53.3554 71.7164C52.8007 72.079 52.1234 72.2604 51.3234 72.2604ZM58.5676 72.0684C57.9596 72.0684 57.501 71.9137 57.1916 71.6044C56.8823 71.2844 56.7276 70.8364 56.7276 70.2604V65.1724H55.4316V63.7484H56.1356C56.4236 63.7484 56.621 63.6844 56.7276 63.5564C56.845 63.4284 56.9036 63.2204 56.9036 62.9324V61.4764H58.4716V63.7484H60.2156V65.1724H58.4716V70.6444H60.0876V72.0684H58.5676Z" fill="url(#paint3_linear_356_21602)"/>
<path d="M232.87 72.2604C231.91 72.2604 231.094 72.0897 230.422 71.7484C229.761 71.407 229.19 70.959 228.71 70.4044L230.134 69.0284C230.518 69.4764 230.945 69.8177 231.414 70.0524C231.894 70.287 232.422 70.4044 232.998 70.4044C233.649 70.4044 234.139 70.2657 234.47 69.9884C234.801 69.7004 234.966 69.3164 234.966 68.8364C234.966 68.463 234.859 68.159 234.646 67.9244C234.433 67.6897 234.033 67.519 233.446 67.4124L232.39 67.2524C230.161 66.9004 229.046 65.8177 229.046 64.0044C229.046 63.503 229.137 63.0497 229.318 62.6444C229.51 62.239 229.782 61.8924 230.134 61.6044C230.486 61.3164 230.907 61.0977 231.398 60.9484C231.899 60.7884 232.465 60.7084 233.094 60.7084C233.937 60.7084 234.673 60.847 235.302 61.1244C235.931 61.4017 236.47 61.8124 236.918 62.3564L235.478 63.7164C235.201 63.375 234.865 63.0977 234.47 62.8844C234.075 62.671 233.579 62.5644 232.982 62.5644C232.374 62.5644 231.915 62.6817 231.606 62.9164C231.307 63.1404 231.158 63.4604 231.158 63.8764C231.158 64.303 231.281 64.6177 231.526 64.8204C231.771 65.023 232.166 65.1724 232.71 65.2684L233.75 65.4604C234.881 65.663 235.713 66.0257 236.246 66.5484C236.79 67.0604 237.062 67.7804 237.062 68.7084C237.062 69.2417 236.966 69.727 236.774 70.1644C236.593 70.591 236.321 70.9644 235.958 71.2844C235.606 71.5937 235.169 71.8337 234.646 72.0044C234.134 72.175 233.542 72.2604 232.87 72.2604ZM239.051 60.2284H241.099V65.1084H241.179C241.35 64.6604 241.617 64.287 241.979 63.9884C242.353 63.679 242.865 63.5244 243.515 63.5244C244.379 63.5244 245.041 63.807 245.499 64.3724C245.958 64.9377 246.187 65.743 246.187 66.7884V72.0684H244.139V66.9964C244.139 66.399 244.033 65.951 243.819 65.6524C243.606 65.3537 243.254 65.2044 242.763 65.2044C242.55 65.2044 242.342 65.2364 242.139 65.3004C241.947 65.3537 241.771 65.439 241.611 65.5564C241.462 65.663 241.339 65.8017 241.243 65.9724C241.147 66.1324 241.099 66.3244 241.099 66.5484V72.0684H239.051V60.2284ZM249.481 62.5004C249.055 62.5004 248.745 62.4044 248.553 62.2124C248.372 62.0204 248.281 61.775 248.281 61.4764V61.1564C248.281 60.8577 248.372 60.6124 248.553 60.4204C248.745 60.2284 249.055 60.1324 249.481 60.1324C249.897 60.1324 250.201 60.2284 250.393 60.4204C250.585 60.6124 250.681 60.8577 250.681 61.1564V61.4764C250.681 61.775 250.585 62.0204 250.393 62.2124C250.201 62.4044 249.897 62.5004 249.481 62.5004ZM248.457 63.7164H250.505V72.0684H248.457V63.7164ZM252.879 63.7164H254.927V65.0924H254.991C255.141 64.6124 255.423 64.2337 255.839 63.9564C256.255 63.6684 256.741 63.5244 257.295 63.5244C258.362 63.5244 259.173 63.903 259.727 64.6604C260.293 65.407 260.575 66.479 260.575 67.8764C260.575 69.2844 260.293 70.367 259.727 71.1244C259.173 71.8817 258.362 72.2604 257.295 72.2604C256.741 72.2604 256.255 72.1164 255.839 71.8284C255.434 71.5404 255.151 71.1564 254.991 70.6764H254.927V75.2684H252.879V63.7164ZM256.639 70.5644C257.173 70.5644 257.605 70.3884 257.935 70.0364C258.266 69.6844 258.431 69.2097 258.431 68.6124V67.1724C258.431 66.575 258.266 66.1004 257.935 65.7484C257.605 65.3857 257.173 65.2044 256.639 65.2044C256.149 65.2044 255.738 65.327 255.407 65.5724C255.087 65.8177 254.927 66.143 254.927 66.5484V69.2044C254.927 69.6417 255.087 69.9777 255.407 70.2124C255.738 70.447 256.149 70.5644 256.639 70.5644ZM262.473 63.7164H264.521V65.0924H264.585C264.734 64.6124 265.017 64.2337 265.433 63.9564C265.849 63.6684 266.334 63.5244 266.889 63.5244C267.956 63.5244 268.766 63.903 269.321 64.6604C269.886 65.407 270.169 66.479 270.169 67.8764C270.169 69.2844 269.886 70.367 269.321 71.1244C268.766 71.8817 267.956 72.2604 266.889 72.2604C266.334 72.2604 265.849 72.1164 265.433 71.8284C265.028 71.5404 264.745 71.1564 264.585 70.6764H264.521V75.2684H262.473V63.7164ZM266.233 70.5644C266.766 70.5644 267.198 70.3884 267.529 70.0364C267.86 69.6844 268.025 69.2097 268.025 68.6124V67.1724C268.025 66.575 267.86 66.1004 267.529 65.7484C267.198 65.3857 266.766 65.2044 266.233 65.2044C265.742 65.2044 265.332 65.327 265.001 65.5724C264.681 65.8177 264.521 66.143 264.521 66.5484V69.2044C264.521 69.6417 264.681 69.9777 265.001 70.2124C265.332 70.447 265.742 70.5644 266.233 70.5644ZM273.091 62.5004C272.664 62.5004 272.355 62.4044 272.163 62.2124C271.981 62.0204 271.891 61.775 271.891 61.4764V61.1564C271.891 60.8577 271.981 60.6124 272.163 60.4204C272.355 60.2284 272.664 60.1324 273.091 60.1324C273.507 60.1324 273.811 60.2284 274.003 60.4204C274.195 60.6124 274.291 60.8577 274.291 61.1564V61.4764C274.291 61.775 274.195 62.0204 274.003 62.2124C273.811 62.4044 273.507 62.5004 273.091 62.5004ZM272.067 63.7164H274.115V72.0684H272.067V63.7164ZM276.489 72.0684V63.7164H278.537V65.1084H278.617C278.787 64.6604 279.054 64.287 279.417 63.9884C279.79 63.679 280.302 63.5244 280.953 63.5244C281.817 63.5244 282.478 63.807 282.937 64.3724C283.395 64.9377 283.625 65.743 283.625 66.7884V72.0684H281.577V66.9964C281.577 66.399 281.47 65.951 281.257 65.6524C281.043 65.3537 280.691 65.2044 280.201 65.2044C279.987 65.2044 279.779 65.2364 279.577 65.3004C279.385 65.3537 279.209 65.439 279.049 65.5564C278.899 65.663 278.777 65.8017 278.681 65.9724C278.585 66.1324 278.537 66.3244 278.537 66.5484V72.0684H276.489ZM293.431 72.7724C293.431 73.2097 293.351 73.5937 293.191 73.9244C293.042 74.2657 292.791 74.5484 292.439 74.7724C292.087 74.9964 291.634 75.167 291.079 75.2844C290.524 75.4017 289.847 75.4604 289.047 75.4604C288.343 75.4604 287.746 75.4124 287.255 75.3164C286.764 75.231 286.359 75.103 286.039 74.9324C285.73 74.7724 285.506 74.5697 285.367 74.3244C285.228 74.079 285.159 73.8017 285.159 73.4924C285.159 73.023 285.287 72.655 285.543 72.3884C285.81 72.1324 286.178 71.967 286.647 71.8924V71.7164C286.306 71.631 286.039 71.4657 285.847 71.2204C285.666 70.9644 285.575 70.6657 285.575 70.3244C285.575 70.111 285.618 69.9244 285.703 69.7644C285.788 69.5937 285.9 69.4497 286.039 69.3324C286.188 69.215 286.354 69.119 286.535 69.0444C286.716 68.959 286.908 68.895 287.111 68.8524V68.7884C286.599 68.5537 286.215 68.2284 285.959 67.8124C285.714 67.3964 285.591 66.911 285.591 66.3564C285.591 65.503 285.884 64.8204 286.471 64.3084C287.058 63.7857 287.916 63.5244 289.047 63.5244C289.303 63.5244 289.554 63.5404 289.799 63.5724C290.055 63.6044 290.29 63.6577 290.503 63.7324V63.4604C290.503 62.6497 290.898 62.2444 291.687 62.2444H292.983V63.8124H291.207V64.0364C291.644 64.2817 291.97 64.6017 292.183 64.9964C292.396 65.391 292.503 65.8444 292.503 66.3564C292.503 67.199 292.21 67.8764 291.623 68.3884C291.047 68.9004 290.188 69.1564 289.047 69.1564C288.556 69.1564 288.13 69.1084 287.767 69.0124C287.607 69.087 287.468 69.1884 287.351 69.3164C287.234 69.4337 287.175 69.583 287.175 69.7644C287.175 70.1804 287.538 70.3884 288.263 70.3884H290.503C291.527 70.3884 292.268 70.6017 292.727 71.0284C293.196 71.4444 293.431 72.0257 293.431 72.7724ZM291.511 73.0124C291.511 72.7457 291.404 72.5377 291.191 72.3884C290.978 72.239 290.61 72.1644 290.087 72.1644H287.239C286.951 72.3777 286.807 72.6657 286.807 73.0284C286.807 73.3484 286.94 73.599 287.207 73.7804C287.474 73.9617 287.927 74.0524 288.567 74.0524H289.591C290.263 74.0524 290.748 73.967 291.047 73.7964C291.356 73.6257 291.511 73.3644 291.511 73.0124ZM289.047 67.7644C290.05 67.7644 290.551 67.3377 290.551 66.4844V66.2124C290.551 65.359 290.05 64.9324 289.047 64.9324C288.044 64.9324 287.543 65.359 287.543 66.2124V66.4844C287.543 67.3377 288.044 67.7644 289.047 67.7644Z" fill="url(#paint4_linear_356_21602)"/>
<path d="M457.528 72.0684V60.9004H462.328C463.363 60.9004 464.163 61.2044 464.728 61.8124C465.294 62.4204 465.576 63.2364 465.576 64.2604C465.576 65.2844 465.294 66.1004 464.728 66.7084C464.163 67.3164 463.363 67.6204 462.328 67.6204H459.336V72.0684H457.528ZM459.336 66.0364H462.216C462.675 66.0364 463.032 65.919 463.288 65.6844C463.544 65.439 463.672 65.0924 463.672 64.6444V63.8764C463.672 63.4284 463.544 63.087 463.288 62.8524C463.032 62.607 462.675 62.4844 462.216 62.4844H459.336V66.0364ZM473.34 72.0684C472.881 72.0684 472.529 71.9404 472.284 71.6844C472.039 71.4177 471.889 71.0817 471.836 70.6764H471.756C471.596 71.199 471.303 71.5937 470.876 71.8604C470.449 72.127 469.932 72.2604 469.324 72.2604C468.46 72.2604 467.793 72.0364 467.324 71.5884C466.865 71.1404 466.636 70.5377 466.636 69.7804C466.636 68.9484 466.935 68.3244 467.532 67.9084C468.14 67.4924 469.025 67.2844 470.188 67.2844H471.692V66.5804C471.692 66.0684 471.553 65.6737 471.276 65.3964C470.999 65.119 470.567 64.9804 469.98 64.9804C469.489 64.9804 469.089 65.087 468.78 65.3004C468.471 65.5137 468.209 65.7857 467.996 66.1164L466.956 65.1724C467.233 64.703 467.623 64.319 468.124 64.0204C468.625 63.711 469.281 63.5564 470.092 63.5564C471.169 63.5564 471.996 63.807 472.572 64.3084C473.148 64.8097 473.436 65.5297 473.436 66.4684V70.6444H474.316V72.0684H473.34ZM469.82 70.9324C470.364 70.9324 470.812 70.815 471.164 70.5804C471.516 70.335 471.692 70.0097 471.692 69.6044V68.4044H470.22C469.015 68.4044 468.412 68.7777 468.412 69.5244V69.8124C468.412 70.1857 468.535 70.4684 468.78 70.6604C469.036 70.8417 469.383 70.9324 469.82 70.9324ZM481.02 63.7484H482.7L479.196 73.7164C479.1 73.9937 478.988 74.2284 478.86 74.4204C478.743 74.623 478.599 74.783 478.428 74.9004C478.268 75.0284 478.071 75.119 477.836 75.1724C477.601 75.2364 477.324 75.2684 477.004 75.2684H475.996V73.8444H477.404L477.884 72.4364L474.86 63.7484H476.604L478.268 68.6444L478.748 70.4524H478.828L479.356 68.6444L481.02 63.7484ZM484.135 72.0684V63.7484H485.879V65.1244H485.959C486.044 64.911 486.145 64.7084 486.263 64.5164C486.391 64.3244 486.54 64.159 486.711 64.0204C486.892 63.871 487.1 63.759 487.335 63.6844C487.58 63.599 487.863 63.5564 488.183 63.5564C488.748 63.5564 489.249 63.695 489.687 63.9724C490.124 64.2497 490.444 64.6764 490.647 65.2524H490.695C490.844 64.783 491.132 64.383 491.559 64.0524C491.985 63.7217 492.535 63.5564 493.207 63.5564C494.039 63.5564 494.684 63.839 495.143 64.4044C495.601 64.959 495.831 65.7537 495.831 66.7884V72.0684H494.087V66.9964C494.087 66.3564 493.964 65.8764 493.719 65.5564C493.473 65.2257 493.084 65.0604 492.551 65.0604C492.327 65.0604 492.113 65.0924 491.911 65.1564C491.708 65.2097 491.527 65.295 491.367 65.4124C491.217 65.5297 491.095 65.679 490.999 65.8604C490.903 66.0417 490.855 66.2497 490.855 66.4844V72.0684H489.111V66.9964C489.111 65.7057 488.604 65.0604 487.591 65.0604C487.377 65.0604 487.164 65.0924 486.951 65.1564C486.748 65.2097 486.567 65.295 486.407 65.4124C486.247 65.5297 486.119 65.679 486.023 65.8604C485.927 66.0417 485.879 66.2497 485.879 66.4844V72.0684H484.135ZM501.508 72.2604C500.911 72.2604 500.377 72.159 499.908 71.9564C499.439 71.7537 499.039 71.4657 498.708 71.0924C498.377 70.7084 498.121 70.2497 497.94 69.7164C497.769 69.1724 497.684 68.5697 497.684 67.9084C497.684 67.247 497.769 66.6497 497.94 66.1164C498.121 65.5724 498.377 65.1137 498.708 64.7404C499.039 64.3564 499.439 64.063 499.908 63.8604C500.377 63.6577 500.911 63.5564 501.508 63.5564C502.116 63.5564 502.649 63.663 503.108 63.8764C503.577 64.0897 503.967 64.3884 504.276 64.7724C504.585 65.1457 504.815 65.583 504.964 66.0844C505.124 66.5857 505.204 67.1244 505.204 67.7004V68.3564H499.492V68.6284C499.492 69.2684 499.679 69.7964 500.052 70.2124C500.436 70.6177 500.98 70.8204 501.684 70.8204C502.196 70.8204 502.628 70.7084 502.98 70.4844C503.332 70.2604 503.631 69.9564 503.876 69.5724L504.9 70.5804C504.591 71.0924 504.143 71.503 503.556 71.8124C502.969 72.111 502.287 72.2604 501.508 72.2604ZM501.508 64.9164C501.209 64.9164 500.932 64.9697 500.676 65.0764C500.431 65.183 500.217 65.3324 500.036 65.5244C499.865 65.7164 499.732 65.9457 499.636 66.2124C499.54 66.479 499.492 66.7724 499.492 67.0924V67.2044H503.364V67.0444C503.364 66.4044 503.199 65.8924 502.868 65.5084C502.537 65.1137 502.084 64.9164 501.508 64.9164ZM507.135 72.0684V63.7484H508.879V65.1244H508.959C509.14 64.6764 509.412 64.303 509.775 64.0044C510.148 63.7057 510.655 63.5564 511.295 63.5564C512.148 63.5564 512.809 63.839 513.279 64.4044C513.759 64.959 513.999 65.7537 513.999 66.7884V72.0684H512.255V67.0124C512.255 65.711 511.732 65.0604 510.687 65.0604C510.463 65.0604 510.239 65.0924 510.015 65.1564C509.801 65.2097 509.609 65.295 509.439 65.4124C509.268 65.5297 509.129 65.679 509.023 65.8604C508.927 66.0417 508.879 66.255 508.879 66.5004V72.0684H507.135ZM518.72 72.0684C518.112 72.0684 517.653 71.9137 517.344 71.6044C517.035 71.2844 516.88 70.8364 516.88 70.2604V65.1724H515.584V63.7484H516.288C516.576 63.7484 516.773 63.6844 516.88 63.5564C516.997 63.4284 517.056 63.2204 517.056 62.9324V61.4764H518.624V63.7484H520.368V65.1724H518.624V70.6444H520.24V72.0684H518.72Z" fill="url(#paint5_linear_356_21602)"/>
<line x1="60.8711" y1="27.0957" x2="235.684" y2="27.0957" stroke="#A54078" stroke-width="2"/>
<line x1="288.754" y1="27.0957" x2="463.567" y2="27.0957" stroke="#A54078" stroke-width="2"/>
<path d="M43.6089 18.6358C44.0487 18.2172 44.6338 17.9857 45.241 17.9903C45.8481 17.9949 46.4297 18.2352 46.8631 18.6604C47.2964 19.0857 47.5476 19.6627 47.5637 20.2696C47.5797 20.8765 47.3594 21.466 46.9491 21.9135L34.4937 37.4906C34.2795 37.7213 34.021 37.9065 33.7336 38.035C33.4463 38.1635 33.136 38.2327 32.8212 38.2385C32.5065 38.2443 32.1938 38.1866 31.9019 38.0689C31.61 37.9511 31.3448 37.7757 31.1223 37.5531L22.8624 29.2932C22.6323 29.0788 22.4478 28.8203 22.3199 28.5332C22.1919 28.246 22.1231 27.9359 22.1176 27.6216C22.112 27.3072 22.1698 26.995 22.2876 26.7034C22.4053 26.4119 22.5806 26.1471 22.8029 25.9248C23.0252 25.7024 23.2901 25.5272 23.5816 25.4094C23.8731 25.2917 24.1854 25.2338 24.4997 25.2394C24.8141 25.2449 25.1241 25.3137 25.4113 25.4417C25.6985 25.5697 25.957 25.7542 26.1713 25.9842L32.7081 32.5178L43.5496 18.7045L43.6089 18.6358Z" fill="url(#paint6_linear_356_21602)"/>
<path d="M271.492 18.6358C271.931 18.2172 272.517 17.9857 273.124 17.9903C273.731 17.9949 274.313 18.2352 274.746 18.6604C275.179 19.0857 275.43 19.6627 275.447 20.2696C275.463 20.8765 275.242 21.466 274.832 21.9135L262.376 37.4906C262.162 37.7213 261.904 37.9065 261.616 38.035C261.329 38.1635 261.019 38.2327 260.704 38.2385C260.389 38.2443 260.077 38.1866 259.785 38.0689C259.493 37.9511 259.228 37.7757 259.005 37.5531L250.745 29.2932C250.515 29.0788 250.331 28.8203 250.203 28.5332C250.075 28.246 250.006 27.9359 250 27.6216C249.995 27.3072 250.053 26.995 250.17 26.7034C250.288 26.4119 250.463 26.1471 250.686 25.9248C250.908 25.7024 251.173 25.5272 251.464 25.4094C251.756 25.2917 252.068 25.2338 252.383 25.2394C252.697 25.2449 253.007 25.3137 253.294 25.4417C253.581 25.5697 253.84 25.7542 254.054 25.9842L260.591 32.5178L271.432 18.7045L271.492 18.6358Z" fill="#FCFAF7"/>
<path d="M271.492 17.6456C271.931 17.2269 272.517 16.9955 273.124 17.0001C273.731 17.0047 274.313 17.2449 274.746 17.6702C275.179 18.0954 275.43 18.6724 275.447 19.2794C275.463 19.8863 275.242 20.4758 274.832 20.9233L262.376 36.5004C262.162 36.7311 261.904 36.9162 261.616 37.0447C261.329 37.1732 261.019 37.2425 260.704 37.2483C260.389 37.2541 260.077 37.1964 259.785 37.0786C259.493 36.9609 259.228 36.7854 259.005 36.5628L250.745 28.3029C250.515 28.0886 250.331 27.8301 250.203 27.5429C250.075 27.2557 250.006 26.9457 250 26.6313C249.995 26.317 250.053 26.0047 250.17 25.7132C250.288 25.4217 250.463 25.1569 250.686 24.9345C250.908 24.7122 251.173 24.5369 251.464 24.4192C251.756 24.3014 252.068 24.2436 252.383 24.2492C252.697 24.2547 253.007 24.3235 253.294 24.4515C253.581 24.5794 253.84 24.7639 254.054 24.994L260.591 31.5276L271.432 17.7142L271.492 17.6456Z" fill="url(#paint7_linear_356_21602)"/>
<defs>
<linearGradient id="paint0_linear_356_21602" x1="34.3388" y1="-18.9529" x2="34.3388" y2="70.1259" gradientUnits="userSpaceOnUse">
<stop stop-color="#4D1FDA"/>
<stop offset="1" stop-color="#F55D1C"/>
</linearGradient>
<linearGradient id="paint1_linear_356_21602" x1="262.218" y1="-18.9529" x2="262.218" y2="70.1259" gradientUnits="userSpaceOnUse">
<stop stop-color="#4D1FDA"/>
<stop offset="1" stop-color="#F55D1C"/>
</linearGradient>
<linearGradient id="paint2_linear_356_21602" x1="490.101" y1="-18.9529" x2="490.101" y2="70.1259" gradientUnits="userSpaceOnUse">
<stop stop-color="#4D1FDA"/>
<stop offset="1" stop-color="#F55D1C"/>
</linearGradient>
<linearGradient id="paint3_linear_356_21602" x1="30.5" y1="47.5684" x2="30.5" y2="82.8184" gradientUnits="userSpaceOnUse">
<stop stop-color="#4D1FDA"/>
<stop offset="1" stop-color="#F55D1C"/>
</linearGradient>
<linearGradient id="paint4_linear_356_21602" x1="260.758" y1="47.5684" x2="260.758" y2="82.8184" gradientUnits="userSpaceOnUse">
<stop stop-color="#4D1FDA"/>
<stop offset="1" stop-color="#F55D1C"/>
</linearGradient>
<linearGradient id="paint5_linear_356_21602" x1="488.582" y1="47.5684" x2="488.582" y2="82.8184" gradientUnits="userSpaceOnUse">
<stop stop-color="#4D1FDA"/>
<stop offset="1" stop-color="#F55D1C"/>
</linearGradient>
<linearGradient id="paint6_linear_356_21602" x1="34.8408" y1="10.7586" x2="34.8408" y2="44.7474" gradientUnits="userSpaceOnUse">
<stop stop-color="#4D1FDA"/>
<stop offset="1" stop-color="#F55D1C"/>
</linearGradient>
<linearGradient id="paint7_linear_356_21602" x1="262.724" y1="9.76833" x2="262.724" y2="43.7572" gradientUnits="userSpaceOnUse">
<stop stop-color="#4D1FDA"/>
<stop offset="1" stop-color="#F55D1C"/>
</linearGradient>
</defs>
</svg>
