<svg width="1413" height="490" viewBox="0 0 1413 490" fill="none" xmlns="http://www.w3.org/2000/svg">
<g style="mix-blend-mode:overlay" opacity="0.6">
<path d="M900.119 8.11739C900.119 10.8201 897.918 13.018 895.194 13.018C892.471 13.018 890.27 10.8201 890.27 8.11739C890.27 5.41473 892.471 3.2168 895.194 3.2168C897.918 3.2168 900.119 5.41473 900.119 8.11739Z" stroke="white" stroke-opacity="0.9" stroke-width="2"/>
<path d="M910.602 19.9182C910.602 22.6208 908.401 24.8188 905.677 24.8188C902.953 24.8188 900.752 22.6208 900.752 19.9182C900.752 17.2155 902.953 15.0176 905.677 15.0176C908.401 15.0176 910.602 17.2155 910.602 19.9182Z" stroke="white" stroke-opacity="0.9" stroke-width="2"/>
<path d="M900.119 30.8127C900.119 33.5154 897.918 35.7133 895.194 35.7133C892.471 35.7133 890.27 33.5154 890.27 30.8127C890.27 28.11 892.471 25.9121 895.194 25.9121C897.918 25.9121 900.119 28.11 900.119 30.8127Z" stroke="white" stroke-opacity="0.9" stroke-width="2"/>
<path d="M889.182 19.9182C889.182 22.6208 886.981 24.8188 884.257 24.8188C881.533 24.8188 879.332 22.6208 879.332 19.9182C879.332 17.2155 881.533 15.0176 884.257 15.0176C886.981 15.0176 889.182 17.2155 889.182 19.9182Z" stroke="white" stroke-opacity="0.9" stroke-width="2"/>
<path d="M907.412 62.5835C907.412 69.5477 901.742 75.2003 894.739 75.2003C887.736 75.2003 882.066 69.5477 882.066 62.5835C882.066 55.6194 887.736 49.9668 894.739 49.9668C901.742 49.9668 907.412 55.6194 907.412 62.5835Z" stroke="white" stroke-opacity="0.9" stroke-width="2"/>
<path d="M890.549 89.3635C890.549 92.0661 888.348 94.2641 885.624 94.2641C882.9 94.2641 880.699 92.0661 880.699 89.3635C880.699 86.6608 882.9 84.4629 885.624 84.4629C888.348 84.4629 890.549 86.6608 890.549 89.3635Z" stroke="white" stroke-opacity="0.9" stroke-width="2"/>
<path d="M869.762 -18.1059C898.198 -17.5729 921.085 5.64496 921.085 34.2085V80.0687C921.085 108.632 898.198 131.85 869.762 132.383V-18.1059Z" stroke="white" stroke-opacity="0.9" stroke-width="2"/>
<path d="M919.282 -0.252084L919.811 -0.470489C920.477 -0.745943 920.802 -1.48155 920.485 -2.127C919.263 -4.61105 915.582 -10.6826 906.64 -16.6197C900.196 -20.5832 887.682 -20.6226 883.65 -20.5236C882.925 -20.5057 882.366 -19.912 882.366 -19.1891V-18.8892" stroke="white" stroke-opacity="0.9" stroke-width="2"/>
<rect x="639.604" y="0.423828" width="198.078" height="114.196" rx="3" stroke="white" stroke-opacity="0.9" stroke-width="2"/>
<rect x="620.006" y="-10.9238" width="237.273" height="136.891" rx="13" stroke="white" stroke-opacity="0.9" stroke-width="2"/>
<rect x="613.17" y="-17.7305" width="250.946" height="150.508" stroke="white" stroke-opacity="0.9" stroke-width="2"/>
<path d="M587.014 49.8068C587.014 52.5095 584.813 54.7074 582.089 54.7074C579.365 54.7074 577.164 52.5095 577.164 49.8068C577.164 47.1042 579.365 44.9062 582.089 44.9062C584.813 44.9062 587.014 47.1042 587.014 49.8068Z" stroke="white" stroke-opacity="0.9" stroke-width="2"/>
<path d="M597.496 61.6076C597.496 64.3103 595.295 66.5082 592.571 66.5082C589.848 66.5082 587.646 64.3103 587.646 61.6076C587.646 58.905 589.848 56.707 592.571 56.707C595.295 56.707 597.496 58.905 597.496 61.6076Z" stroke="white" stroke-opacity="0.9" stroke-width="2"/>
<path d="M587.014 72.5002C587.014 75.2029 584.813 77.4008 582.089 77.4008C579.365 77.4008 577.164 75.2029 577.164 72.5002C577.164 69.7975 579.365 67.5996 582.089 67.5996C584.813 67.5996 587.014 69.7975 587.014 72.5002Z" stroke="white" stroke-opacity="0.9" stroke-width="2"/>
<path d="M576.076 61.6076C576.076 64.3103 573.875 66.5082 571.151 66.5082C568.428 66.5082 566.227 64.3103 566.227 61.6076C566.227 58.905 568.428 56.707 571.151 56.707C573.875 56.707 576.076 58.905 576.076 61.6076Z" stroke="white" stroke-opacity="0.9" stroke-width="2"/>
<path d="M594.761 20.3043C594.761 27.2684 589.092 32.921 582.089 32.921C575.086 32.921 569.416 27.2684 569.416 20.3043C569.416 13.3401 575.086 7.6875 582.089 7.6875C589.092 7.6875 594.761 13.3401 594.761 20.3043Z" stroke="white" stroke-opacity="0.9" stroke-width="2"/>
<rect x="587.646" y="86.209" width="8.02668" height="7.98562" rx="3.99281" stroke="white" stroke-opacity="0.9" stroke-width="2"/>
<path d="M607.523 -17.7211C579.087 -17.1881 556.2 6.02972 556.2 34.5932V80.4535C556.2 109.017 579.087 132.235 607.523 132.768V-17.7211Z" stroke="white" stroke-opacity="0.9" stroke-width="2"/>
<path d="M557.984 0.132679L557.455 -0.0857258C556.788 -0.36118 556.463 -1.09678 556.781 -1.74224C558.003 -4.22629 561.683 -10.2978 570.626 -16.2349C577.069 -20.1984 589.584 -20.2379 593.615 -20.1388C594.341 -20.121 594.9 -19.5273 594.9 -18.8044V-18.5044" stroke="white" stroke-opacity="0.9" stroke-width="2"/>
<g clip-path="url(#clip0_293_25839)">
<rect x="403.4" y="398.154" width="242.849" height="160.764" stroke="white" stroke-opacity="0.9" stroke-width="2"/>
<rect x="392.115" y="386.152" width="266.168" height="185.142" rx="12" stroke="white" stroke-opacity="0.9" stroke-width="2"/>
</g>
<g clip-path="url(#clip1_293_25839)">
<rect x="738.42" y="463.863" width="230.715" height="112.178" rx="31" stroke="white" stroke-opacity="0.9" stroke-width="2"/>
<rect x="766.401" y="462.319" width="7.59552" height="0.653692" rx="0.326846" stroke="white" stroke-opacity="0.9" stroke-width="0.653692"/>
<rect x="781.163" y="462.319" width="16.2789" height="0.653692" rx="0.326846" stroke="white" stroke-opacity="0.9" stroke-width="0.653692"/>
<rect x="800.266" y="462.319" width="16.2789" height="0.653692" rx="0.326846" stroke="white" stroke-opacity="0.9" stroke-width="0.653692"/>
<path d="M743.631 482.399C743.631 475.051 749.588 469.094 756.936 469.094H938.925C952.732 469.094 963.925 480.287 963.925 494.094V545.813C963.925 559.62 952.732 570.813 938.925 570.813H756.973C749.649 570.813 743.746 564.812 743.867 557.489L744.002 549.269C744.03 547.568 745.29 546.139 746.974 545.897C749.665 545.511 751.663 543.206 751.663 540.488V500.037C751.663 497.216 749.577 494.828 746.781 494.449C744.977 494.204 743.631 492.663 743.631 490.842V482.399Z" stroke="white" stroke-opacity="0.9" stroke-width="2"/>
</g>
<g clip-path="url(#clip2_293_25839)">
<rect x="-19" y="-15.8105" width="238.398" height="115.41" rx="31" stroke="white" stroke-opacity="0.9" stroke-width="2"/>
<rect x="30.1193" y="100.936" width="25.7896" height="0.672192" rx="0.336096" stroke="white" stroke-opacity="0.9" stroke-width="0.672192"/>
<path d="M-13.6172 3.27246C-13.6172 -4.29719 -7.48078 -10.4336 0.08887 -10.4336H189.017C202.824 -10.4336 214.017 0.759288 214.017 14.5664V69.221C214.017 83.0281 202.824 94.2211 189.017 94.2211H0.127403C-7.4173 94.2211 -13.4982 88.0387 -13.3734 80.495L-13.2338 72.0563C-13.2045 70.2833 -11.8913 68.7943 -10.1358 68.5438C-7.3725 68.1493 -5.31985 65.7829 -5.31985 62.9916V21.433C-5.31985 18.5349 -7.46269 16.0833 -10.3347 15.6955C-12.2146 15.4417 -13.6172 13.8369 -13.6172 11.94V3.27246Z" stroke="white" stroke-opacity="0.9" stroke-width="2"/>
</g>
<g clip-path="url(#clip3_293_25839)">
<path d="M50.8672 207.745C50.8672 205.536 52.658 203.745 54.8672 203.745H58.0992C61.4129 203.745 64.0992 201.059 64.0992 197.745V194.828C64.0992 192.619 65.8901 190.828 68.0992 190.828H70.0765C72.2856 190.828 74.0765 192.619 74.0765 194.828V197.745C74.0765 201.059 76.7628 203.745 80.0765 203.745H82.7382C84.9473 203.745 86.7382 205.536 86.7382 207.745V210.414C86.7382 212.623 84.9473 214.414 82.7382 214.414H79.5061C76.1924 214.414 73.5061 217.1 73.5061 220.414V222.834C73.5061 225.043 71.7153 226.834 69.5061 226.834H68.0992C65.8901 226.834 64.0992 225.043 64.0992 222.834V220.662C64.0992 217.348 61.4129 214.662 58.0992 214.662H54.8672C52.6581 214.662 50.8672 212.871 50.8672 210.662V207.745Z" stroke="white" stroke-opacity="0.9" stroke-width="2"/>
<path d="M98.9161 137.628H67.3818C65.7579 137.628 64.1491 137.318 62.6421 136.713V136.713C61.1351 136.108 59.5262 135.797 57.9023 135.797H53.714C48.4803 135.797 43.3155 136.991 38.613 139.289L33.6803 141.699C19.2609 148.744 8.39457 161.435 3.65483 176.768L-0.505528 190.226C-7.0618 211.435 -11.5846 233.219 -14.0126 255.285L-14.2275 257.238C-14.3878 258.695 -14.3773 260.165 -14.1961 261.619V261.619C-12.9389 271.713 -6.78555 280.537 2.25116 285.207L6.15934 287.226C8.91195 288.648 12.281 287.994 14.302 285.646L40.8894 254.751C46.5885 248.129 54.8914 244.32 63.6285 244.32H98.6879" stroke="white" stroke-opacity="0.9" stroke-width="2"/>
<path d="M53.4294 172.887C53.4294 179.925 47.7453 185.625 40.741 185.625C33.7368 185.625 28.0527 179.925 28.0527 172.887C28.0527 165.85 33.7368 160.15 40.741 160.15C47.7453 160.15 53.4294 165.85 53.4294 172.887Z" stroke="white" stroke-opacity="0.9" stroke-width="2"/>
<path d="M141.49 207.229C141.49 214.267 135.806 219.966 128.802 219.966C121.797 219.966 116.113 214.267 116.113 207.229C116.113 200.191 121.797 194.492 128.802 194.492C135.806 194.492 141.49 200.191 141.49 207.229Z" stroke="white" stroke-opacity="0.9" stroke-width="2"/>
<path d="M164.305 188.455C164.305 192.458 161.072 195.697 157.092 195.697C153.112 195.697 149.879 192.458 149.879 188.455C149.879 184.452 153.112 181.213 157.092 181.213C161.072 181.213 164.305 184.452 164.305 188.455Z" stroke="white" stroke-opacity="0.9" stroke-width="2"/>
<path d="M179.819 173.803C179.819 177.806 176.586 181.045 172.606 181.045C168.625 181.045 165.393 177.806 165.393 173.803C165.393 169.8 168.625 166.561 172.606 166.561C176.586 166.561 179.819 169.8 179.819 173.803Z" stroke="white" stroke-opacity="0.9" stroke-width="2"/>
<path d="M164.305 157.775C164.305 161.779 161.072 165.018 157.092 165.018C153.112 165.018 149.879 161.779 149.879 157.775C149.879 153.772 153.112 150.533 157.092 150.533C161.072 150.533 164.305 153.772 164.305 157.775Z" stroke="white" stroke-opacity="0.9" stroke-width="2"/>
<path d="M148.791 173.803C148.791 177.806 145.559 181.045 141.578 181.045C137.598 181.045 134.365 177.806 134.365 173.803C134.365 169.8 137.598 166.561 141.578 166.561C145.559 166.561 148.791 169.8 148.791 173.803Z" stroke="white" stroke-opacity="0.9" stroke-width="2"/>
<path d="M86.7378 173.344C86.7378 175.83 84.7307 177.839 82.2624 177.839C79.7941 177.839 77.7871 175.83 77.7871 173.344C77.7871 170.859 79.7941 168.85 82.2624 168.85C84.7307 168.85 86.7378 170.859 86.7378 173.344Z" stroke="white" stroke-opacity="0.9" stroke-width="2"/>
<path d="M106.358 149.075C106.358 153.331 102.921 156.775 98.6888 156.775C94.4565 156.775 91.0195 153.331 91.0195 149.075C91.0195 144.819 94.4565 141.375 98.6888 141.375C102.921 141.375 106.358 144.819 106.358 149.075Z" stroke="white" stroke-opacity="0.9" stroke-width="2"/>
<path d="M119.589 173.344C119.589 175.83 117.582 177.839 115.114 177.839C112.646 177.839 110.639 175.83 110.639 173.344C110.639 170.859 112.646 168.85 115.114 168.85C117.582 168.85 119.589 170.859 119.589 173.344Z" stroke="white" stroke-opacity="0.9" stroke-width="2"/>
<path d="M98.9153 133.507H71.0854C68.5373 133.507 66.0285 132.878 63.7819 131.675V131.675C61.5353 130.473 59.0266 129.844 56.4784 129.844H52.1802C47.9401 129.844 43.7407 130.67 39.817 132.278L33.6648 134.798C27.1057 137.484 21.9193 142.72 19.2949 149.305V149.305" stroke="white" stroke-opacity="0.9" stroke-width="2"/>
<path d="M144.316 135.796L129.039 151.556C123.2 157.58 115.169 160.98 106.78 160.98H91.0843C82.542 160.98 74.3782 157.455 68.5205 151.238L53.9727 135.796" stroke="white" stroke-opacity="0.9" stroke-width="2"/>
<path d="M98.2312 133.507H126.061C128.609 133.507 131.118 132.878 133.365 131.675V131.675C135.611 130.473 138.12 129.844 140.668 129.844H144.966C149.206 129.844 153.406 130.67 157.33 132.278L163.482 134.798C170.041 137.484 175.227 142.72 177.852 149.305V149.305" stroke="white" stroke-opacity="0.9" stroke-width="2"/>
<path d="M98.2323 137.628H129.767C131.391 137.628 132.999 137.318 134.506 136.713V136.713C136.013 136.108 137.622 135.797 139.246 135.797H143.434C148.668 135.797 153.833 136.991 158.535 139.289L163.468 141.699C177.888 148.744 188.754 161.435 193.494 176.768L197.654 190.226C204.21 211.435 208.733 233.219 211.161 255.285L211.376 257.238C211.536 258.695 211.526 260.165 211.345 261.619V261.619C210.087 271.713 203.934 280.537 194.897 285.207L190.989 287.226C188.236 288.648 184.867 287.994 182.846 285.646L156.259 254.751C150.56 248.129 142.257 244.32 133.52 244.32H98.4605" stroke="white" stroke-opacity="0.9" stroke-width="2"/>
</g>
<g clip-path="url(#clip4_293_25839)">
<rect x="970.113" y="-8.42383" width="427.052" height="237.095" rx="3" stroke="white" stroke-opacity="0.9" stroke-width="2"/>
<path d="M1105.31 241.825C1104.64 239.877 1106.08 237.848 1108.14 237.848H1258.75C1260.77 237.848 1262.21 239.812 1261.61 241.745L1260.56 245.105C1258.99 250.111 1254.35 253.517 1249.1 253.517H1117.89C1112.77 253.517 1108.22 250.268 1106.55 245.427L1105.31 241.825Z" stroke="white" stroke-opacity="0.9" stroke-width="2"/>
<path d="M1113.22 244.914C1112.42 243.479 1113.46 241.713 1115.1 241.713H1251.99C1253.53 241.713 1254.54 243.347 1253.84 244.727C1252.3 247.749 1249.2 249.652 1245.81 249.652H1121.29C1117.94 249.652 1114.86 247.839 1113.22 244.914Z" stroke="white" stroke-opacity="0.9" stroke-width="2"/>
<rect x="961.256" y="-16.707" width="444.768" height="253.66" rx="3" stroke="white" stroke-opacity="0.9" stroke-width="2"/>
</g>
<g clip-path="url(#clip5_293_25839)">
<path d="M202.733 496.022C202.733 499.047 205.205 501.511 208.27 501.511C211.335 501.511 213.807 499.047 213.807 496.022C213.807 492.998 211.335 490.533 208.27 490.533C205.205 490.533 202.733 492.998 202.733 496.022Z" stroke="white" stroke-opacity="0.9" stroke-width="2"/>
<rect x="-14.6094" y="414.693" width="232.91" height="162.656" rx="25" stroke="white" stroke-opacity="0.9" stroke-width="2"/>
<rect x="5" y="425.238" width="192.465" height="141.567" stroke="white" stroke-opacity="0.9" stroke-width="2"/>
</g>
<g clip-path="url(#clip6_293_25839)">
<path d="M1290.01 488.024C1290.01 483.65 1293.3 480.045 1297.54 479.55V496.952C1293.3 496.456 1290.01 492.851 1290.01 488.478V488.024Z" stroke="white" stroke-opacity="0.9" stroke-width="2"/>
<path d="M1308.89 488.024C1308.89 483.65 1305.6 480.045 1301.35 479.55V496.952C1305.6 496.456 1308.89 492.851 1308.89 488.478V488.024Z" stroke="white" stroke-opacity="0.9" stroke-width="2"/>
<path d="M1246.7 493.994C1246.7 496.701 1244.51 498.895 1241.8 498.895C1239.09 498.895 1236.9 496.701 1236.9 493.994C1236.9 491.288 1239.09 489.094 1241.8 489.094C1244.51 489.094 1246.7 491.288 1246.7 493.994Z" stroke="white" stroke-opacity="0.9" stroke-width="2"/>
<path d="M1254.42 464.492C1254.42 471.46 1248.77 477.109 1241.8 477.109C1234.83 477.109 1229.18 471.46 1229.18 464.492C1229.18 457.524 1234.83 451.875 1241.8 451.875C1248.77 451.875 1254.42 457.524 1254.42 464.492Z" stroke="white" stroke-opacity="0.9" stroke-width="2"/>
<path d="M1267.13 426.466C1238.81 426.999 1216.02 450.12 1216.02 478.564V524.858C1216.02 553.302 1238.81 576.422 1267.13 576.955V426.466Z" stroke="white" stroke-opacity="0.9" stroke-width="2"/>
<path d="M1217.79 444.32L1217.27 444.102C1216.6 443.826 1216.28 443.091 1216.59 442.445C1217.81 439.961 1221.48 433.89 1230.38 427.953C1236.8 423.989 1249.26 423.95 1253.28 424.049C1254 424.067 1254.56 424.66 1254.56 425.383V425.683" stroke="white" stroke-opacity="0.9" stroke-width="2"/>
<path d="M1361.99 452.69C1361.99 455.396 1359.8 457.59 1357.09 457.59C1354.39 457.59 1352.19 455.396 1352.19 452.69C1352.19 449.983 1354.39 447.789 1357.09 447.789C1359.8 447.789 1361.99 449.983 1361.99 452.69Z" stroke="white" stroke-opacity="0.9" stroke-width="2"/>
<path d="M1372.43 464.49C1372.43 467.197 1370.24 469.391 1367.53 469.391C1364.83 469.391 1362.63 467.197 1362.63 464.49C1362.63 461.784 1364.83 459.59 1367.53 459.59C1370.24 459.59 1372.43 461.784 1372.43 464.49Z" stroke="white" stroke-opacity="0.9" stroke-width="2"/>
<path d="M1361.99 475.385C1361.99 478.091 1359.8 480.286 1357.09 480.286C1354.39 480.286 1352.19 478.091 1352.19 475.385C1352.19 472.678 1354.39 470.484 1357.09 470.484C1359.8 470.484 1361.99 472.678 1361.99 475.385Z" stroke="white" stroke-opacity="0.9" stroke-width="2"/>
<path d="M1351.1 464.49C1351.1 467.197 1348.91 469.391 1346.2 469.391C1343.49 469.391 1341.3 467.197 1341.3 464.49C1341.3 461.784 1343.49 459.59 1346.2 459.59C1348.91 459.59 1351.1 461.784 1351.1 464.49Z" stroke="white" stroke-opacity="0.9" stroke-width="2"/>
<path d="M1331.77 426.466C1360.08 426.999 1382.87 450.12 1382.87 478.564V524.858C1382.87 553.302 1360.08 576.422 1331.77 576.955V426.466Z" stroke="white" stroke-opacity="0.9" stroke-width="2"/>
<path d="M1381.08 444.32L1381.61 444.102C1382.27 443.826 1382.6 443.091 1382.28 442.445C1381.07 439.961 1377.4 433.89 1368.49 427.953C1362.08 423.989 1349.61 423.95 1345.6 424.049C1344.87 424.067 1344.32 424.66 1344.32 425.383V425.683" stroke="white" stroke-opacity="0.9" stroke-width="2"/>
<path d="M1270.04 430.805C1271.86 430.357 1273.21 428.711 1273.21 426.748V426.387H1325.23C1325.27 428.56 1326.81 430.367 1328.86 430.817V576.894H1270.04V430.805Z" stroke="white" stroke-opacity="0.9" stroke-width="2"/>
<rect x="1274.03" y="490.294" width="0.907837" height="0.907784" stroke="white" stroke-opacity="0.9" stroke-width="0.907784"/>
<rect x="1323.96" y="490.294" width="0.907845" height="0.907784" stroke="white" stroke-opacity="0.9" stroke-width="0.907784"/>
<rect x="1274.03" y="484.846" width="0.907837" height="0.907784" stroke="white" stroke-opacity="0.9" stroke-width="0.907784"/>
<rect x="1323.96" y="484.846" width="0.907845" height="0.907784" stroke="white" stroke-opacity="0.9" stroke-width="0.907784"/>
<path d="M1224.33 568.364C1224.33 568.364 1216.16 579.03 1204.81 573.357C1197.67 569.787 1193.42 563.334 1192.78 553.159C1191.65 535.23 1194.99 502.058 1205.04 475.543C1208.53 466.333 1215.7 452.395 1215.7 452.395" stroke="white" stroke-opacity="0.9" stroke-width="2" stroke-linecap="round"/>
<path d="M1374.52 568.364C1374.52 568.364 1382.69 579.03 1394.04 573.357C1401.18 569.787 1405.43 563.334 1406.07 553.159C1407.2 535.23 1403.86 502.058 1393.81 475.543C1390.32 466.333 1383.15 452.395 1383.15 452.395" stroke="white" stroke-opacity="0.9" stroke-width="2" stroke-linecap="round"/>
</g>
<g clip-path="url(#clip7_293_25839)">
<path d="M322.418 374.736V374.736C321.713 373.068 320.328 371.782 318.613 371.202L315.349 370.097C313.759 369.56 312.242 368.826 310.834 367.913V367.913C306.706 365.237 302.264 362.993 297.392 362.31C293.232 361.726 287.646 361.441 281.635 362.533C271.179 364.433 265.374 370.66 263.816 372.56C263.519 372.922 263.268 373.319 263.035 373.725L261.811 375.865C259.359 380.154 258.739 385.249 260.09 390.001V390.001" stroke="white" stroke-opacity="0.9" stroke-width="2"/>
<path d="M322.418 389.271C322.356 389.271 322.189 389.243 321.926 388.957C321.662 388.67 321.378 388.2 321.119 387.534C320.604 386.21 320.263 384.312 320.263 382.166C320.263 380.019 320.604 378.122 321.119 376.797C321.378 376.132 321.662 375.661 321.926 375.375C322.189 375.089 322.356 375.061 322.418 375.061C322.479 375.061 322.647 375.089 322.91 375.375C323.174 375.661 323.457 376.132 323.716 376.797C324.232 378.122 324.572 380.019 324.572 382.166C324.572 384.312 324.232 386.21 323.716 387.534C323.457 388.2 323.174 388.67 322.91 388.957C322.647 389.243 322.479 389.271 322.418 389.271Z" stroke="white" stroke-opacity="0.9" stroke-width="2"/>
<path d="M319.263 405.482C319.202 405.482 319.035 405.454 318.772 405.168C318.508 404.881 318.224 404.411 317.965 403.745C317.449 402.421 317.109 400.523 317.109 398.377C317.109 396.23 317.449 394.333 317.965 393.008C318.224 392.343 318.508 391.872 318.772 391.586C319.035 391.3 319.202 391.271 319.263 391.271C319.325 391.271 319.492 391.3 319.755 391.586C320.019 391.872 320.303 392.343 320.562 393.008C321.078 394.333 321.418 396.23 321.418 398.377C321.418 400.523 321.078 402.421 320.562 403.745C320.303 404.411 320.019 404.881 319.755 405.168C319.492 405.454 319.325 405.482 319.263 405.482Z" stroke="white" stroke-opacity="0.9" stroke-width="2"/>
<path d="M322.418 422.142C322.356 422.142 322.189 422.114 321.926 421.828C321.662 421.541 321.378 421.071 321.119 420.405C320.604 419.081 320.263 417.183 320.263 415.037C320.263 412.89 320.604 410.993 321.119 409.668C321.378 409.003 321.662 408.533 321.926 408.246C322.189 407.96 322.356 407.932 322.418 407.932C322.479 407.932 322.647 407.96 322.91 408.246C323.174 408.533 323.457 409.003 323.716 409.668C324.232 410.993 324.572 412.89 324.572 415.037C324.572 417.183 324.232 419.081 323.716 420.405C323.457 421.071 323.174 421.541 322.91 421.828C322.647 422.114 322.479 422.142 322.418 422.142Z" stroke="white" stroke-opacity="0.9" stroke-width="2"/>
<path d="M337.74 448.708C336.928 448.708 336.38 448.445 335.957 447.996C335.5 447.512 335.127 446.743 334.851 445.641C334.295 443.42 334.233 440.287 334.233 436.65C334.233 433.013 334.295 429.88 334.851 427.659C335.127 426.557 335.5 425.788 335.957 425.304C336.38 424.855 336.928 424.592 337.74 424.592C337.939 424.592 338.276 424.707 338.719 425.25C339.156 425.786 339.594 426.622 339.981 427.743C340.751 429.975 341.246 433.125 341.246 436.65C341.246 440.175 340.751 443.325 339.981 445.557C339.594 446.679 339.156 447.514 338.719 448.05C338.276 448.593 337.939 448.708 337.74 448.708Z" stroke="white" stroke-opacity="0.9" stroke-width="2"/>
<path d="M315.207 425.745C313.824 425.745 312.602 424.536 312.602 422.917C312.602 421.299 313.824 420.09 315.207 420.09C316.591 420.09 317.812 421.299 317.812 422.917C317.812 424.536 316.591 425.745 315.207 425.745Z" stroke="white" stroke-opacity="0.9" stroke-width="2"/>
<path d="M326.474 405.482C326.413 405.482 326.246 405.454 325.982 405.168C325.718 404.881 325.435 404.411 325.176 403.745C324.66 402.421 324.32 400.523 324.32 398.377C324.32 396.23 324.66 394.333 325.176 393.008C325.435 392.343 325.718 391.872 325.982 391.586C326.246 391.3 326.413 391.271 326.474 391.271C326.536 391.271 326.703 391.3 326.966 391.586C327.23 391.872 327.514 392.343 327.773 393.008C328.289 394.333 328.629 396.23 328.629 398.377C328.629 400.523 328.289 402.421 327.773 403.745C327.514 404.411 327.23 404.881 326.966 405.168C326.703 405.454 326.536 405.482 326.474 405.482Z" stroke="white" stroke-opacity="0.9" stroke-width="2"/>
<path d="M324.671 385.992V385.992C325.544 387.314 326.009 388.863 326.009 390.447L326.009 390.611" stroke="white" stroke-opacity="0.9" stroke-width="2"/>
<path d="M324.524 410.693V410.693C325.397 409.372 325.863 407.823 325.863 406.239L325.863 406.074" stroke="white" stroke-opacity="0.9" stroke-width="2"/>
<path d="M325.122 415.036C325.122 415.036 327.375 417.062 329.403 421.565C331.431 426.068 330.98 430.796 330.98 430.796" stroke="white" stroke-opacity="0.9" stroke-width="2"/>
<path d="M322.192 456.238C322.192 456.238 327.375 455.551 329.403 451.048C331.43 446.545 330.98 441.818 330.98 441.818" stroke="white" stroke-opacity="0.9" stroke-width="2"/>
<path d="M322.192 485.731C322.192 485.731 327.375 486.418 329.403 490.921C331.43 495.423 330.98 500.151 330.98 500.151" stroke="white" stroke-opacity="0.9" stroke-width="2"/>
<path d="M316.678 433.13C319.416 433.6 321.418 435.973 321.418 438.751V503.892C321.418 506.67 319.416 509.043 316.678 509.513C313.244 510.101 309.766 510.397 306.282 510.397H305.221C301.334 510.397 298.182 507.245 298.182 503.358V439.285C298.182 435.398 301.334 432.246 305.221 432.246H306.282C309.766 432.246 313.244 432.542 316.678 433.13Z" stroke="white" stroke-opacity="0.9" stroke-width="2"/>
<path d="M286.528 432.277C288.129 432.287 289.422 433.588 289.422 435.189V507.485C289.422 509.069 288.143 510.356 286.558 510.366C284.031 510.381 281.861 508.626 281.386 506.163C279.706 497.467 276.551 479.856 276.551 470.421C276.551 461.095 279.635 444.722 281.328 436.45C281.83 433.997 284.003 432.262 286.528 432.277Z" stroke="white" stroke-opacity="0.9" stroke-width="2"/>
<path d="M337.74 448.708C336.928 448.708 336.38 448.445 335.957 447.996C335.5 447.512 335.127 446.743 334.851 445.641C334.295 443.42 334.233 440.287 334.233 436.65C334.233 433.013 334.295 429.88 334.851 427.659C335.127 426.557 335.5 425.788 335.957 425.304C336.38 424.855 336.928 424.592 337.74 424.592C337.939 424.592 338.276 424.707 338.719 425.25C339.156 425.786 339.594 426.622 339.981 427.743C340.751 429.975 341.246 433.125 341.246 436.65C341.246 440.175 340.751 443.325 339.981 445.557C339.594 446.679 339.156 447.514 338.719 448.05C338.276 448.593 337.939 448.708 337.74 448.708Z" stroke="white" stroke-opacity="0.9" stroke-width="2"/>
<path d="M339.992 426.293C339.992 426.293 337.964 430.571 337.964 436.65C337.964 442.728 339.992 447.006 339.992 447.006" stroke="white" stroke-opacity="0.9" stroke-width="2"/>
<path d="M329.629 422.242C329.629 422.242 326.7 415.713 326.925 436.426C327.15 457.139 329.404 451.06 329.404 451.06" stroke="white" stroke-opacity="0.9" stroke-width="2"/>
<path d="M329.629 519.809C329.629 519.809 326.7 526.338 326.925 505.625C327.15 484.912 329.404 490.991 329.404 490.991" stroke="white" stroke-opacity="0.9" stroke-width="2"/>
<path d="M333.684 430.797V430.797C330.946 430.797 328.727 433.016 328.727 435.754V437.097C328.727 439.835 330.946 442.054 333.684 442.054V442.054" stroke="white" stroke-opacity="0.9" stroke-width="2"/>
<path d="M269.693 409.633C283.16 415.195 263.158 451.662 263.158 471.322C263.158 490.983 283.16 527.449 269.693 533.012" stroke="white" stroke-opacity="0.9" stroke-width="2"/>
<rect x="270.354" y="466.209" width="9.83057" height="2.10337" rx="1.05169" transform="rotate(90 270.354 466.209)" stroke="white" stroke-opacity="0.9" stroke-width="2"/>
<path d="M291.667 380.914C298.889 380.914 304.744 386.769 304.744 393.991V398.708C304.744 405.93 298.889 411.785 291.667 411.785C289.79 411.785 288.268 410.263 288.268 408.386V384.313C288.268 382.436 289.79 380.914 291.667 380.914Z" stroke="white" stroke-opacity="0.9" stroke-width="2"/>
<path d="M267.445 386.795C261.838 387.484 257.625 392.247 257.625 397.897C257.625 404.074 262.633 409.082 268.811 409.082H278.942C282.242 409.082 284.917 406.408 284.917 403.108V388.428C284.917 386.419 283.157 384.862 281.163 385.108L267.445 386.795Z" stroke="white" stroke-opacity="0.9" stroke-width="2"/>
<path d="M292.676 361.678L294.112 363.765C296.268 366.899 296.459 370.985 294.605 374.307L291.099 380.59" stroke="white" stroke-opacity="0.9" stroke-width="2"/>
<path d="M290.873 412.334L291.827 415.406C292.521 417.64 293.976 419.56 295.938 420.832L296.835 421.413C299.592 423.2 301.295 426.227 301.392 429.511L301.463 431.921" stroke="white" stroke-opacity="0.9" stroke-width="2"/>
</g>
<g clip-path="url(#clip8_293_25839)">
<path d="M102.47 308.215C123.041 308.215 139.717 324.891 139.717 345.462C139.717 369.255 120.429 388.543 96.6356 388.543H95.5487C94.2226 388.543 92.9703 387.933 92.1526 386.889L79.3138 370.498C75.7349 365.929 68.8306 365.892 65.203 370.422L51.9446 386.981C51.1543 387.969 49.9583 388.543 48.6938 388.543C25.0051 388.543 5.79642 369.242 5.79642 345.547C5.79642 324.974 22.4754 308.215 43.0434 308.215H102.47Z" stroke="white" stroke-opacity="0.9" stroke-width="2"/>
<path d="M33.8613 308.215H111.655C132.226 308.215 148.902 324.891 148.902 345.462C148.902 369.255 129.614 388.543 105.821 388.543H95.693H39.6956C15.9025 388.543 -3.38568 369.255 -3.38568 345.462C-3.38568 324.891 13.2904 308.215 33.8613 308.215Z" stroke="white" stroke-opacity="0.9" stroke-width="2"/>
<path d="M137.044 311.764V311.764C152.514 311.764 165.055 324.304 165.055 339.774V353.77C165.055 371.015 151.075 384.995 133.83 384.995V384.995" stroke="white" stroke-opacity="0.9" stroke-width="2"/>
<path d="M8.47155 311.764V311.764C-6.99829 311.764 -19.5391 324.304 -19.5391 339.774L-19.5391 353.77C-19.5391 371.015 -5.55919 384.995 11.6859 384.995V384.995" stroke="white" stroke-opacity="0.9" stroke-width="2"/>
<path d="M108.509 325.045C122.195 325.045 133.289 336.139 133.289 349.825C133.289 365.682 120.434 378.537 104.577 378.537H92.8321C91.8404 378.537 90.8864 378.157 90.1662 377.475L78.2387 366.181C74.7955 362.92 69.4132 362.891 65.9344 366.113L53.5981 377.541C52.9067 378.181 51.999 378.537 51.0566 378.537H40.479C24.6217 378.537 11.7668 365.682 11.7668 349.825C11.7668 336.139 22.8611 325.045 36.5465 325.045H108.509Z" stroke="white" stroke-opacity="0.9" stroke-width="2"/>
<path d="M101.227 363.527C92.6405 363.527 85.6961 356.634 85.6961 348.152C85.6961 339.67 92.6405 332.777 101.227 332.777C109.813 332.777 116.758 339.67 116.758 348.152C116.758 356.634 109.813 363.527 101.227 363.527Z" stroke="white" stroke-opacity="0.9" stroke-width="2"/>
<path d="M101.227 367.62C90.3582 367.62 81.5635 358.895 81.5635 348.152C81.5635 337.409 90.3582 328.684 101.227 328.684C112.096 328.684 120.891 337.409 120.891 348.152C120.891 358.895 112.096 367.62 101.227 367.62Z" stroke="white" stroke-opacity="0.9" stroke-width="2"/>
<path d="M43.3695 363.527C34.7831 363.527 27.8387 356.634 27.8387 348.152C27.8387 339.67 34.7831 332.777 43.3695 332.777C51.956 332.777 58.9004 339.67 58.9004 348.152C58.9004 356.634 51.956 363.527 43.3695 363.527Z" stroke="white" stroke-opacity="0.9" stroke-width="2"/>
<path d="M43.3696 367.62C32.5008 367.62 23.706 358.895 23.706 348.152C23.706 337.409 32.5008 328.684 43.3696 328.684C54.2385 328.684 63.0332 337.409 63.0332 348.152C63.0332 358.895 54.2385 367.62 43.3696 367.62Z" stroke="white" stroke-opacity="0.9" stroke-width="2"/>
</g>
<g clip-path="url(#clip9_293_25839)">
<rect x="243.355" y="167.709" width="393.176" height="161.559" rx="15" stroke="white" stroke-opacity="0.9" stroke-width="2"/>
<path d="M261.121 188.988C261.121 187.331 262.464 185.988 264.121 185.988H270.526C272.183 185.988 273.526 187.331 273.526 188.988V193.18C273.526 196.605 270.749 199.382 267.324 199.382C263.898 199.382 261.121 196.605 261.121 193.18V188.988Z" stroke="white" stroke-opacity="0.9" stroke-width="2"/>
<path d="M261.121 218.814C261.121 217.158 262.464 215.814 264.121 215.814H270.526C272.183 215.814 273.526 217.158 273.526 218.814V223.006C273.526 226.431 270.749 229.208 267.324 229.208C263.898 229.208 261.121 226.431 261.121 223.006V218.814Z" stroke="white" stroke-opacity="0.9" stroke-width="2"/>
<path d="M281.289 218.814C281.289 217.158 282.632 215.814 284.289 215.814H290.694C292.351 215.814 293.694 217.158 293.694 218.814V223.006C293.694 226.431 290.917 229.208 287.492 229.208C284.066 229.208 281.289 226.431 281.289 223.006V218.814Z" stroke="white" stroke-opacity="0.9" stroke-width="2"/>
<path d="M291.852 239.02C291.852 237.363 293.195 236.02 294.852 236.02H301.257C302.913 236.02 304.257 237.363 304.257 239.02V243.211C304.257 246.636 301.48 249.413 298.054 249.413C294.629 249.413 291.852 246.636 291.852 243.211V239.02Z" stroke="white" stroke-opacity="0.9" stroke-width="2"/>
<path d="M311.539 239.02C311.539 237.363 312.882 236.02 314.539 236.02H320.944C322.601 236.02 323.944 237.363 323.944 239.02V243.211C323.944 246.636 321.167 249.413 317.742 249.413C314.316 249.413 311.539 246.636 311.539 243.211V239.02Z" stroke="white" stroke-opacity="0.9" stroke-width="2"/>
<path d="M331.227 239.02C331.227 237.363 332.57 236.02 334.227 236.02H340.632C342.288 236.02 343.632 237.363 343.632 239.02V243.211C343.632 246.636 340.855 249.413 337.429 249.413C334.004 249.413 331.227 246.636 331.227 243.211V239.02Z" stroke="white" stroke-opacity="0.9" stroke-width="2"/>
<path d="M350.912 239.02C350.912 237.363 352.255 236.02 353.912 236.02H360.317C361.974 236.02 363.317 237.363 363.317 239.02V243.211C363.317 246.636 360.54 249.413 357.115 249.413C353.689 249.413 350.912 246.636 350.912 243.211V239.02Z" stroke="white" stroke-opacity="0.9" stroke-width="2"/>
<path d="M370.6 239.02C370.6 237.363 371.943 236.02 373.6 236.02H380.005C381.661 236.02 383.005 237.363 383.005 239.02V243.211C383.005 246.636 380.228 249.413 376.802 249.413C373.377 249.413 370.6 246.636 370.6 243.211V239.02Z" stroke="white" stroke-opacity="0.9" stroke-width="2"/>
<path d="M390.285 239.02C390.285 237.363 391.628 236.02 393.285 236.02H399.69C401.347 236.02 402.69 237.363 402.69 239.02V243.211C402.69 246.636 399.913 249.413 396.488 249.413C393.062 249.413 390.285 246.636 390.285 243.211V239.02Z" stroke="white" stroke-opacity="0.9" stroke-width="2"/>
<path d="M409.973 239.02C409.973 237.363 411.316 236.02 412.973 236.02H419.378C421.034 236.02 422.378 237.363 422.378 239.02V243.211C422.378 246.636 419.601 249.413 416.175 249.413C412.75 249.413 409.973 246.636 409.973 243.211V239.02Z" stroke="white" stroke-opacity="0.9" stroke-width="2"/>
<path d="M296.654 258.262C296.654 256.605 297.997 255.262 299.654 255.262H306.059C307.716 255.262 309.059 256.605 309.059 258.262V262.453C309.059 265.879 306.282 268.655 302.857 268.655C299.431 268.655 296.654 265.879 296.654 262.453V258.262Z" stroke="white" stroke-opacity="0.9" stroke-width="2"/>
<path d="M316.34 258.262C316.34 256.605 317.683 255.262 319.34 255.262H325.745C327.402 255.262 328.745 256.605 328.745 258.262V262.453C328.745 265.879 325.968 268.655 322.542 268.655C319.117 268.655 316.34 265.879 316.34 262.453V258.262Z" stroke="white" stroke-opacity="0.9" stroke-width="2"/>
<path d="M336.027 258.262C336.027 256.605 337.37 255.262 339.027 255.262H345.432C347.089 255.262 348.432 256.605 348.432 258.262V262.453C348.432 265.879 345.655 268.655 342.23 268.655C338.804 268.655 336.027 265.879 336.027 262.453V258.262Z" stroke="white" stroke-opacity="0.9" stroke-width="2"/>
<path d="M355.715 258.262C355.715 256.605 357.058 255.262 358.715 255.262H365.12C366.777 255.262 368.12 256.605 368.12 258.262V262.453C368.12 265.879 365.343 268.655 361.917 268.655C358.492 268.655 355.715 265.879 355.715 262.453V258.262Z" stroke="white" stroke-opacity="0.9" stroke-width="2"/>
<path d="M375.4 258.262C375.4 256.605 376.744 255.262 378.4 255.262H384.805C386.462 255.262 387.805 256.605 387.805 258.262V262.453C387.805 265.879 385.028 268.655 381.603 268.655C378.177 268.655 375.4 265.879 375.4 262.453V258.262Z" stroke="white" stroke-opacity="0.9" stroke-width="2"/>
<path d="M395.088 258.262C395.088 256.605 396.431 255.262 398.088 255.262H404.493C406.15 255.262 407.493 256.605 407.493 258.262V262.453C407.493 265.879 404.716 268.655 401.29 268.655C397.865 268.655 395.088 265.879 395.088 262.453V258.262Z" stroke="white" stroke-opacity="0.9" stroke-width="2"/>
<path d="M414.773 258.262C414.773 256.605 416.117 255.262 417.773 255.262H424.178C425.835 255.262 427.178 256.605 427.178 258.262V262.453C427.178 265.879 424.401 268.655 420.976 268.655C417.55 268.655 414.773 265.879 414.773 262.453V258.262Z" stroke="white" stroke-opacity="0.9" stroke-width="2"/>
<path d="M306.258 278.465C306.258 276.808 307.601 275.465 309.258 275.465H315.663C317.32 275.465 318.663 276.808 318.663 278.465V282.656C318.663 286.082 315.886 288.859 312.46 288.859C309.035 288.859 306.258 286.082 306.258 282.656V278.465Z" stroke="white" stroke-opacity="0.9" stroke-width="2"/>
<path d="M325.943 278.465C325.943 276.808 327.287 275.465 328.943 275.465H335.348C337.005 275.465 338.348 276.808 338.348 278.465V282.656C338.348 286.082 335.571 288.859 332.146 288.859C328.72 288.859 325.943 286.082 325.943 282.656V278.465Z" stroke="white" stroke-opacity="0.9" stroke-width="2"/>
<path d="M345.631 278.465C345.631 276.808 346.974 275.465 348.631 275.465H355.036C356.693 275.465 358.036 276.808 358.036 278.465V282.656C358.036 286.082 355.259 288.859 351.833 288.859C348.408 288.859 345.631 286.082 345.631 282.656V278.465Z" stroke="white" stroke-opacity="0.9" stroke-width="2"/>
<path d="M365.316 278.465C365.316 276.808 366.66 275.465 368.316 275.465H374.721C376.378 275.465 377.721 276.808 377.721 278.465V282.656C377.721 286.082 374.944 288.859 371.519 288.859C368.093 288.859 365.316 286.082 365.316 282.656V278.465Z" stroke="white" stroke-opacity="0.9" stroke-width="2"/>
<path d="M385.004 278.465C385.004 276.808 386.347 275.465 388.004 275.465H394.409C396.066 275.465 397.409 276.808 397.409 278.465V282.656C397.409 286.082 394.632 288.859 391.206 288.859C387.781 288.859 385.004 286.082 385.004 282.656V278.465Z" stroke="white" stroke-opacity="0.9" stroke-width="2"/>
<path d="M404.691 278.465C404.691 276.808 406.035 275.465 407.691 275.465H414.096C415.753 275.465 417.096 276.808 417.096 278.465V282.656C417.096 286.082 414.319 288.859 410.894 288.859C407.468 288.859 404.691 286.082 404.691 282.656V278.465Z" stroke="white" stroke-opacity="0.9" stroke-width="2"/>
<path d="M424.377 278.465C424.377 276.808 425.72 275.465 427.377 275.465H433.782C435.439 275.465 436.782 276.808 436.782 278.465V282.656C436.782 286.082 434.005 288.859 430.579 288.859C427.154 288.859 424.377 286.082 424.377 282.656V278.465Z" stroke="white" stroke-opacity="0.9" stroke-width="2"/>
<path d="M429.66 239.02C429.66 237.363 431.003 236.02 432.66 236.02H439.065C440.722 236.02 442.065 237.363 442.065 239.02V243.211C442.065 246.636 439.288 249.413 435.863 249.413C432.437 249.413 429.66 246.636 429.66 243.211V239.02Z" stroke="white" stroke-opacity="0.9" stroke-width="2"/>
<path d="M449.346 239.02C449.346 237.363 450.689 236.02 452.346 236.02H458.751C460.408 236.02 461.751 237.363 461.751 239.02V243.211C461.751 246.636 458.974 249.413 455.548 249.413C452.123 249.413 449.346 246.636 449.346 243.211V239.02Z" stroke="white" stroke-opacity="0.9" stroke-width="2"/>
<path d="M469.033 239.02C469.033 237.363 470.376 236.02 472.033 236.02H478.438C480.095 236.02 481.438 237.363 481.438 239.02V243.211C481.438 246.636 478.661 249.413 475.236 249.413C471.81 249.413 469.033 246.636 469.033 243.211V239.02Z" stroke="white" stroke-opacity="0.9" stroke-width="2"/>
<path d="M488.719 239.02C488.719 237.363 490.062 236.02 491.719 236.02H498.124C499.781 236.02 501.124 237.363 501.124 239.02V243.211C501.124 246.636 498.347 249.413 494.921 249.413C491.496 249.413 488.719 246.636 488.719 243.211V239.02Z" stroke="white" stroke-opacity="0.9" stroke-width="2"/>
<path d="M434.941 258.262C434.941 256.605 436.285 255.262 437.941 255.262H444.346C446.003 255.262 447.346 256.605 447.346 258.262V262.453C447.346 265.879 444.569 268.655 441.144 268.655C437.718 268.655 434.941 265.879 434.941 262.453V258.262Z" stroke="white" stroke-opacity="0.9" stroke-width="2"/>
<path d="M454.629 258.262C454.629 256.605 455.972 255.262 457.629 255.262H464.034C465.691 255.262 467.034 256.605 467.034 258.262V262.453C467.034 265.879 464.257 268.655 460.831 268.655C457.406 268.655 454.629 265.879 454.629 262.453V258.262Z" stroke="white" stroke-opacity="0.9" stroke-width="2"/>
<path d="M474.314 258.262C474.314 256.605 475.658 255.262 477.314 255.262H483.719C485.376 255.262 486.719 256.605 486.719 258.262V262.453C486.719 265.879 483.942 268.655 480.517 268.655C477.091 268.655 474.314 265.879 474.314 262.453V258.262Z" stroke="white" stroke-opacity="0.9" stroke-width="2"/>
<path d="M494.002 258.262C494.002 256.605 495.345 255.262 497.002 255.262H503.407C505.064 255.262 506.407 256.605 506.407 258.262V262.453C506.407 265.879 503.63 268.655 500.204 268.655C496.779 268.655 494.002 265.879 494.002 262.453V258.262Z" stroke="white" stroke-opacity="0.9" stroke-width="2"/>
<path d="M445.984 278.465C445.984 276.808 447.328 275.465 448.984 275.465H455.389C457.046 275.465 458.389 276.808 458.389 278.465V282.656C458.389 286.082 455.612 288.859 452.187 288.859C448.761 288.859 445.984 286.082 445.984 282.656V278.465Z" stroke="white" stroke-opacity="0.9" stroke-width="2"/>
<path d="M465.672 278.465C465.672 276.808 467.015 275.465 468.672 275.465H475.077C476.734 275.465 478.077 276.808 478.077 278.465V282.656C478.077 286.082 475.3 288.859 471.874 288.859C468.449 288.859 465.672 286.082 465.672 282.656V278.465Z" stroke="white" stroke-opacity="0.9" stroke-width="2"/>
<path d="M485.359 278.465C485.359 276.808 486.703 275.465 488.359 275.465H494.764C496.421 275.465 497.764 276.808 497.764 278.465V282.656C497.764 286.082 494.987 288.859 491.562 288.859C488.136 288.859 485.359 286.082 485.359 282.656V278.465Z" stroke="white" stroke-opacity="0.9" stroke-width="2"/>
<path d="M508.406 239.02C508.406 237.363 509.749 236.02 511.406 236.02H517.811C519.468 236.02 520.811 237.363 520.811 239.02V243.211C520.811 246.636 518.034 249.413 514.609 249.413C511.183 249.413 508.406 246.636 508.406 243.211V239.02Z" stroke="white" stroke-opacity="0.9" stroke-width="2"/>
<path d="M301.455 218.814C301.455 217.158 302.798 215.814 304.455 215.814H310.86C312.517 215.814 313.86 217.158 313.86 218.814V223.006C313.86 226.431 311.083 229.208 307.658 229.208C304.232 229.208 301.455 226.431 301.455 223.006V218.814Z" stroke="white" stroke-opacity="0.9" stroke-width="2"/>
<path d="M321.623 218.814C321.623 217.158 322.966 215.814 324.623 215.814H331.028C332.685 215.814 334.028 217.158 334.028 218.814V223.006C334.028 226.431 331.251 229.208 327.826 229.208C324.4 229.208 321.623 226.431 321.623 223.006V218.814Z" stroke="white" stroke-opacity="0.9" stroke-width="2"/>
<path d="M341.789 218.814C341.789 217.158 343.132 215.814 344.789 215.814H351.194C352.851 215.814 354.194 217.158 354.194 218.814V223.006C354.194 226.431 351.417 229.208 347.992 229.208C344.566 229.208 341.789 226.431 341.789 223.006V218.814Z" stroke="white" stroke-opacity="0.9" stroke-width="2"/>
<path d="M361.957 218.814C361.957 217.158 363.3 215.814 364.957 215.814H371.362C373.019 215.814 374.362 217.158 374.362 218.814V223.006C374.362 226.431 371.585 229.208 368.16 229.208C364.734 229.208 361.957 226.431 361.957 223.006V218.814Z" stroke="white" stroke-opacity="0.9" stroke-width="2"/>
<path d="M382.123 218.814C382.123 217.158 383.466 215.814 385.123 215.814H391.528C393.185 215.814 394.528 217.158 394.528 218.814V223.006C394.528 226.431 391.751 229.208 388.326 229.208C384.9 229.208 382.123 226.431 382.123 223.006V218.814Z" stroke="white" stroke-opacity="0.9" stroke-width="2"/>
<path d="M402.289 218.814C402.289 217.158 403.632 215.814 405.289 215.814H411.694C413.351 215.814 414.694 217.158 414.694 218.814V223.006C414.694 226.431 411.917 229.208 408.492 229.208C405.066 229.208 402.289 226.431 402.289 223.006V218.814Z" stroke="white" stroke-opacity="0.9" stroke-width="2"/>
<path d="M422.457 218.814C422.457 217.158 423.8 215.814 425.457 215.814H431.862C433.519 215.814 434.862 217.158 434.862 218.814V223.006C434.862 226.431 432.085 229.208 428.66 229.208C425.234 229.208 422.457 226.431 422.457 223.006V218.814Z" stroke="white" stroke-opacity="0.9" stroke-width="2"/>
<path d="M442.623 218.814C442.623 217.158 443.966 215.814 445.623 215.814H452.028C453.685 215.814 455.028 217.158 455.028 218.814V223.006C455.028 226.431 452.251 229.208 448.826 229.208C445.4 229.208 442.623 226.431 442.623 223.006V218.814Z" stroke="white" stroke-opacity="0.9" stroke-width="2"/>
<path d="M462.791 218.814C462.791 217.158 464.134 215.814 465.791 215.814H472.196C473.853 215.814 475.196 217.158 475.196 218.814V223.006C475.196 226.431 472.419 229.208 468.993 229.208C465.568 229.208 462.791 226.431 462.791 223.006V218.814Z" stroke="white" stroke-opacity="0.9" stroke-width="2"/>
<path d="M482.957 218.814C482.957 217.158 484.3 215.814 485.957 215.814H492.362C494.019 215.814 495.362 217.158 495.362 218.814V223.006C495.362 226.431 492.585 229.208 489.16 229.208C485.734 229.208 482.957 226.431 482.957 223.006V218.814Z" stroke="white" stroke-opacity="0.9" stroke-width="2"/>
<path d="M503.125 218.814C503.125 217.158 504.468 215.814 506.125 215.814H512.53C514.187 215.814 515.53 217.158 515.53 218.814V223.006C515.53 226.431 512.753 229.208 509.327 229.208C505.902 229.208 503.125 226.431 503.125 223.006V218.814Z" stroke="white" stroke-opacity="0.9" stroke-width="2"/>
<path d="M523.291 218.814C523.291 217.158 524.634 215.814 526.291 215.814H552.383C554.04 215.814 555.383 217.158 555.383 218.814V219.208C555.383 224.731 550.906 229.208 545.383 229.208H533.291C527.768 229.208 523.291 224.731 523.291 219.208V218.814Z" stroke="white" stroke-opacity="0.9" stroke-width="2"/>
<path d="M532.895 238.057C532.895 236.4 534.238 235.057 535.895 235.057H552.383C554.04 235.057 555.383 236.4 555.383 238.057V238.45C555.383 243.973 550.906 248.45 545.383 248.45H542.895C537.372 248.45 532.895 243.973 532.895 238.45V238.057Z" stroke="white" stroke-opacity="0.9" stroke-width="2"/>
<path d="M518.49 258.742C518.49 257.085 519.833 255.742 521.49 255.742H552.384C554.04 255.742 555.384 257.085 555.384 258.742V259.136C555.384 264.659 550.906 269.136 545.384 269.136H528.49C522.967 269.136 518.49 264.659 518.49 259.136V258.742Z" stroke="white" stroke-opacity="0.9" stroke-width="2"/>
<path d="M507.926 279.428C507.926 277.771 509.269 276.428 510.926 276.428H552.383C554.04 276.428 555.383 277.771 555.383 279.428V279.822C555.383 285.344 550.906 289.822 545.383 289.822H517.926C512.403 289.822 507.926 285.344 507.926 279.822V279.428Z" stroke="white" stroke-opacity="0.9" stroke-width="2"/>
<path d="M538.656 299.15C538.656 297.494 539.999 296.15 541.656 296.15H552.383C554.04 296.15 555.383 297.494 555.383 299.15V301.181C555.383 305.8 551.638 309.544 547.019 309.544C542.401 309.544 538.656 305.8 538.656 301.181V299.15Z" stroke="white" stroke-opacity="0.9" stroke-width="2"/>
<path d="M513.688 299.15C513.688 297.494 515.031 296.15 516.688 296.15H527.414C529.071 296.15 530.414 297.494 530.414 299.15V301.181C530.414 305.8 526.67 309.544 522.051 309.544C517.432 309.544 513.688 305.8 513.688 301.181V299.15Z" stroke="white" stroke-opacity="0.9" stroke-width="2"/>
<path d="M488.719 299.15C488.719 297.494 490.062 296.15 491.719 296.15H502.445C504.102 296.15 505.445 297.494 505.445 299.15V301.181C505.445 305.8 501.701 309.544 497.082 309.544C492.463 309.544 488.719 305.8 488.719 301.181V299.15Z" stroke="white" stroke-opacity="0.9" stroke-width="2"/>
<path d="M463.752 299.15C463.752 297.494 465.095 296.15 466.752 296.15H477.478C479.135 296.15 480.478 297.494 480.478 299.15V301.181C480.478 305.8 476.734 309.544 472.115 309.544C467.496 309.544 463.752 305.8 463.752 301.181V299.15Z" stroke="white" stroke-opacity="0.9" stroke-width="2"/>
<path d="M337.467 299.15C337.467 297.494 338.81 296.15 340.467 296.15H452.508C454.165 296.15 455.508 297.494 455.508 299.15V299.544C455.508 305.067 451.031 309.544 445.508 309.544H347.467C341.944 309.544 337.467 305.067 337.467 299.544V299.15Z" stroke="white" stroke-opacity="0.9" stroke-width="2"/>
<path d="M262.082 299.15C262.082 297.494 263.425 296.15 265.082 296.15H276.289C277.945 296.15 279.289 297.494 279.289 299.15V300.941C279.289 305.692 275.437 309.544 270.685 309.544C265.934 309.544 262.082 305.692 262.082 300.941V299.15Z" stroke="white" stroke-opacity="0.9" stroke-width="2"/>
<path d="M262.082 278.465C262.082 276.808 263.425 275.465 265.082 275.465H295.495C297.152 275.465 298.495 276.808 298.495 278.465V278.859C298.495 284.381 294.018 288.859 288.495 288.859H272.082C266.559 288.859 262.082 284.381 262.082 278.859V278.465Z" stroke="white" stroke-opacity="0.9" stroke-width="2"/>
<path d="M261.602 258.262C261.602 256.605 262.945 255.262 264.602 255.262H285.411C287.068 255.262 288.411 256.605 288.411 258.262V258.655C288.411 264.178 283.934 268.655 278.411 268.655H271.602C266.079 268.655 261.602 264.178 261.602 258.655V258.262Z" stroke="white" stroke-opacity="0.9" stroke-width="2"/>
<path d="M261.602 239.02C261.602 237.363 262.945 236.02 264.602 236.02H280.61C282.267 236.02 283.61 237.363 283.61 239.02V239.413C283.61 244.936 279.133 249.413 273.61 249.413H271.602C266.079 249.413 261.602 244.936 261.602 239.413V239.02Z" stroke="white" stroke-opacity="0.9" stroke-width="2"/>
<path d="M286.57 299.15C286.57 297.494 287.913 296.15 289.57 296.15H300.777C302.434 296.15 303.777 297.494 303.777 299.15V300.941C303.777 305.692 299.925 309.544 295.174 309.544C290.422 309.544 286.57 305.692 286.57 300.941V299.15Z" stroke="white" stroke-opacity="0.9" stroke-width="2"/>
<path d="M311.059 299.15C311.059 297.494 312.402 296.15 314.059 296.15H325.265C326.922 296.15 328.265 297.494 328.265 299.15V300.941C328.265 305.692 324.413 309.544 319.662 309.544C314.91 309.544 311.059 305.692 311.059 300.941V299.15Z" stroke="white" stroke-opacity="0.9" stroke-width="2"/>
<path d="M301.455 188.988C301.455 187.331 302.798 185.988 304.455 185.988H310.86C312.517 185.988 313.86 187.331 313.86 188.988V193.18C313.86 196.605 311.083 199.382 307.658 199.382C304.232 199.382 301.455 196.605 301.455 193.18V188.988Z" stroke="white" stroke-opacity="0.9" stroke-width="2"/>
<path d="M321.623 188.988C321.623 187.331 322.966 185.988 324.623 185.988H331.028C332.685 185.988 334.028 187.331 334.028 188.988V193.18C334.028 196.605 331.251 199.382 327.826 199.382C324.4 199.382 321.623 196.605 321.623 193.18V188.988Z" stroke="white" stroke-opacity="0.9" stroke-width="2"/>
<path d="M341.789 188.988C341.789 187.331 343.132 185.988 344.789 185.988H351.194C352.851 185.988 354.194 187.331 354.194 188.988V193.18C354.194 196.605 351.417 199.382 347.992 199.382C344.566 199.382 341.789 196.605 341.789 193.18V188.988Z" stroke="white" stroke-opacity="0.9" stroke-width="2"/>
<path d="M361.957 188.988C361.957 187.331 363.3 185.988 364.957 185.988H371.362C373.019 185.988 374.362 187.331 374.362 188.988V193.18C374.362 196.605 371.585 199.382 368.16 199.382C364.734 199.382 361.957 196.605 361.957 193.18V188.988Z" stroke="white" stroke-opacity="0.9" stroke-width="2"/>
<path d="M392.688 188.988C392.688 187.331 394.031 185.988 395.688 185.988H402.092C403.749 185.988 405.092 187.331 405.092 188.988V193.18C405.092 196.605 402.316 199.382 398.89 199.382C395.464 199.382 392.688 196.605 392.688 193.18V188.988Z" stroke="white" stroke-opacity="0.9" stroke-width="2"/>
<path d="M412.373 188.988C412.373 187.331 413.716 185.988 415.373 185.988H421.778C423.435 185.988 424.778 187.331 424.778 188.988V193.18C424.778 196.605 422.001 199.382 418.576 199.382C415.15 199.382 412.373 196.605 412.373 193.18V188.988Z" stroke="white" stroke-opacity="0.9" stroke-width="2"/>
<path d="M432.061 188.988C432.061 187.331 433.404 185.988 435.061 185.988H441.465C443.122 185.988 444.465 187.331 444.465 188.988V193.18C444.465 196.605 441.689 199.382 438.263 199.382C434.837 199.382 432.061 196.605 432.061 193.18V188.988Z" stroke="white" stroke-opacity="0.9" stroke-width="2"/>
<path d="M451.746 188.988C451.746 187.331 453.089 185.988 454.746 185.988H461.151C462.808 185.988 464.151 187.331 464.151 188.988V193.18C464.151 196.605 461.374 199.382 457.949 199.382C454.523 199.382 451.746 196.605 451.746 193.18V188.988Z" stroke="white" stroke-opacity="0.9" stroke-width="2"/>
<path d="M482.957 188.988C482.957 187.331 484.3 185.988 485.957 185.988H492.362C494.019 185.988 495.362 187.331 495.362 188.988V193.18C495.362 196.605 492.585 199.382 489.16 199.382C485.734 199.382 482.957 196.605 482.957 193.18V188.988Z" stroke="white" stroke-opacity="0.9" stroke-width="2"/>
<path d="M503.125 188.988C503.125 187.331 504.468 185.988 506.125 185.988H512.53C514.187 185.988 515.53 187.331 515.53 188.988V193.18C515.53 196.605 512.753 199.382 509.327 199.382C505.902 199.382 503.125 196.605 503.125 193.18V188.988Z" stroke="white" stroke-opacity="0.9" stroke-width="2"/>
<path d="M523.291 188.988C523.291 187.331 524.634 185.988 526.291 185.988H532.696C534.353 185.988 535.696 187.331 535.696 188.988V193.18C535.696 196.605 532.919 199.382 529.493 199.382C526.068 199.382 523.291 196.605 523.291 193.18V188.988Z" stroke="white" stroke-opacity="0.9" stroke-width="2"/>
<path d="M543.459 188.988C543.459 187.331 544.802 185.988 546.459 185.988H552.864C554.521 185.988 555.864 187.331 555.864 188.988V193.18C555.864 196.605 553.087 199.382 549.661 199.382C546.236 199.382 543.459 196.605 543.459 193.18V188.988Z" stroke="white" stroke-opacity="0.9" stroke-width="2"/>
<path d="M568.906 188.988C568.906 187.331 570.249 185.988 571.906 185.988H578.311C579.968 185.988 581.311 187.331 581.311 188.988V193.18C581.311 196.605 578.534 199.382 575.109 199.382C571.683 199.382 568.906 196.605 568.906 193.18V188.988Z" stroke="white" stroke-opacity="0.9" stroke-width="2"/>
<path d="M568.906 218.814C568.906 217.158 570.249 215.814 571.906 215.814H578.311C579.968 215.814 581.311 217.158 581.311 218.814V223.006C581.311 226.431 578.534 229.208 575.109 229.208C571.683 229.208 568.906 226.431 568.906 223.006V218.814Z" stroke="white" stroke-opacity="0.9" stroke-width="2"/>
<path d="M589.074 218.814C589.074 217.158 590.417 215.814 592.074 215.814H598.479C600.136 215.814 601.479 217.158 601.479 218.814V223.006C601.479 226.431 598.702 229.208 595.277 229.208C591.851 229.208 589.074 226.431 589.074 223.006V218.814Z" stroke="white" stroke-opacity="0.9" stroke-width="2"/>
<path d="M609.24 218.814C609.24 217.158 610.583 215.814 612.24 215.814H618.645C620.302 215.814 621.645 217.158 621.645 218.814V223.006C621.645 226.431 618.868 229.208 615.443 229.208C612.017 229.208 609.24 226.431 609.24 223.006V218.814Z" stroke="white" stroke-opacity="0.9" stroke-width="2"/>
<path d="M568.906 238.057C568.906 236.4 570.249 235.057 571.906 235.057H578.311C579.968 235.057 581.311 236.4 581.311 238.057V242.248C581.311 245.673 578.534 248.45 575.109 248.45C571.683 248.45 568.906 245.673 568.906 242.248V238.057Z" stroke="white" stroke-opacity="0.9" stroke-width="2"/>
<path d="M588.594 278.947C588.594 277.29 589.937 275.947 591.594 275.947H597.999C599.656 275.947 600.999 277.29 600.999 278.947V283.139C600.999 286.564 598.222 289.341 594.796 289.341C591.371 289.341 588.594 286.564 588.594 283.139V278.947Z" stroke="white" stroke-opacity="0.9" stroke-width="2"/>
<path d="M568.906 299.15C568.906 297.494 570.249 296.15 571.906 296.15H578.311C579.968 296.15 581.311 297.494 581.311 299.15V303.342C581.311 306.767 578.534 309.544 575.109 309.544C571.683 309.544 568.906 306.767 568.906 303.342V299.15Z" stroke="white" stroke-opacity="0.9" stroke-width="2"/>
<path d="M588.594 299.15C588.594 297.494 589.937 296.15 591.594 296.15H597.999C599.656 296.15 600.999 297.494 600.999 299.15V303.342C600.999 306.767 598.222 309.544 594.796 309.544C591.371 309.544 588.594 306.767 588.594 303.342V299.15Z" stroke="white" stroke-opacity="0.9" stroke-width="2"/>
<path d="M608.281 299.15C608.281 297.494 609.624 296.15 611.281 296.15H617.686C619.343 296.15 620.686 297.494 620.686 299.15V303.342C620.686 306.767 617.909 309.544 614.484 309.544C611.058 309.544 608.281 306.767 608.281 303.342V299.15Z" stroke="white" stroke-opacity="0.9" stroke-width="2"/>
<path d="M589.074 238.057C589.074 236.4 590.417 235.057 592.074 235.057H598.479C600.136 235.057 601.479 236.4 601.479 238.057V242.248C601.479 245.673 598.702 248.45 595.277 248.45C591.851 248.45 589.074 245.673 589.074 242.248V238.057Z" stroke="white" stroke-opacity="0.9" stroke-width="2"/>
<path d="M609.24 238.057C609.24 236.4 610.583 235.057 612.24 235.057H618.645C620.302 235.057 621.645 236.4 621.645 238.057V242.248C621.645 245.673 618.868 248.45 615.443 248.45C612.017 248.45 609.24 245.673 609.24 242.248V238.057Z" stroke="white" stroke-opacity="0.9" stroke-width="2"/>
<path d="M588.594 188.988C588.594 187.331 589.937 185.988 591.594 185.988H597.999C599.656 185.988 600.999 187.331 600.999 188.988V193.18C600.999 196.605 598.222 199.382 594.796 199.382C591.371 199.382 588.594 196.605 588.594 193.18V188.988Z" stroke="white" stroke-opacity="0.9" stroke-width="2"/>
<path d="M609.24 188.988C609.24 187.331 610.583 185.988 612.24 185.988H618.645C620.302 185.988 621.645 187.331 621.645 188.988V193.18C621.645 196.605 618.868 199.382 615.443 199.382C612.017 199.382 609.24 196.605 609.24 193.18V188.988Z" stroke="white" stroke-opacity="0.9" stroke-width="2"/>
<rect x="257.279" y="183.584" width="20.0876" height="20.6096" rx="3" stroke="white" stroke-opacity="0.9" stroke-width="2"/>
<rect x="257.279" y="211.967" width="301.944" height="102.87" rx="3" stroke="white" stroke-opacity="0.9" stroke-width="2"/>
<rect x="565.066" y="211.967" width="60.4214" height="42.2571" rx="3" stroke="white" stroke-opacity="0.9" stroke-width="2"/>
<path d="M564.586 297.217C564.586 295.561 565.929 294.217 567.586 294.217H580.473C583.235 294.217 585.473 291.979 585.473 289.217V275.338C585.473 273.681 586.816 272.338 588.473 272.338H601.12C602.777 272.338 604.12 273.681 604.12 275.338V289.217C604.12 291.979 606.359 294.217 609.12 294.217H622.007C623.664 294.217 625.007 295.561 625.007 297.217V311.354C625.007 313.011 623.664 314.354 622.007 314.354H567.586C565.929 314.354 564.586 313.011 564.586 311.354V297.217Z" stroke="white" stroke-opacity="0.9" stroke-width="2"/>
<rect x="298.094" y="183.584" width="80.1082" height="20.6096" rx="3" stroke="white" stroke-opacity="0.9" stroke-width="2"/>
<rect x="388.365" y="183.584" width="80.1082" height="20.6096" rx="3" stroke="white" stroke-opacity="0.9" stroke-width="2"/>
<rect x="478.637" y="183.584" width="80.1082" height="20.6096" rx="3" stroke="white" stroke-opacity="0.9" stroke-width="2"/>
<rect x="565.066" y="183.584" width="59.9413" height="20.6096" rx="3" stroke="white" stroke-opacity="0.9" stroke-width="2"/>
</g>
<g clip-path="url(#clip10_293_25839)">
<path d="M340.863 59.7818C340.863 57.5727 342.654 55.7818 344.863 55.7818H346.643C349.957 55.7818 352.643 53.0955 352.643 49.7818V47.9551C352.643 45.7459 354.434 43.9551 356.643 43.9551H358.536C360.745 43.9551 362.536 45.7459 362.536 47.9551V49.7818C362.536 53.0955 365.222 55.7818 368.536 55.7818H370.202C372.411 55.7818 374.202 57.5727 374.202 59.7818V61.815C374.202 64.0242 372.411 65.815 370.202 65.815H368.422C365.109 65.815 362.422 68.5013 362.422 71.815V73.6035C362.422 75.8126 360.631 77.6035 358.422 77.6035H356.643C354.434 77.6035 352.643 75.8126 352.643 73.6035V72.0598C352.643 68.7461 349.957 66.0598 346.643 66.0598H344.863C342.654 66.0598 340.863 64.269 340.863 62.0598V59.7818Z" stroke="white" stroke-opacity="0.9" stroke-width="2"/>
<path d="M457.564 14.9778C457.564 18.6584 454.567 21.649 450.862 21.649C447.157 21.649 444.16 18.6584 444.16 14.9778C444.16 11.2972 447.157 8.30664 450.862 8.30664C454.567 8.30664 457.564 11.2972 457.564 14.9778Z" stroke="white" stroke-opacity="0.9" stroke-width="2"/>
<path d="M440.347 30.3216C440.347 34.0022 437.351 36.9927 433.645 36.9927C429.94 36.9927 426.943 34.0022 426.943 30.3216C426.943 26.641 429.94 23.6504 433.645 23.6504C437.351 23.6504 440.347 26.641 440.347 30.3216Z" stroke="white" stroke-opacity="0.9" stroke-width="2"/>
<path d="M423.584 13.1727C423.584 15.358 421.805 17.1364 419.601 17.1364C417.397 17.1364 415.617 15.358 415.617 13.1727C415.617 10.9874 417.397 9.20898 419.601 9.20898C421.805 9.20898 423.584 10.9874 423.584 13.1727Z" stroke="white" stroke-opacity="0.9" stroke-width="2"/>
<path d="M411.805 30.3211C411.805 32.5064 410.025 34.2848 407.822 34.2848C405.618 34.2848 403.838 32.5064 403.838 30.3211C403.838 28.1358 405.618 26.3574 407.822 26.3574C410.025 26.3574 411.805 28.1358 411.805 30.3211Z" stroke="white" stroke-opacity="0.9" stroke-width="2"/>
<path d="M368.764 13.1727C368.764 15.358 366.984 17.1364 364.781 17.1364C362.577 17.1364 360.797 15.358 360.797 13.1727C360.797 10.9874 362.577 9.20898 364.781 9.20898C366.984 9.20898 368.764 10.9874 368.764 13.1727Z" stroke="white" stroke-opacity="0.9" stroke-width="2"/>
<path d="M378.278 30.0952C378.278 31.159 377.411 32.0283 376.334 32.0283C375.256 32.0283 374.389 31.159 374.389 30.0952C374.389 29.0314 375.256 28.1621 376.334 28.1621C377.411 28.1621 378.278 29.0314 378.278 30.0952Z" stroke="white" stroke-opacity="0.9" stroke-width="2"/>
<path d="M338.41 30.3217C338.41 34.5007 335.007 37.8954 330.801 37.8954C326.596 37.8954 323.193 34.5007 323.193 30.3217C323.193 26.1427 326.596 22.748 330.801 22.748C335.007 22.748 338.41 26.1427 338.41 30.3217Z" stroke="white" stroke-opacity="0.9" stroke-width="2"/>
<path d="M429.021 61.4565C429.021 65.6355 425.618 69.0301 421.413 69.0301C417.207 69.0301 413.805 65.6355 413.805 61.4565C413.805 57.2774 417.207 53.8828 421.413 53.8828C425.618 53.8828 429.021 57.2774 429.021 61.4565Z" stroke="white" stroke-opacity="0.9" stroke-width="2"/>
<path d="M342.941 30.3205C342.941 36.9917 337.511 42.4066 330.803 42.4066C324.095 42.4066 318.664 36.9917 318.664 30.3205C318.664 23.6493 324.095 18.2344 330.803 18.2344C337.511 18.2344 342.941 23.6493 342.941 30.3205Z" stroke="white" stroke-opacity="0.9" stroke-width="2"/>
<path d="M433.553 61.4572C433.553 68.1284 428.122 73.5433 421.414 73.5433C414.706 73.5433 409.275 68.1284 409.275 61.4572C409.275 54.786 414.706 49.3711 421.414 49.3711C428.122 49.3711 433.553 54.786 433.553 61.4572Z" stroke="white" stroke-opacity="0.9" stroke-width="2"/>
<path d="M350.642 30.3217C350.642 41.2296 341.763 50.079 330.802 50.079C319.84 50.079 310.961 41.2296 310.961 30.3217C310.961 19.4139 319.84 10.5645 330.802 10.5645C341.763 10.5645 350.642 19.4139 350.642 30.3217Z" stroke="white" stroke-opacity="0.9" stroke-width="2"/>
<path d="M441.254 61.4565C441.254 72.3644 432.374 81.2138 421.413 81.2138C410.451 81.2138 401.572 72.3644 401.572 61.4565C401.572 50.5486 410.451 41.6992 421.413 41.6992C432.374 41.6992 441.254 50.5486 441.254 61.4565Z" stroke="white" stroke-opacity="0.9" stroke-width="2"/>
<path d="M457.564 45.2122C457.564 48.8928 454.567 51.8834 450.862 51.8834C447.157 51.8834 444.16 48.8928 444.16 45.2122C444.16 41.5316 447.157 38.541 450.862 38.541C454.567 38.541 457.564 41.5316 457.564 45.2122Z" stroke="white" stroke-opacity="0.9" stroke-width="2"/>
<path d="M474.781 30.3216C474.781 34.0022 471.784 36.9927 468.079 36.9927C464.374 36.9927 461.377 34.0022 461.377 30.3216C461.377 26.641 464.374 23.6504 468.079 23.6504C471.784 23.6504 474.781 26.641 474.781 30.3216Z" stroke="white" stroke-opacity="0.9" stroke-width="2"/>
<path d="M385.264 3.72551C385.264 0.614689 387.537 -1.96522 390.513 -2.44385V10.2881C387.537 9.80944 385.264 7.22953 385.264 4.11871V3.72551Z" stroke="white" stroke-opacity="0.9" stroke-width="2"/>
<path d="M399.119 3.72551C399.119 0.614687 396.846 -1.96522 393.87 -2.44385V10.2881C396.846 9.80944 399.119 7.22953 399.119 4.11871V3.72551Z" stroke="white" stroke-opacity="0.9" stroke-width="2"/>
<rect x="373.029" y="26.8086" width="6.60812" height="6.57366" rx="3" stroke="white" stroke-opacity="0.9" stroke-width="2"/>
<path d="M392.191 -11.645C392.191 -11.645 357.306 -12.3228 337.145 -8.93845C322.755 -5.41411 308.375 -1.67208 301.806 4.82453C289.347 20.6181 280.897 101.384 282.778 120.118C283.364 125.954 286.113 129.381 290.933 132.753C296.779 136.842 304.567 139.096 310.414 135.009C323.326 125.984 333.424 92.4844 340.316 92.1415L392.191 92.1415" stroke="white" stroke-opacity="0.9" stroke-width="2"/>
<path d="M392.047 -11.645C392.047 -11.645 426.932 -12.3228 447.094 -8.93845C461.483 -5.41411 475.863 -1.67208 482.432 4.82453C494.891 20.6181 503.342 101.384 501.461 120.118C500.875 125.954 498.125 129.381 493.306 132.753C487.46 136.842 479.672 139.096 473.824 135.009C460.912 125.984 450.814 92.4844 443.922 92.1415L392.047 92.1415" stroke="white" stroke-opacity="0.9" stroke-width="2"/>
<path d="M292.518 30.0953C292.518 30.0953 305.073 51.5351 313.585 63.2618C322.233 75.1757 338.277 92.8183 338.277 92.8183" stroke="white" stroke-opacity="0.9" stroke-width="2"/>
<path d="M491.683 30.0953C491.683 30.0953 479.128 51.5351 470.616 63.2618C461.968 75.1757 445.924 92.8183 445.924 92.8183" stroke="white" stroke-opacity="0.9" stroke-width="2"/>
<path d="M305.656 1.66678L308.767 -3.06164C309.559 -4.26706 310.488 -5.37736 311.629 -6.2634C314.265 -8.31004 319.809 -12.0695 326.723 -13.6756C333.581 -15.2684 343.452 -15.7725 346.577 -15.897C347.232 -15.9231 347.876 -15.7987 348.478 -15.5417L358.664 -11.1937" stroke="white" stroke-opacity="0.9" stroke-width="2" stroke-linecap="round"/>
<path d="M478.176 1.66678L475.066 -3.06164C474.273 -4.26706 473.344 -5.37736 472.203 -6.2634C469.567 -8.31004 464.023 -12.0695 457.109 -13.6756C450.251 -15.2684 440.38 -15.7725 437.255 -15.897C436.601 -15.9231 435.956 -15.7987 435.354 -15.5417L425.168 -11.1937" stroke="white" stroke-opacity="0.9" stroke-width="2" stroke-linecap="round"/>
</g>
<path d="M700.203 191.808C700.203 191.808 695.033 191.579 688.215 196.396C681.397 201.212 673.836 209.712 675.637 219.561C677.98 232.375 678.072 231.737 681.299 237.681C684.672 243.895 691.778 248.644 693.857 249.942C694.244 250.183 694.62 250.436 694.981 250.716L703.892 257.635" stroke="white" stroke-opacity="0.9" stroke-width="2"/>
<path d="M872.646 190.66C872.646 190.66 881.567 191.578 888.385 196.394C895.202 201.211 902.764 209.71 900.963 219.56C898.62 232.374 898.527 231.736 895.301 237.68C891.927 243.894 884.822 248.642 882.743 249.94C882.356 250.182 881.979 250.435 881.619 250.715L872.708 257.634" stroke="white" stroke-opacity="0.9" stroke-width="2"/>
<path d="M813.55 206.257C813.55 208.234 811.938 209.844 809.939 209.844C807.94 209.844 806.328 208.234 806.328 206.257C806.328 204.281 807.94 202.67 809.939 202.67C811.938 202.67 813.55 204.281 813.55 206.257Z" stroke="white" stroke-opacity="0.9" stroke-width="2"/>
<path d="M732.995 184.169C732.995 184.169 732.995 184.17 732.995 184.172L732.995 184.169ZM732.675 183.919C732.908 184.054 732.976 184.15 732.993 184.182C732.986 184.218 732.947 184.329 732.761 184.523C732.495 184.799 732.038 185.123 731.372 185.452C730.051 186.107 728.116 186.685 725.886 186.997C723.656 187.309 721.635 187.284 720.184 187.017C719.453 186.882 718.924 186.697 718.592 186.504C718.359 186.369 718.291 186.273 718.274 186.24C718.282 186.205 718.32 186.094 718.506 185.9C718.772 185.624 719.23 185.3 719.895 184.97C721.216 184.316 723.151 183.738 725.381 183.426C727.611 183.114 729.632 183.139 731.083 183.406C731.814 183.54 732.344 183.726 732.675 183.919ZM718.268 186.229C718.268 186.229 718.269 186.229 718.269 186.231L718.268 186.229ZM718.272 186.253C718.272 186.253 718.272 186.253 718.272 186.251L718.272 186.253ZM732.998 184.192C732.999 184.193 732.999 184.194 732.999 184.194L732.998 184.192Z" stroke="white" stroke-opacity="0.9" stroke-width="2"/>
<path d="M715.388 189.435C715.388 189.435 715.388 189.436 715.388 189.437L715.388 189.435ZM715.068 189.184C715.301 189.32 715.369 189.416 715.386 189.448C715.378 189.484 715.339 189.595 715.153 189.788C714.888 190.065 714.43 190.388 713.765 190.718C712.444 191.372 710.508 191.951 708.278 192.263C706.048 192.574 704.028 192.549 702.577 192.282C701.846 192.148 701.316 191.962 700.984 191.769C700.752 191.634 700.684 191.538 700.666 191.506C700.674 191.47 700.713 191.359 700.899 191.166C701.165 190.889 701.622 190.566 702.288 190.236C703.609 189.582 705.544 189.003 707.774 188.691C710.004 188.38 712.024 188.405 713.476 188.672C714.207 188.806 714.736 188.992 715.068 189.184ZM700.661 191.494C700.661 191.494 700.661 191.495 700.662 191.496L700.661 191.494ZM700.665 191.519C700.664 191.519 700.664 191.518 700.665 191.517L700.665 191.519ZM715.391 189.458C715.391 189.459 715.391 189.46 715.391 189.46L715.391 189.458Z" stroke="white" stroke-opacity="0.9" stroke-width="2"/>
<path d="M731.985 190.351C731.985 190.351 731.985 190.352 731.985 190.353L731.985 190.351ZM731.666 190.101C731.898 190.236 731.966 190.332 731.984 190.364C731.976 190.4 731.937 190.511 731.751 190.704C731.485 190.981 731.028 191.304 730.362 191.634C729.041 192.288 727.106 192.867 724.876 193.179C722.646 193.49 720.626 193.465 719.174 193.198C718.443 193.064 717.914 192.878 717.582 192.686C717.349 192.55 717.281 192.454 717.264 192.422C717.272 192.386 717.311 192.275 717.497 192.082C717.762 191.805 718.22 191.482 718.885 191.152C720.206 190.498 722.142 189.919 724.372 189.607C726.602 189.296 728.622 189.321 730.073 189.588C730.804 189.722 731.334 189.908 731.666 190.101ZM717.259 192.41C717.259 192.41 717.259 192.411 717.259 192.412L717.259 192.41ZM717.262 192.435C717.262 192.435 717.262 192.434 717.262 192.433L717.262 192.435ZM731.988 190.374C731.989 190.375 731.989 190.376 731.989 190.376L731.988 190.374Z" stroke="white" stroke-opacity="0.9" stroke-width="2"/>
<path d="M748.585 185.765C748.585 185.765 748.585 185.766 748.585 185.767L748.585 185.765ZM748.265 185.515C748.498 185.65 748.566 185.746 748.583 185.778C748.575 185.814 748.537 185.925 748.351 186.118C748.085 186.395 747.627 186.718 746.962 187.048C745.641 187.702 743.706 188.281 741.476 188.593C739.246 188.904 737.225 188.879 735.774 188.612C735.043 188.478 734.513 188.292 734.182 188.1C733.949 187.964 733.881 187.868 733.864 187.836C733.871 187.8 733.91 187.689 734.096 187.496C734.362 187.219 734.819 186.896 735.485 186.566C736.806 185.912 738.741 185.333 740.971 185.021C743.201 184.71 745.222 184.735 746.673 185.002C747.404 185.136 747.933 185.322 748.265 185.515ZM733.858 187.824C733.858 187.824 733.859 187.825 733.859 187.826L733.858 187.824ZM733.862 187.849C733.862 187.849 733.862 187.848 733.862 187.847L733.862 187.849ZM748.588 185.788C748.588 185.789 748.589 185.79 748.589 185.79L748.588 185.788Z" stroke="white" stroke-opacity="0.9" stroke-width="2"/>
<path d="M711.96 187.91L715.886 186.706L718.185 186.304" stroke="white" stroke-opacity="0.9" stroke-width="2"/>
<path d="M733.401 184.009C739.395 183.092 737.335 180.808 742.021 178.711C746.707 176.614 751.627 177.08 751.627 177.08" stroke="white" stroke-opacity="0.9" stroke-width="2"/>
<path d="M845.687 183.504C845.687 183.504 842.291 183.29 837.604 185.387" stroke="white" stroke-opacity="0.9" stroke-width="2"/>
<path d="M780.252 182.876C780.252 182.876 777.464 182.759 774.042 179.813C773.295 179.17 772.496 178.57 771.564 178.247C767.301 176.769 763.097 177.08 763.097 177.08" stroke="white" stroke-opacity="0.9" stroke-width="2"/>
<path d="M873.107 191.12C873.107 191.12 872.37 187.689 867.684 185.592C862.998 183.495 858.078 183.961 858.078 183.961" stroke="white" stroke-opacity="0.9" stroke-width="2"/>
<path d="M741.873 227.451C741.878 225.797 743.219 224.459 744.873 224.459H830.323C831.976 224.459 833.318 225.797 833.323 227.451L833.365 242.991C833.369 244.651 832.025 245.999 830.365 245.999H744.831C743.171 245.999 741.827 244.651 741.831 242.991L741.873 227.451Z" stroke="white" stroke-opacity="0.9" stroke-width="2"/>
<path d="M742.723 178.479C742.723 178.479 735.928 181.507 757.484 181.274C779.04 181.041 772.714 178.711 772.714 178.711" stroke="white" stroke-opacity="0.9" stroke-width="2"/>
<path d="M837.705 185.359C837.705 185.359 830.911 188.388 852.466 188.155C874.022 187.922 867.696 185.592 867.696 185.592" stroke="white" stroke-opacity="0.9" stroke-width="2"/>
<path d="M769.856 169.304C769.962 170.11 769.745 170.629 769.326 171.036C768.854 171.496 768.045 171.886 766.848 172.177C764.454 172.76 761.038 172.833 757.258 172.833C753.477 172.833 750.061 172.76 747.667 172.177C746.47 171.886 745.661 171.496 745.189 171.036C744.77 170.629 744.553 170.11 744.659 169.304C744.809 168.172 745.805 167.191 748.112 166.491C750.37 165.806 753.534 165.514 757.258 165.514C760.981 165.514 764.145 165.806 766.404 166.491C768.71 167.191 769.706 168.172 769.856 169.304Z" stroke="white" stroke-opacity="0.9" stroke-width="2"/>
<path d="M748.785 165.926C748.785 165.926 752.38 168.023 757.488 168.023C762.597 168.023 766.191 165.926 766.191 165.926" stroke="white" stroke-opacity="0.9" stroke-width="2"/>
<path d="M751.166 173.367V174.41C751.166 177.172 753.405 179.41 756.166 179.41H758.342C761.104 179.41 763.342 177.172 763.342 174.41V173.367" stroke="white" stroke-opacity="0.9" stroke-width="2"/>
<path d="M839.183 175.653C839.069 176.575 839.307 177.176 839.748 177.634C840.234 178.139 841.058 178.56 842.268 178.874C844.696 179.505 848.165 179.584 852.01 179.584C855.855 179.584 859.323 179.505 861.752 178.874C862.962 178.56 863.786 178.139 864.272 177.634C864.713 177.176 864.951 176.575 864.837 175.653C864.675 174.348 863.614 173.284 861.298 172.535C859.007 171.794 855.794 171.477 852.01 171.477C848.226 171.477 845.013 171.794 842.722 172.535C840.406 173.284 839.345 174.348 839.183 175.653Z" stroke="white" stroke-opacity="0.9" stroke-width="2"/>
<path d="M860.625 172.01C860.625 172.01 856.969 174.284 851.775 174.284C846.58 174.284 842.924 172.01 842.924 172.01" stroke="white" stroke-opacity="0.9" stroke-width="2"/>
<path d="M858.203 180.08V182.668C858.203 185.43 855.965 187.668 853.203 187.668H850.821C848.06 187.668 845.821 185.43 845.821 182.668V180.08" stroke="white" stroke-opacity="0.9" stroke-width="2"/>
<path d="M804.484 183.206C804.484 183.782 804.929 184.26 805.503 184.303L815.086 185.009C815.87 185.067 816.624 185.338 817.266 185.794L816.694 186.598L817.266 185.794C817.656 186.071 818.124 186.221 818.603 186.221H827.171C827.497 186.221 827.806 186.076 828.016 185.826L828.778 186.465L828.016 185.826C828.512 185.234 829.211 184.848 829.977 184.744L836.255 183.892C836.88 183.808 837.186 183.084 836.812 182.577C836.617 182.313 836.286 182.188 835.966 182.258L828.986 183.783C827.735 184.056 826.485 183.321 826.115 182.095C826.059 181.908 825.889 181.778 825.693 181.774L818.207 181.601C817.754 181.59 817.335 181.842 817.132 182.247C816.475 183.553 815.011 184.242 813.586 183.915L805.83 182.134C805.141 181.976 804.484 182.499 804.484 183.206Z" stroke="white" stroke-opacity="0.9" stroke-width="2"/>
<path d="M731.753 201.804L731.784 201.801L731.814 201.796L741.341 200.156C745.602 199.422 749.781 201.821 751.297 205.87L754.667 214.873C755.686 217.595 753.553 220.461 750.653 220.266L739.154 219.494C736.427 219.31 733.744 220.25 731.727 222.095C730.193 223.498 728.173 224.25 726.094 224.191L715.272 223.883C714.142 223.85 713.028 223.606 711.988 223.161L699.262 217.715C698.524 217.399 698.142 216.577 698.378 215.809C700.368 209.319 706.028 204.634 712.775 203.892L731.753 201.804Z" stroke="white" stroke-opacity="0.9" stroke-width="2"/>
<path d="M844.553 201.804L844.523 201.801L844.493 201.796L834.965 200.156C830.705 199.422 826.525 201.821 825.01 205.87L821.64 214.873C820.62 217.595 822.754 220.461 825.654 220.266L837.153 219.494C839.88 219.31 842.563 220.25 844.579 222.095C846.114 223.498 848.134 224.25 850.213 224.191L861.034 223.883C862.165 223.85 863.279 223.606 864.319 223.161L877.044 217.715C877.783 217.399 878.164 216.577 877.929 215.809C875.939 209.319 870.279 204.634 863.531 203.892L844.553 201.804Z" stroke="white" stroke-opacity="0.9" stroke-width="2"/>
<path d="M702.759 253.458C703.791 258.413 707.906 262.132 712.939 262.66C719.382 263.335 725.136 258.619 725.739 252.169L727.164 236.929C727.577 232.517 724.179 228.672 719.75 228.538L717.854 228.481C715.027 228.396 712.247 227.741 709.68 226.555L701.233 222.653C698.996 221.62 696.536 223.576 697.038 225.989L702.759 253.458Z" stroke="white" stroke-opacity="0.9" stroke-width="2"/>
<path d="M873.778 253.458C872.746 258.413 868.631 262.132 863.598 262.66C857.155 263.335 851.401 258.619 850.798 252.169L849.373 236.929C848.961 232.517 852.358 228.672 856.788 228.538L858.683 228.481C861.51 228.396 864.29 227.741 866.857 226.555L875.304 222.653C877.541 221.62 880.001 223.576 879.499 225.989L873.778 253.458Z" stroke="white" stroke-opacity="0.9" stroke-width="2"/>
<path d="M675.766 214.973H684.302C685.192 214.973 686.077 215.091 686.935 215.326L692.364 216.808" stroke="white" stroke-opacity="0.9" stroke-width="2"/>
<path d="M699.101 253.736C699.101 253.736 693.756 231.946 692.594 218.414C692.222 214.071 697.01 203.964 706.537 200.753C716.064 197.542 750.921 195.248 750.921 195.248" stroke="white" stroke-opacity="0.9" stroke-width="2"/>
<path d="M877.645 253.736C877.645 253.736 882.99 231.946 884.152 218.414C884.524 214.071 879.737 203.964 870.21 200.753C860.682 197.542 825.827 195.248 825.827 195.248" stroke="white" stroke-opacity="0.9" stroke-width="2"/>
<path d="M901.232 214.973H892.696C891.806 214.973 890.921 215.091 890.063 215.326L884.634 216.808" stroke="white" stroke-opacity="0.9" stroke-width="2"/>
<rect x="765.903" y="186.762" width="9.68967" height="1.37617" rx="0.688087" stroke="white" stroke-opacity="0.9" stroke-width="1.37617"/>
<rect x="782.814" y="216.891" width="9.988" height="2.12853" rx="1.06427" stroke="white" stroke-opacity="0.9" stroke-width="2"/>
<rect x="801.405" y="186.762" width="9.68969" height="1.37617" rx="0.688087" stroke="white" stroke-opacity="0.9" stroke-width="1.37617"/>
<path d="M837.289 183.346L839.449 184.699" stroke="white" stroke-opacity="0.9" stroke-width="2"/>
<path d="M780.125 182.867H803.945" stroke="white" stroke-opacity="0.9" stroke-width="2"/>
<path d="M795.052 194.083C795.831 194.231 796.445 194.396 796.886 194.56C796.445 194.725 795.831 194.889 795.052 195.038C793.17 195.396 790.526 195.625 787.577 195.625C784.628 195.625 781.985 195.396 780.103 195.038C779.324 194.889 778.71 194.725 778.269 194.56C778.71 194.396 779.324 194.231 780.103 194.083C781.985 193.724 784.628 193.496 787.577 193.496C790.526 193.496 793.17 193.724 795.052 194.083Z" stroke="white" stroke-opacity="0.9" stroke-width="2"/>
<path d="M759.507 192.629C761.264 191.988 763.12 191.66 764.991 191.66H811.545C813.416 191.66 815.272 191.988 817.029 192.629L825.295 195.645C825.689 195.788 825.757 196.315 825.414 196.555C824.14 197.442 822.625 197.917 821.073 197.917H755.065C753.772 197.917 752.51 197.521 751.449 196.782C750.968 196.447 751.064 195.709 751.615 195.508L759.507 192.629Z" stroke="white" stroke-opacity="0.9" stroke-width="2"/>
<path d="M714.241 263.216C714.241 263.216 727.638 267.038 729.943 259.011C734.009 244.853 741.47 245.937 741.47 245.937" stroke="white" stroke-opacity="0.9" stroke-width="2"/>
<path d="M861.124 263.216C861.124 263.216 847.728 267.038 845.422 259.011C841.357 244.853 833.895 245.937 833.895 245.937" stroke="white" stroke-opacity="0.9" stroke-width="2"/>
<g clip-path="url(#clip11_293_25839)">
<path d="M1086.82 295V295.404H1086.02L1086.02 295C1086.02 293.896 1085.13 293 1084.02 293H1083.63L1083.63 292.196H1084.02C1085.13 292.196 1086.02 291.301 1086.02 290.196V289.793L1086.82 289.793V290.196C1086.82 291.301 1087.72 292.196 1088.82 292.196H1089.22V293H1088.82C1087.72 293 1086.82 293.896 1086.82 295Z" stroke="white" stroke-opacity="0.9" stroke-width="2"/>
<path d="M1072.94 290.594C1072.97 291.626 1073.8 292.462 1074.83 292.49V292.706C1073.8 292.734 1072.97 293.57 1072.94 294.602H1072.73C1072.71 293.57 1071.87 292.734 1070.84 292.706V292.49C1071.87 292.462 1072.71 291.626 1072.73 290.594H1072.94Z" stroke="white" stroke-opacity="0.9" stroke-width="2"/>
<path d="M1105.6 303.274C1105.6 305.6 1103.72 307.481 1101.41 307.481C1099.09 307.481 1097.21 305.6 1097.21 303.274C1097.21 300.948 1099.09 299.066 1101.41 299.066C1103.72 299.066 1105.6 300.948 1105.6 303.274Z" stroke="white" stroke-opacity="0.9" stroke-width="2"/>
<path d="M1114.79 313.688C1114.79 316.014 1112.91 317.895 1110.6 317.895C1108.28 317.895 1106.4 316.014 1106.4 313.688C1106.4 311.362 1108.28 309.48 1110.6 309.48C1112.91 309.48 1114.79 311.362 1114.79 313.688Z" stroke="white" stroke-opacity="0.9" stroke-width="2"/>
<path d="M1105.6 323.303C1105.6 325.629 1103.72 327.511 1101.41 327.511C1099.09 327.511 1097.21 325.629 1097.21 323.303C1097.21 320.977 1099.09 319.096 1101.41 319.096C1103.72 319.096 1105.6 320.977 1105.6 323.303Z" stroke="white" stroke-opacity="0.9" stroke-width="2"/>
<path d="M1096.01 313.688C1096.01 316.014 1094.13 317.895 1091.82 317.895C1089.5 317.895 1087.62 316.014 1087.62 313.688C1087.62 311.362 1089.5 309.48 1091.82 309.48C1094.13 309.48 1096.01 311.362 1096.01 313.688Z" stroke="white" stroke-opacity="0.9" stroke-width="2"/>
<path d="M1111.99 351.343C1111.99 357.43 1107.07 362.361 1101.01 362.361C1094.94 362.361 1090.02 357.43 1090.02 351.343C1090.02 345.256 1094.94 340.326 1101.01 340.326C1107.07 340.326 1111.99 345.256 1111.99 351.343Z" stroke="white" stroke-opacity="0.9" stroke-width="2"/>
<path d="M1097.21 374.977C1097.21 377.303 1095.33 379.184 1093.02 379.184C1090.7 379.184 1088.82 377.303 1088.82 374.977C1088.82 372.651 1090.7 370.77 1093.02 370.77C1095.33 370.77 1097.21 372.651 1097.21 374.977Z" stroke="white" stroke-opacity="0.9" stroke-width="2"/>
<path d="M1079.23 280.251C1104.04 280.783 1123.98 301.058 1123.98 325.992V367.082C1123.98 392.016 1104.04 412.291 1079.23 412.823V280.251Z" stroke="white" stroke-opacity="0.9" stroke-width="2"/>
<path d="M1122.53 295.887L1122.99 295.695C1123.58 295.452 1123.86 294.802 1123.58 294.233C1122.51 292.04 1119.28 286.682 1111.44 281.442C1105.79 277.945 1094.82 277.91 1091.29 277.997C1090.65 278.013 1090.16 278.537 1090.16 279.175V279.44" stroke="white" stroke-opacity="0.9" stroke-width="2"/>
<path d="M1078.23 279.578V279.578C1069.63 279.578 1062.65 286.555 1062.65 295.162V401.493C1062.65 408.021 1068 413.284 1074.52 413.178V413.178C1074.81 413.174 1075.04 412.943 1075.04 412.659V411.559C1075.04 409.684 1076.56 408.163 1078.43 408.163V408.163" stroke="white" stroke-opacity="0.9" stroke-width="2"/>
<path d="M1062.25 306.018V306.018C1060.7 306.018 1059.45 307.27 1059.45 308.815V322.048C1059.45 323.592 1060.7 324.845 1062.25 324.845V324.845" stroke="white" stroke-opacity="0.9" stroke-width="2"/>
<path d="M1062.25 359.693V359.693C1060.7 359.693 1059.45 360.946 1059.45 362.49V375.723C1059.45 377.268 1060.7 378.52 1062.25 378.52V378.52" stroke="white" stroke-opacity="0.9" stroke-width="2"/>
<path d="M1151.95 381.727C1151.95 385.822 1148.64 389.139 1144.56 389.139C1140.48 389.139 1137.17 385.822 1137.17 381.727C1137.17 377.631 1140.48 374.314 1144.56 374.314C1148.64 374.314 1151.95 377.631 1151.95 381.727Z" stroke="white" stroke-opacity="0.9" stroke-width="2"/>
<path d="M1138.57 437.406L1137.57 437.394V437.406H1138.57ZM1140.17 387.346C1140.18 386.794 1139.73 386.341 1139.18 386.334C1138.63 386.327 1138.18 386.77 1138.17 387.322L1140.17 387.346ZM1143.17 389.337C1143.17 388.785 1142.72 388.337 1142.17 388.337C1141.61 388.337 1141.17 388.785 1141.17 389.337H1143.17ZM1147.96 389.737C1147.96 389.185 1147.51 388.737 1146.96 388.737C1146.41 388.737 1145.96 389.185 1145.96 389.737H1147.96ZM1151.16 387.84C1151.16 387.287 1150.71 386.84 1150.16 386.84C1149.61 386.84 1149.16 387.287 1149.16 387.84H1151.16ZM1137.57 437.406C1137.57 445.016 1132.4 452.063 1125.05 457.267C1117.72 462.458 1108.43 465.648 1100.61 465.648V467.648C1108.9 467.648 1118.59 464.292 1126.21 458.899C1133.81 453.519 1139.57 445.946 1139.57 437.406H1137.57ZM1100.61 465.648C1085.05 465.648 1072.44 453.006 1072.44 437.406H1070.44C1070.44 454.106 1083.94 467.648 1100.61 467.648V465.648ZM1139.57 437.418L1140.17 387.346L1138.17 387.322L1137.57 437.394L1139.57 437.418ZM1072.44 437.406V412.971H1070.44V437.406H1072.44ZM1141.17 437.406C1141.17 445.885 1135.02 454.035 1126.4 460.134C1117.8 466.213 1107.01 470.054 1098.21 470.054V472.054C1107.51 472.054 1118.69 468.031 1127.55 461.766C1136.38 455.521 1143.17 446.847 1143.17 437.406H1141.17ZM1143.17 437.406V389.337H1141.17V437.406H1143.17ZM1145.96 438.007C1145.96 447.562 1138.62 456.562 1128.79 462.788C1118.98 469.003 1107.06 472.209 1098.41 470.474L1098.01 472.435C1107.35 474.306 1119.8 470.854 1129.86 464.477C1139.92 458.11 1147.96 448.583 1147.96 438.007H1145.96ZM1147.96 438.007V389.737H1145.96V438.007H1147.96ZM1149.16 437.406C1149.16 447.587 1142.58 456.941 1133.69 463.806C1124.8 470.668 1113.82 474.861 1105.4 474.861V476.861C1114.37 476.861 1125.77 472.446 1134.91 465.39C1144.05 458.337 1151.16 448.463 1151.16 437.406H1149.16ZM1105.4 474.861C1085 474.861 1068.44 458.104 1068.44 437.406H1066.44C1066.44 459.184 1083.87 476.861 1105.4 476.861V474.861ZM1151.16 437.406V387.84H1149.16V437.406H1151.16ZM1068.44 437.406V411.168H1066.44V437.406H1068.44Z" fill="white" fill-opacity="0.9"/>
<path d="M1146.96 373.914L1150.56 309.021C1150.56 304.375 1147.69 300.408 1144.16 300.408C1140.63 300.408 1137.77 304.174 1137.77 308.82L1142.16 373.914" stroke="white" stroke-opacity="0.9" stroke-width="2" stroke-linecap="round"/>
<path d="M1138.97 376.117L1134.17 308.821C1134.17 301.52 1138.65 295.602 1144.16 295.602C1149.68 295.602 1154.15 301.52 1154.15 308.821L1150.36 375.717" stroke="white" stroke-opacity="0.9" stroke-width="2" stroke-linecap="round"/>
</g>
<g clip-path="url(#clip12_293_25839)">
<rect x="694.51" y="292.51" width="315.238" height="138.845" rx="26" stroke="white" stroke-opacity="0.9" stroke-width="2"/>
<path d="M707.666 396.117C707.666 392.857 710.309 390.214 713.569 390.214H713.815C718.18 390.214 721.718 386.676 721.718 382.311V381.768C721.718 378.808 724.118 376.408 727.078 376.408C730.038 376.408 732.438 378.808 732.438 381.768V382.491C732.438 386.756 735.896 390.214 740.161 390.214C743.318 390.214 745.885 392.795 745.885 395.961C745.885 399.152 743.297 401.754 740.114 401.754H739.47C735.252 401.754 731.832 405.174 731.832 409.392V409.972C731.832 412.765 729.568 415.029 726.775 415.029C723.982 415.029 721.718 412.765 721.718 409.972V409.525C721.718 405.38 718.358 402.02 714.214 402.02H713.569C710.309 402.02 707.666 399.377 707.666 396.117Z" stroke="white" stroke-opacity="0.9" stroke-width="2"/>
<path d="M734.609 316.185C734.609 320.464 731.176 323.916 726.963 323.916C722.751 323.916 719.318 320.464 719.318 316.185C719.318 311.905 722.751 308.453 726.963 308.453C731.176 308.453 734.609 311.905 734.609 316.185Z" stroke="white" stroke-opacity="0.9" stroke-width="2"/>
<path d="M719.949 338.205C719.949 341.646 717.19 344.418 713.808 344.418C710.425 344.418 707.666 341.646 707.666 338.205C707.666 334.764 710.425 331.992 713.808 331.992C717.19 331.992 719.949 334.764 719.949 338.205Z" stroke="white" stroke-opacity="0.9" stroke-width="2"/>
<path d="M745.508 338.205C745.508 341.646 742.749 344.418 739.366 344.418C735.984 344.418 733.225 341.646 733.225 338.205C733.225 334.764 735.984 331.992 739.366 331.992C742.749 331.992 745.508 334.764 745.508 338.205Z" stroke="white" stroke-opacity="0.9" stroke-width="2"/>
<path d="M745.508 360.604C745.508 364.045 742.749 366.817 739.366 366.817C735.984 366.817 733.225 364.045 733.225 360.604C733.225 357.163 735.984 354.391 739.366 354.391C742.749 354.391 745.508 357.163 745.508 360.604Z" stroke="white" stroke-opacity="0.9" stroke-width="2"/>
<path d="M748.892 395.909C748.892 408.365 738.896 418.446 726.587 418.446C714.279 418.446 704.283 408.365 704.283 395.909C704.283 383.452 714.279 373.371 726.587 373.371C738.896 373.371 748.892 383.452 748.892 395.909Z" stroke="white" stroke-opacity="0.9" stroke-width="2"/>
<path d="M874.432 363.261C874.432 394.378 849.459 419.586 818.675 419.586C787.891 419.586 762.918 394.378 762.918 363.261C762.918 332.144 787.891 306.936 818.675 306.936C849.459 306.936 874.432 332.144 874.432 363.261Z" stroke="white" stroke-opacity="0.9" stroke-width="2"/>
<path d="M999.975 363.261C999.975 394.378 975.002 419.586 944.218 419.586C913.434 419.586 888.461 394.378 888.461 363.261C888.461 332.144 913.434 306.936 944.218 306.936C975.002 306.936 999.975 332.144 999.975 363.261Z" stroke="white" stroke-opacity="0.9" stroke-width="2"/>
<rect x="992.145" y="290.94" width="6.38611" height="0.379637" rx="0.189818" stroke="white" stroke-opacity="0.9" stroke-width="0.379637"/>
<rect x="725.653" y="356.997" width="2.61983" height="1.13891" rx="0.569456" stroke="white" stroke-opacity="0.9" stroke-width="1.13891"/>
<rect x="725.653" y="360.413" width="2.61983" height="1.13891" rx="0.569456" stroke="white" stroke-opacity="0.9" stroke-width="1.13891"/>
<rect x="725.653" y="363.829" width="2.61983" height="1.13891" rx="0.569456" stroke="white" stroke-opacity="0.9" stroke-width="1.13891"/>
<rect x="713.618" y="356.992" width="1.12762" height="1.1502" rx="0.563812" stroke="white" stroke-opacity="0.9" stroke-width="1.12762"/>
<rect x="707.041" y="297.197" width="1.5035" height="1.5336" rx="0.751749" stroke="white" stroke-opacity="0.9" stroke-width="1.5035"/>
<rect x="721.701" y="297.197" width="1.5035" height="1.5336" rx="0.751749" stroke="white" stroke-opacity="0.9" stroke-width="1.5035"/>
<rect x="736.359" y="297.197" width="1.5035" height="1.5336" rx="0.75175" stroke="white" stroke-opacity="0.9" stroke-width="1.5035"/>
<rect x="751.019" y="297.197" width="1.5035" height="1.5336" rx="0.751749" stroke="white" stroke-opacity="0.9" stroke-width="1.5035"/>
<rect x="765.678" y="297.197" width="1.5035" height="1.5336" rx="0.751749" stroke="white" stroke-opacity="0.9" stroke-width="1.5035"/>
<rect x="780.338" y="297.197" width="1.5035" height="1.5336" rx="0.751749" stroke="white" stroke-opacity="0.9" stroke-width="1.5035"/>
<rect x="794.996" y="297.197" width="1.5035" height="1.53359" rx="0.751751" stroke="white" stroke-opacity="0.9" stroke-width="1.5035"/>
<rect x="809.654" y="297.197" width="1.5035" height="1.53359" rx="0.751751" stroke="white" stroke-opacity="0.9" stroke-width="1.5035"/>
<rect x="824.314" y="297.197" width="1.50349" height="1.5336" rx="0.751747" stroke="white" stroke-opacity="0.9" stroke-width="1.50349"/>
<rect x="838.972" y="297.197" width="1.5035" height="1.53359" rx="0.751751" stroke="white" stroke-opacity="0.9" stroke-width="1.5035"/>
<rect x="853.633" y="297.197" width="1.50349" height="1.5336" rx="0.751747" stroke="white" stroke-opacity="0.9" stroke-width="1.50349"/>
<rect x="868.291" y="297.197" width="1.5035" height="1.53359" rx="0.751751" stroke="white" stroke-opacity="0.9" stroke-width="1.5035"/>
<rect x="882.951" y="297.197" width="1.50349" height="1.5336" rx="0.751747" stroke="white" stroke-opacity="0.9" stroke-width="1.50349"/>
<rect x="897.609" y="297.197" width="1.5035" height="1.53359" rx="0.751751" stroke="white" stroke-opacity="0.9" stroke-width="1.5035"/>
<rect x="912.269" y="297.197" width="1.50349" height="1.5336" rx="0.751747" stroke="white" stroke-opacity="0.9" stroke-width="1.50349"/>
<rect x="926.928" y="297.197" width="1.5035" height="1.53359" rx="0.751751" stroke="white" stroke-opacity="0.9" stroke-width="1.5035"/>
<rect x="941.588" y="297.197" width="1.5035" height="1.53359" rx="0.751751" stroke="white" stroke-opacity="0.9" stroke-width="1.5035"/>
<rect x="956.246" y="297.197" width="1.50349" height="1.5336" rx="0.751747" stroke="white" stroke-opacity="0.9" stroke-width="1.50349"/>
<rect x="970.906" y="297.197" width="1.50349" height="1.5336" rx="0.751747" stroke="white" stroke-opacity="0.9" stroke-width="1.50349"/>
<rect x="985.564" y="297.197" width="1.50351" height="1.53359" rx="0.751755" stroke="white" stroke-opacity="0.9" stroke-width="1.50351"/>
<rect x="817.42" y="425.002" width="2.5105" height="2.55563" rx="1.25525" stroke="white" stroke-opacity="0.9" stroke-width="2"/>
<rect x="942.963" y="425.002" width="2.5105" height="2.55563" rx="1.25525" stroke="white" stroke-opacity="0.9" stroke-width="2"/>
<rect x="737.019" y="335.832" width="5.06866" height="0.569454" rx="0.284727" stroke="white" stroke-opacity="0.9" stroke-width="0.569454"/>
<rect x="737.019" y="337.73" width="5.06866" height="0.569456" rx="0.284728" stroke="white" stroke-opacity="0.9" stroke-width="0.569456"/>
<rect x="737.019" y="339.628" width="5.06866" height="0.569456" rx="0.284728" stroke="white" stroke-opacity="0.9" stroke-width="0.569456"/>
</g>
<g clip-path="url(#clip13_293_25839)">
<rect x="1270.75" y="277.145" width="71.672" height="40.7923" rx="8" stroke="white" stroke-opacity="0.9" stroke-width="2"/>
<path d="M1299.67 328.989C1298.31 326.033 1300.47 322.668 1303.72 322.668H1308.79C1312.17 322.668 1314.32 326.281 1312.71 329.255C1311.93 330.696 1310.42 331.594 1308.79 331.594H1303.72C1301.98 331.594 1300.39 330.576 1299.67 328.989Z" stroke="white" stroke-opacity="0.9" stroke-width="2"/>
<path d="M1231.3 321.331C1230.63 325.017 1233.46 328.408 1237.21 328.408C1241.09 328.408 1243.96 324.775 1243.05 320.998L1242.89 320.349C1242.57 319.014 1241.84 317.814 1240.79 316.92L1238.51 314.962C1237.78 314.33 1236.69 314.318 1235.94 314.933L1233.72 316.755C1232.51 317.744 1231.7 319.13 1231.42 320.664L1231.3 321.331Z" stroke="white" stroke-opacity="0.9" stroke-width="2"/>
<path d="M1231.3 299.7C1230.63 296.014 1233.46 292.623 1237.21 292.623C1241.09 292.623 1243.96 296.256 1243.05 300.033L1242.89 300.682C1242.57 302.017 1241.84 303.217 1240.79 304.111L1238.51 306.069C1237.78 306.701 1236.69 306.713 1235.94 306.098L1233.72 304.276C1232.51 303.287 1231.7 301.902 1231.42 300.367L1231.3 299.7Z" stroke="white" stroke-opacity="0.9" stroke-width="2"/>
<path d="M1226.21 316.413C1222.4 317.104 1218.9 314.183 1218.9 310.318C1218.9 306.309 1222.65 303.356 1226.55 304.295L1227.2 304.453C1228.58 304.784 1229.81 305.541 1230.74 306.615L1232.79 309.014C1233.42 309.75 1233.43 310.833 1232.82 311.582L1230.9 313.921C1229.89 315.164 1228.46 316.004 1226.88 316.291L1226.21 316.413Z" stroke="white" stroke-opacity="0.9" stroke-width="2"/>
<path d="M1248.26 316.413C1252.06 317.104 1255.56 314.183 1255.56 310.318C1255.56 306.309 1251.81 303.356 1247.91 304.295L1247.26 304.453C1245.89 304.784 1244.65 305.541 1243.73 306.615L1241.67 309.014C1241.04 309.75 1241.03 310.833 1241.65 311.582L1243.56 313.921C1244.58 315.164 1246.01 316.004 1247.59 316.291L1248.26 316.413Z" stroke="white" stroke-opacity="0.9" stroke-width="2"/>
<path d="M1258.01 285.473C1258.01 283.89 1259.3 282.607 1260.88 282.607C1262.46 282.607 1263.74 283.89 1263.74 285.473V291.399C1263.74 292.982 1262.46 294.265 1260.88 294.265C1259.3 294.265 1258.01 292.982 1258.01 291.399V285.473Z" stroke="white" stroke-opacity="0.9" stroke-width="2"/>
<path d="M1348.97 285.473C1348.97 283.89 1350.25 282.607 1351.83 282.607C1353.41 282.607 1354.7 283.89 1354.7 285.473V291.399C1354.7 292.982 1353.41 294.265 1351.83 294.265C1350.25 294.265 1348.97 292.982 1348.97 291.399V285.473Z" stroke="white" stroke-opacity="0.9" stroke-width="2"/>
<path d="M1342.05 277.965H1357.11C1358.27 277.965 1359.34 277.326 1359.88 276.302V276.302C1360.39 275.353 1361.35 274.729 1362.42 274.648L1370.52 274.034C1373.97 273.772 1377.44 273.864 1380.87 274.307L1384.3 274.75C1387.78 275.2 1390.88 277.196 1392.73 280.184L1395.92 285.347C1399.7 291.458 1402.4 298.173 1403.89 305.2L1413.93 352.244C1416.18 362.787 1417.32 373.538 1417.32 384.318V384.318C1417.32 386.825 1416.72 389.294 1415.56 391.518L1415.33 391.965C1412.77 396.894 1408.85 400.983 1404.03 403.748L1400.96 405.507C1396.85 407.869 1391.81 407.952 1387.62 405.727V405.727C1382.21 402.855 1377.7 398.545 1374.58 393.271L1370.09 385.689C1369.44 384.589 1368.88 383.437 1368.42 382.246L1360.35 361.563C1359.99 360.638 1359.33 359.858 1358.48 359.347V359.347C1357.17 358.562 1355.55 358.495 1354.18 359.169L1348.59 361.926C1344.18 364.099 1339.01 364.113 1334.59 361.963L1330.77 360.107C1327.42 358.478 1323.75 357.632 1320.02 357.632H1306.13" stroke="white" stroke-opacity="0.9" stroke-width="2"/>
<path d="M1270.88 277.965H1255.83C1254.67 277.965 1253.6 277.326 1253.05 276.302V276.302C1252.55 275.353 1251.59 274.729 1250.52 274.648L1242.42 274.034C1238.97 273.772 1235.5 273.864 1232.07 274.307L1228.64 274.75C1225.16 275.2 1222.06 277.196 1220.21 280.184L1217.02 285.347C1213.24 291.458 1210.54 298.173 1209.04 305.2L1199.01 352.244C1196.76 362.787 1195.62 373.538 1195.62 384.318V384.318C1195.62 386.825 1196.22 389.294 1197.38 391.518L1197.61 391.965C1200.17 396.894 1204.09 400.983 1208.91 403.748L1211.98 405.507C1216.09 407.869 1221.13 407.952 1225.32 405.727V405.727C1230.73 402.855 1235.24 398.545 1238.36 393.271L1242.85 385.689C1243.5 384.589 1244.06 383.437 1244.52 382.246L1252.59 361.563C1252.95 360.638 1253.61 359.858 1254.46 359.347V359.347C1255.77 358.562 1257.39 358.495 1258.75 359.169L1264.35 361.926C1268.76 364.099 1273.93 364.113 1278.35 361.963L1282.17 360.107C1285.52 358.478 1289.19 357.632 1292.92 357.632H1306.81" stroke="white" stroke-opacity="0.9" stroke-width="2"/>
<path d="M1283.3 340.788C1283.3 347.779 1277.64 353.445 1270.66 353.445C1263.68 353.445 1258.01 347.779 1258.01 340.788C1258.01 333.797 1263.68 328.131 1270.66 328.131C1277.64 328.131 1283.3 333.797 1283.3 340.788Z" stroke="white" stroke-opacity="0.9" stroke-width="2"/>
<path d="M1279.66 340.789C1279.66 345.769 1275.63 349.804 1270.66 349.804C1265.68 349.804 1261.65 345.769 1261.65 340.789C1261.65 335.809 1265.68 331.773 1270.66 331.773C1275.63 331.773 1279.66 335.809 1279.66 340.789Z" stroke="white" stroke-opacity="0.9" stroke-width="2"/>
<path d="M1311.04 341.699C1311.04 344.417 1308.84 346.617 1306.13 346.617C1303.42 346.617 1301.22 344.417 1301.22 341.699C1301.22 338.982 1303.42 336.781 1306.13 336.781C1308.84 336.781 1311.04 338.982 1311.04 341.699Z" stroke="white" stroke-opacity="0.9" stroke-width="2"/>
<path d="M1366.52 310.288C1366.52 314.011 1363.51 317.027 1359.79 317.027C1356.08 317.027 1353.06 314.011 1353.06 310.288C1353.06 306.565 1356.08 303.549 1359.79 303.549C1363.51 303.549 1366.52 306.565 1366.52 310.288Z" stroke="white" stroke-opacity="0.9" stroke-width="2"/>
<path d="M1398.81 310.288C1398.81 314.011 1395.8 317.027 1392.08 317.027C1388.36 317.027 1385.35 314.011 1385.35 310.288C1385.35 306.565 1388.36 303.549 1392.08 303.549C1395.8 303.549 1398.81 306.565 1398.81 310.288Z" stroke="white" stroke-opacity="0.9" stroke-width="2"/>
<path d="M1382.44 326.677C1382.44 330.399 1379.42 333.416 1375.71 333.416C1371.99 333.416 1368.98 330.399 1368.98 326.677C1368.98 322.954 1371.99 319.938 1375.71 319.938C1379.42 319.938 1382.44 322.954 1382.44 326.677Z" stroke="white" stroke-opacity="0.9" stroke-width="2"/>
<path d="M1382.44 293.899C1382.44 297.622 1379.42 300.638 1375.71 300.638C1371.99 300.638 1368.98 297.622 1368.98 293.899C1368.98 290.176 1371.99 287.16 1375.71 287.16C1379.42 287.16 1382.44 290.176 1382.44 293.899Z" stroke="white" stroke-opacity="0.9" stroke-width="2"/>
<path d="M1289.21 340.788C1289.21 351.048 1280.9 359.363 1270.66 359.363C1260.41 359.363 1252.1 351.048 1252.1 340.788C1252.1 330.528 1260.41 322.213 1270.66 322.213C1280.9 322.213 1289.21 330.528 1289.21 340.788Z" stroke="white" stroke-opacity="0.9" stroke-width="2"/>
<path d="M1354.24 340.788C1354.24 347.779 1348.58 353.445 1341.6 353.445C1334.62 353.445 1328.96 347.779 1328.96 340.788C1328.96 333.797 1334.62 328.131 1341.6 328.131C1348.58 328.131 1354.24 333.797 1354.24 340.788Z" stroke="white" stroke-opacity="0.9" stroke-width="2"/>
<path d="M1350.61 340.789C1350.61 345.769 1346.57 349.804 1341.6 349.804C1336.63 349.804 1332.6 345.769 1332.6 340.789C1332.6 335.809 1336.63 331.773 1341.6 331.773C1346.57 331.773 1350.61 335.809 1350.61 340.789Z" stroke="white" stroke-opacity="0.9" stroke-width="2"/>
<path d="M1360.16 340.788C1360.16 351.048 1351.85 359.363 1341.6 359.363C1331.36 359.363 1323.05 351.048 1323.05 340.788C1323.05 330.528 1331.36 322.213 1341.6 322.213C1351.85 322.213 1360.16 330.528 1360.16 340.788Z" stroke="white" stroke-opacity="0.9" stroke-width="2"/>
</g>
</g>
<defs>
<clipPath id="clip0_293_25839">
<rect width="336.997" height="195.392" fill="white" transform="translate(356.514 385.152)"/>
</clipPath>
<clipPath id="clip1_293_25839">
<rect width="232.715" height="116.357" fill="white" transform="translate(737.42 461.992)"/>
</clipPath>
<clipPath id="clip2_293_25839">
<rect width="240.398" height="119.65" fill="white" transform="translate(-20 -17.707)"/>
</clipPath>
<clipPath id="clip3_293_25839">
<rect width="227.226" height="160.266" fill="white" transform="translate(-15.6094 129.387)"/>
</clipPath>
<clipPath id="clip4_293_25839">
<rect width="446.768" height="273.33" fill="white" transform="translate(960.256 -17.707)"/>
</clipPath>
<clipPath id="clip5_293_25839">
<rect width="234.91" height="164.656" fill="white" transform="translate(-15.6094 413.693)"/>
</clipPath>
<clipPath id="clip6_293_25839">
<rect width="215.151" height="154.777" fill="white" transform="translate(1191.87 423.572)"/>
</clipPath>
<clipPath id="clip7_293_25839">
<rect width="220.64" height="85.6214" fill="white" transform="matrix(0 1 -1 0 342.246 361.002)"/>
</clipPath>
<clipPath id="clip8_293_25839">
<rect width="82.3282" height="185.513" fill="white" transform="matrix(0 1 -1 0 165.514 307.215)"/>
</clipPath>
<clipPath id="clip9_293_25839">
<rect width="395.176" height="163.559" fill="white" transform="translate(242.355 166.709)"/>
</clipPath>
<clipPath id="clip10_293_25839">
<rect width="220.64" height="154.777" fill="white" transform="translate(281.871 -16.6094)"/>
</clipPath>
<clipPath id="clip11_293_25839">
<rect width="95.5008" height="198.686" fill="white" transform="translate(1059.05 277.576)"/>
</clipPath>
<clipPath id="clip12_293_25839">
<rect width="317.238" height="141.605" fill="white" transform="translate(693.51 290.75)"/>
</clipPath>
<clipPath id="clip13_293_25839">
<rect width="222.835" height="136.116" fill="white" transform="translate(1195.17 273.186)"/>
</clipPath>
</defs>
</svg>
