<svg width="30" height="30" viewBox="0 0 26 26" fill="none" xmlns="http://www.w3.org/2000/svg">
<path d="M24.6484 22.9504C24.7598 23.0619 24.8483 23.1943 24.9086 23.3399C24.9689 23.4856 25 23.6417 25 23.7994C25 23.9571 24.9689 24.1132 24.9086 24.2588C24.8483 24.4045 24.7598 24.5369 24.6484 24.6484C24.5369 24.7598 24.4045 24.8483 24.2588 24.9086C24.1132 24.9689 23.9571 25 23.7994 25C23.6417 25 23.4856 24.9689 23.3399 24.9086C23.1943 24.8483 23.0619 24.7598 22.9504 24.6484L13 14.6964L3.04955 24.6484C2.8244 24.8735 2.51902 25 2.2006 25C1.88218 25 1.5768 24.8735 1.35165 24.6484C1.12649 24.4232 1 24.1178 1 23.7994C1 23.481 1.12649 23.1756 1.35165 22.9504L11.3036 13L1.35165 3.04955C1.12649 2.8244 1 2.51902 1 2.2006C1 1.88218 1.12649 1.5768 1.35165 1.35165C1.5768 1.12649 1.88218 1 2.2006 1C2.51902 1 2.8244 1.12649 3.04955 1.35165L13 11.3036L22.9504 1.35165C23.1756 1.12649 23.481 1 23.7994 1C24.1178 1 24.4232 1.12649 24.6484 1.35165C24.8735 1.5768 25 1.88218 25 2.2006C25 2.51902 24.8735 2.8244 24.6484 3.04955L14.6964 13L24.6484 22.9504Z" fill="#3511A3" stroke="#3511A3" stroke-width="0.5"/>
</svg>
