<svg width="29" height="28" viewBox="0 0 29 28" fill="none" xmlns="http://www.w3.org/2000/svg">
<g clip-path="url(#clip0_79_8261)">
<path d="M25.5554 0H3.77762C2.0665 0 0.666504 1.4 0.666504 3.11111V24.8889C0.666504 26.6016 2.0665 28 3.77762 28H14.6665V17.1111H11.5554V13.2611H14.6665V10.0722C14.6665 6.706 16.5518 4.34156 20.5247 4.34156L23.3294 4.34467V8.39689H21.4674C19.9212 8.39689 19.3332 9.55733 19.3332 10.6338V13.2627H23.3278L22.4443 17.1111H19.3332V28H25.5554C27.2665 28 28.6665 26.6016 28.6665 24.8889V3.11111C28.6665 1.4 27.2665 0 25.5554 0Z" fill="#3511A3"/>
</g>
<defs>
<clipPath id="clip0_79_8261">
<rect width="28" height="28" fill="white" transform="translate(0.666504)"/>
</clipPath>
</defs>
</svg>
