<svg width="53" height="28" viewBox="0 0 53 28" fill="none" xmlns="http://www.w3.org/2000/svg">
<rect width="53" height="28" rx="4" fill="#EFECF2"/>
<path d="M11.54 19.144C10.836 19.144 10.236 19.016 9.74 18.76C9.252 18.504 8.832 18.16 8.48 17.728L9.416 16.852C9.712 17.212 10.036 17.484 10.388 17.668C10.748 17.852 11.156 17.944 11.612 17.944C12.148 17.944 12.552 17.824 12.824 17.584C13.096 17.344 13.232 17.02 13.232 16.612C13.232 16.284 13.136 16.024 12.944 15.832C12.752 15.64 12.412 15.496 11.924 15.4L11.18 15.268C10.364 15.116 9.752 14.848 9.344 14.464C8.936 14.08 8.732 13.552 8.732 12.88C8.732 12.512 8.8 12.18 8.936 11.884C9.08 11.58 9.276 11.328 9.524 11.128C9.78 10.92 10.088 10.76 10.448 10.648C10.808 10.536 11.212 10.48 11.66 10.48C12.292 10.48 12.84 10.592 13.304 10.816C13.768 11.032 14.164 11.348 14.492 11.764L13.544 12.604C13.328 12.324 13.064 12.1 12.752 11.932C12.44 11.764 12.052 11.68 11.588 11.68C11.108 11.68 10.736 11.776 10.472 11.968C10.208 12.16 10.076 12.44 10.076 12.808C10.076 13.16 10.184 13.424 10.4 13.6C10.616 13.768 10.952 13.896 11.408 13.984L12.152 14.14C12.992 14.3 13.604 14.572 13.988 14.956C14.38 15.34 14.576 15.868 14.576 16.54C14.576 16.932 14.508 17.288 14.372 17.608C14.236 17.928 14.036 18.204 13.772 18.436C13.516 18.66 13.2 18.836 12.824 18.964C12.448 19.084 12.02 19.144 11.54 19.144ZM18.5559 19.144C18.1239 19.144 17.7279 19.068 17.3679 18.916C17.0159 18.764 16.7159 18.548 16.4679 18.268C16.2199 17.98 16.0279 17.636 15.8919 17.236C15.7559 16.828 15.6879 16.376 15.6879 15.88C15.6879 15.384 15.7559 14.936 15.8919 14.536C16.0279 14.128 16.2199 13.784 16.4679 13.504C16.7159 13.216 17.0159 12.996 17.3679 12.844C17.7279 12.692 18.1239 12.616 18.5559 12.616C18.9879 12.616 19.3799 12.692 19.7319 12.844C20.0919 12.996 20.3959 13.216 20.6439 13.504C20.8919 13.784 21.0839 14.128 21.2199 14.536C21.3559 14.936 21.4239 15.384 21.4239 15.88C21.4239 16.376 21.3559 16.828 21.2199 17.236C21.0839 17.636 20.8919 17.98 20.6439 18.268C20.3959 18.548 20.0919 18.764 19.7319 18.916C19.3799 19.068 18.9879 19.144 18.5559 19.144ZM18.5559 18.064C19.0039 18.064 19.3639 17.928 19.6359 17.656C19.9079 17.376 20.0439 16.96 20.0439 16.408V15.352C20.0439 14.8 19.9079 14.388 19.6359 14.116C19.3639 13.836 19.0039 13.696 18.5559 13.696C18.1079 13.696 17.7479 13.836 17.4759 14.116C17.2039 14.388 17.0679 14.8 17.0679 15.352V16.408C17.0679 16.96 17.2039 17.376 17.4759 17.656C17.7479 17.928 18.1079 18.064 18.5559 18.064ZM22.8813 19V12.76H24.1893V13.96H24.2493C24.3373 13.64 24.5213 13.36 24.8013 13.12C25.0813 12.88 25.4693 12.76 25.9653 12.76H26.3133V14.02H25.7973C25.2773 14.02 24.8773 14.104 24.5973 14.272C24.3253 14.44 24.1893 14.688 24.1893 15.016V19H22.8813ZM29.2499 19C28.7939 19 28.4499 18.884 28.2179 18.652C27.9859 18.412 27.8699 18.076 27.8699 17.644V13.828H26.8979V12.76H27.4259C27.6419 12.76 27.7899 12.712 27.8699 12.616C27.9579 12.52 28.0019 12.364 28.0019 12.148V11.056H29.1779V12.76H30.4859V13.828H29.1779V17.932H30.3899V19H29.2499Z" fill="#3511A3"/>
<path d="M36.5713 14.2852L39.9999 17.7137L43.4284 14.2852" stroke="#3511A3" stroke-width="1.5" stroke-linecap="round" stroke-linejoin="round"/>
</svg>
