<svg width="24" height="24" viewBox="0 0 24 24" fill="none" xmlns="http://www.w3.org/2000/svg">
<g clip-path="url(#clip0_3_10703)">
<path d="M22.6667 20.1667C23.0065 20.167 23.3334 20.2972 23.5805 20.5305C23.8276 20.7638 23.9763 21.0826 23.9962 21.4219C24.0161 21.7611 23.9058 22.0952 23.6876 22.3558C23.4695 22.6164 23.1601 22.7839 22.8227 22.824L22.6667 22.8333H1.33333C0.993494 22.833 0.666624 22.7028 0.419509 22.4695C0.172394 22.2362 0.0236867 21.9174 0.00377051 21.5781C-0.0161457 21.2389 0.0942328 20.9048 0.312353 20.6442C0.530474 20.3836 0.839872 20.2161 1.17733 20.176L1.33333 20.1667H22.6667ZM22.6667 10.8333C23.0203 10.8333 23.3594 10.9738 23.6095 11.2239C23.8595 11.4739 24 11.813 24 12.1667C24 12.5203 23.8595 12.8594 23.6095 13.1095C23.3594 13.3595 23.0203 13.5 22.6667 13.5H1.33333C0.979711 13.5 0.640573 13.3595 0.390524 13.1095C0.140476 12.8594 0 12.5203 0 12.1667C0 11.813 0.140476 11.4739 0.390524 11.2239C0.640573 10.9738 0.979711 10.8333 1.33333 10.8333H22.6667ZM22.6667 1.5C23.0203 1.5 23.3594 1.64048 23.6095 1.89052C23.8595 2.14057 24 2.47971 24 2.83333C24 3.18696 23.8595 3.52609 23.6095 3.77614C23.3594 4.02619 23.0203 4.16667 22.6667 4.16667H1.33333C0.979711 4.16667 0.640573 4.02619 0.390524 3.77614C0.140476 3.52609 0 3.18696 0 2.83333C0 2.47971 0.140476 2.14057 0.390524 1.89052C0.640573 1.64048 0.979711 1.5 1.33333 1.5H22.6667Z" fill="#FCFAF7"/>
</g>
<defs>
<clipPath id="clip0_3_10703">
<rect width="24" height="24" fill="white"/>
</clipPath>
</defs>
</svg>
