<svg width="72" height="48" viewBox="0 0 72 48" fill="none" xmlns="http://www.w3.org/2000/svg">
<g clip-path="url(#clip0_355_20288)">
<path d="M67.2 48H4.8C3.52696 48 2.30606 47.4943 1.40589 46.5941C0.505713 45.6939 0 44.473 0 43.2L0 4.8C0 3.52696 0.505713 2.30606 1.40589 1.40589C2.30606 0.505713 3.52696 0 4.8 0L67.2 0C68.473 0 69.6939 0.505713 70.5941 1.40589C71.4943 2.30606 72 3.52696 72 4.8V43.2C72 44.473 71.4943 45.6939 70.5941 46.5941C69.6939 47.4943 68.473 48 67.2 48ZM28.064 20.65C28.0092 20.6507 27.9553 20.6637 27.9062 20.6879C27.857 20.7121 27.8139 20.747 27.78 20.79C27.7012 20.8702 27.6561 20.9776 27.654 21.09C27.654 21.132 27.85 21.73 28.27 22.956L29.178 25.608L29.6 26.844C30.0733 28.2307 30.3207 28.968 30.342 29.056C29.4109 30.2088 28.5691 31.431 27.824 32.712L27.748 32.852L27.744 32.902C27.744 33.102 27.906 33.266 28.108 33.266L28.162 33.262H28.16H30.596C30.7096 33.2613 30.8211 33.2318 30.9201 33.1761C31.0191 33.1205 31.1023 33.0406 31.162 32.944L31.164 32.942L39.228 21.304C39.2704 21.2482 39.2936 21.1801 39.294 21.11L39.292 21.08V21.082C39.2893 20.9697 39.2443 20.8626 39.166 20.782C39.1324 20.7392 39.0896 20.7043 39.0408 20.6801C38.992 20.6559 38.9385 20.6429 38.884 20.642H36.446C36.3322 20.6427 36.2204 20.6723 36.1211 20.7279C36.0217 20.7835 35.9381 20.8633 35.878 20.96L35.876 20.962L32.516 25.894L31.126 21.15C31.0903 21.0054 31.0074 20.8769 30.8904 20.7849C30.7733 20.6929 30.6289 20.6426 30.48 20.642L30.428 20.644H30.43L28.064 20.65ZM56.02 20.428H55.968C54.452 20.428 53.09 21.086 52.15 22.13L52.146 22.134C51.1179 23.1973 50.5441 24.619 50.546 26.098V26.152V26.15C50.542 26.208 50.542 26.278 50.542 26.346C50.542 27.42 50.96 28.398 51.64 29.124L51.638 29.122C52.0248 29.4988 52.4852 29.7916 52.9904 29.9823C53.4956 30.1729 54.0347 30.2573 54.574 30.23H54.564C55.238 30.222 55.878 30.084 56.462 29.836L56.43 29.848C57.02 29.626 57.52 29.28 57.914 28.84L57.918 28.836C57.898 28.95 57.876 29.046 57.85 29.138L57.854 29.118C57.8183 29.2405 57.7968 29.3666 57.79 29.494V29.498C57.79 29.834 57.928 30.004 58.202 30.004H60.384C60.4692 30.0116 60.5551 30.0021 60.6365 29.976C60.718 29.9499 60.7934 29.9077 60.8583 29.852C60.9232 29.7962 60.9762 29.7281 61.0143 29.6515C61.0524 29.5748 61.0747 29.4914 61.08 29.406V29.404L62.376 21.15C62.3882 21.0877 62.3861 21.0235 62.3698 20.9622C62.3536 20.9008 62.3235 20.844 62.282 20.796C62.246 20.7464 62.1988 20.7061 62.1442 20.6783C62.0896 20.6505 62.0293 20.636 61.968 20.636H59.562C59.268 20.636 59.082 20.986 59.022 21.68C58.6699 21.2283 58.207 20.8754 57.6781 20.6557C57.1492 20.4359 56.5725 20.3568 56.004 20.426L56.02 20.424V20.428ZM20.094 20.428H20.038C18.524 20.428 17.162 21.086 16.226 22.13L16.222 22.134C15.1939 23.1973 14.6201 24.619 14.622 26.098V26.152V26.15C14.5955 26.6936 14.6789 27.237 14.8672 27.7477C15.0555 28.2583 15.3449 28.7257 15.718 29.122L15.716 29.12C16.424 29.808 17.392 30.232 18.46 30.232L18.652 30.228H18.642C19.306 30.218 19.936 30.08 20.51 29.834L20.478 29.846C21.076 29.618 21.584 29.274 21.994 28.836L21.996 28.834C21.922 29.03 21.876 29.258 21.87 29.494V29.498C21.87 29.834 22.01 30.004 22.282 30.004H24.462C24.5472 30.0116 24.6331 30.0021 24.7145 29.976C24.796 29.9499 24.8714 29.9077 24.9363 29.852C25.0012 29.7962 25.0542 29.7281 25.0923 29.6515C25.1304 29.5748 25.1527 29.4914 25.158 29.406V29.404L26.456 21.15C26.4669 21.0882 26.4639 21.0247 26.4473 20.9642C26.4307 20.9037 26.4009 20.8476 26.36 20.8C26.324 20.7504 26.2768 20.7101 26.2222 20.6823C26.1676 20.6545 26.1073 20.64 26.046 20.64H23.64C23.346 20.64 23.16 20.99 23.102 21.684C22.7463 21.2359 22.2825 20.8856 21.7543 20.6659C21.226 20.4462 20.6506 20.3643 20.082 20.428L20.098 20.426L20.094 20.428ZM65.224 16L65.192 15.998C65.0965 15.9977 65.0044 16.0333 64.934 16.0978C64.8636 16.1622 64.82 16.2509 64.812 16.346L62.756 29.504C62.7391 29.5673 62.7389 29.6339 62.7554 29.6974C62.7719 29.7608 62.8045 29.8189 62.85 29.866C62.8878 29.9108 62.935 29.9467 62.9882 29.9713C63.0414 29.9958 63.0994 30.0083 63.158 30.008H65.258L65.322 30.012C65.4811 30.012 65.6337 29.9488 65.7463 29.8363C65.8588 29.7237 65.922 29.5711 65.922 29.412V29.408L67.974 16.478L67.976 16.434C67.9759 16.32 67.9387 16.2091 67.87 16.118V16.12C67.8341 16.0817 67.7907 16.0511 67.7426 16.0301C67.6944 16.0092 67.6425 15.9982 67.59 15.998L67.56 16H65.224ZM41.884 16C41.7981 15.9887 41.7109 15.9957 41.6279 16.0204C41.5449 16.0452 41.4681 16.0871 41.4024 16.1435C41.3368 16.2 41.2837 16.2696 41.2468 16.3479C41.2098 16.4262 41.1898 16.5114 41.188 16.598L39.134 29.502C39.1234 29.5634 39.1263 29.6263 39.1426 29.6864C39.1588 29.7465 39.188 29.8023 39.228 29.85C39.2633 29.8998 39.3101 29.9403 39.3644 29.9681C39.4188 29.996 39.479 30.0103 39.54 30.01H42.15C42.2671 30.0099 42.3806 29.9692 42.471 29.8948C42.5615 29.8204 42.6233 29.7169 42.646 29.602V29.598L43.216 25.93C43.233 25.7694 43.3128 25.622 43.438 25.52C43.5745 25.4097 43.7403 25.3385 43.914 25.314H43.92C44.082 25.284 44.268 25.268 44.458 25.266C44.626 25.266 44.828 25.276 45.06 25.298C45.3136 25.3272 45.5688 25.3405 45.824 25.338C47.2893 25.3404 48.7013 24.7881 49.776 23.792L49.772 23.796C50.3079 23.2277 50.7217 22.5556 50.988 21.8212C51.2542 21.0869 51.3672 20.3057 51.32 19.526V19.542C51.363 19.0264 51.2746 18.5082 51.063 18.036C50.8514 17.5639 50.5235 17.153 50.11 16.842L50.102 16.836C49.1477 16.2325 48.0297 15.9397 46.902 15.998H46.914L41.884 16ZM5.92 16C5.83634 15.991 5.75172 15.9997 5.67165 16.0256C5.59157 16.0515 5.51783 16.0939 5.45522 16.1501C5.3926 16.2063 5.3425 16.275 5.30818 16.3518C5.27386 16.4287 5.25608 16.5119 5.256 16.596V16.6L3.2 29.504C3.18928 29.5654 3.19214 29.6283 3.20838 29.6884C3.22462 29.7486 3.25385 29.8044 3.294 29.852C3.32933 29.9018 3.37613 29.9423 3.43044 29.9701C3.48475 29.998 3.54497 30.0123 3.606 30.012H6.014C6.09985 30.0233 6.18711 30.0163 6.27009 29.9916C6.35307 29.9668 6.4299 29.9249 6.49557 29.8685C6.56125 29.812 6.61429 29.7424 6.65123 29.6641C6.68818 29.5858 6.70821 29.5006 6.71 29.414L7.28 25.936C7.29733 25.776 7.37622 25.6289 7.5 25.526C7.63646 25.4157 7.80228 25.3445 7.976 25.32H7.982C8.15898 25.2888 8.33829 25.2727 8.518 25.272H8.52C8.688 25.272 8.888 25.282 9.12 25.304C9.37293 25.3331 9.62742 25.3464 9.882 25.344C11.408 25.344 12.796 24.758 13.836 23.798L13.832 23.802C14.3677 23.2335 14.7814 22.5615 15.0476 21.8271C15.3139 21.0928 15.427 20.3117 15.38 19.532V19.548C15.423 19.0324 15.3346 18.5142 15.123 18.042C14.9114 17.5699 14.5835 17.159 14.17 16.848L14.162 16.842C13.2118 16.2407 12.0991 15.9474 10.976 16.002H10.988L5.92 16ZM55.888 27.67L55.792 27.672C55.281 27.6725 54.7864 27.4918 54.396 27.162L54.4 27.164C54.2195 26.9977 54.0755 26.7958 53.977 26.571C53.8786 26.3462 53.8278 26.1034 53.828 25.858L53.83 25.768V25.714C53.83 24.966 54.132 24.288 54.622 23.796C55.104 23.302 55.776 22.996 56.52 22.996H56.586H56.582L56.65 22.994C57.188 22.994 57.678 23.192 58.054 23.518L58.052 23.516C58.2377 23.688 58.3858 23.8965 58.487 24.1285C58.5882 24.3605 58.6403 24.6109 58.64 24.864L58.638 24.96V24.956V25.004C58.638 25.742 58.332 26.41 57.838 26.884C57.5885 27.1326 57.2924 27.3296 56.9668 27.4638C56.6411 27.598 56.2922 27.6667 55.94 27.666H55.89L55.888 27.67ZM19.93 27.67L19.83 27.672C19.306 27.672 18.824 27.48 18.456 27.162L18.458 27.164C18.2821 26.9958 18.1422 26.7937 18.0466 26.57C17.9511 26.3462 17.9019 26.1053 17.902 25.862L17.904 25.768V25.714C17.904 24.966 18.206 24.288 18.696 23.796C19.178 23.302 19.848 22.996 20.592 22.996H20.662H20.658L20.726 22.994C21.264 22.994 21.754 23.192 22.13 23.518L22.128 23.516C22.3132 23.6878 22.4609 23.8961 22.5617 24.1277C22.6626 24.3594 22.7144 24.6094 22.714 24.862L22.712 24.96V24.956V25.026C22.712 25.764 22.406 26.428 21.912 26.902C21.3994 27.3953 20.7154 27.6706 20.004 27.67H19.93ZM43.744 22.55L44.282 19.168C44.2863 19.1182 44.3003 19.0697 44.3234 19.0254C44.3464 18.981 44.378 18.9417 44.4162 18.9095C44.4545 18.8774 44.4987 18.8531 44.5464 18.8381C44.5941 18.8231 44.6442 18.8176 44.694 18.822H45.262L45.384 18.82C45.73 18.82 46.072 18.844 46.406 18.89L46.368 18.886C46.678 18.942 46.948 19.082 47.16 19.282C47.2808 19.3962 47.377 19.5338 47.4427 19.6866C47.5084 19.8393 47.5422 20.0038 47.542 20.17L47.54 20.246V20.242C47.582 20.5761 47.5408 20.9155 47.4201 21.2298C47.2994 21.5442 47.1029 21.8239 46.848 22.044L46.846 22.046C46.2087 22.4097 45.478 22.5767 44.746 22.526H44.758L43.748 22.558L43.744 22.55ZM7.786 22.55L8.324 19.168C8.32802 19.1181 8.34191 19.0695 8.36485 19.025C8.3878 18.9806 8.41936 18.9411 8.45769 18.9089C8.49601 18.8767 8.54035 18.8524 8.58813 18.8375C8.63591 18.8226 8.68617 18.8173 8.736 18.822H9.334C9.97433 18.7751 10.6153 18.9037 11.188 19.194L11.168 19.184C11.546 19.426 11.674 19.94 11.548 20.716C11.5383 21.0057 11.4592 21.2889 11.3172 21.5416C11.1751 21.7943 10.9745 22.0091 10.732 22.168L10.726 22.172C9.77805 22.5211 8.76305 22.6497 7.758 22.548L7.786 22.55Z" fill="#0C0738"/>
</g>
<defs>
<clipPath id="clip0_355_20288">
<rect width="72" height="48" fill="white"/>
</clipPath>
</defs>
</svg>
