<svg width="72" height="48" viewBox="0 0 72 48" fill="none" xmlns="http://www.w3.org/2000/svg">
<rect width="72" height="48" rx="5" fill="#0C0738"/>
<path d="M15.9798 12.0007C14.1297 12 12.3159 12.514 10.7413 13.4852C9.16662 14.4564 7.89321 15.8465 7.06348 17.5001C6.36421 18.8903 6 20.4248 6 21.9809C6 23.537 6.36421 25.0716 7.06348 26.4617C7.89321 28.1153 9.16662 29.5054 10.7413 30.4767C12.3159 31.4479 14.1297 31.9618 15.9798 31.9611C18.6741 31.9611 20.9403 31.0747 22.5946 29.5513C24.4781 27.8139 25.5659 25.2455 25.5659 22.2088C25.5621 21.5286 25.5031 20.8499 25.3896 20.1793H15.9823V24.0218H21.3709C21.2605 24.6353 21.0274 25.2203 20.6856 25.7417C20.3438 26.2631 19.9003 26.7101 19.3816 27.056C18.4852 27.6628 17.332 28.0103 15.9823 28.0103C13.3787 28.0103 11.1704 26.2553 10.3797 23.8908C9.96306 22.6516 9.96306 21.3102 10.3797 20.071C11.1704 17.7041 13.3787 15.9515 15.9823 15.9515C17.4051 15.9277 18.7801 16.465 19.8097 17.4472L22.6601 14.6019C20.8552 12.9025 18.4586 11.97 15.9798 12.0007ZM32.3495 13.3856V30.76H34.5804V23.7221H38.2693C39.7868 23.7221 41.0643 23.2286 42.1018 22.2415C42.6183 21.7787 43.0287 21.2096 43.3047 20.5733C43.5807 19.937 43.7158 19.2486 43.7007 18.5551C43.7112 17.8653 43.5739 17.1813 43.2981 16.5489C43.0224 15.9166 42.6144 15.3505 42.1018 14.8889C41.5936 14.3978 40.9935 14.012 40.3358 13.7536C39.6781 13.4952 38.9758 13.3693 38.2693 13.3831L32.3495 13.3856ZM38.4607 15.526C38.8499 15.5333 39.2338 15.6184 39.5897 15.7763C39.9455 15.9341 40.2663 16.1615 40.533 16.445C40.8167 16.721 41.0422 17.051 41.1962 17.4156C41.3502 17.7802 41.4296 18.172 41.4296 18.5677C41.4296 18.9635 41.3502 19.3553 41.1962 19.7199C41.0422 20.0845 40.8167 20.4145 40.533 20.6904C40.2479 20.9859 39.9042 21.2185 39.5239 21.3733C39.1436 21.5281 38.7351 21.6017 38.3247 21.5894H34.5804V15.526H38.4607ZM48.845 18.4846C46.7265 18.4846 45.1259 19.261 44.0431 20.8138L46.0097 22.0502C46.7349 20.9993 47.7211 20.4739 48.9684 20.4739C49.7638 20.4629 50.5339 20.7535 51.1238 21.2872C51.4158 21.5265 51.6502 21.8284 51.8097 22.1706C51.9693 22.5127 52.0498 22.8864 52.0454 23.2638V23.7725C51.1893 23.2857 50.0982 23.0431 48.772 23.0448C47.2175 23.0448 45.9761 23.4091 45.0478 24.1376C44.1162 24.8628 43.6512 25.8406 43.6529 27.0711C43.6435 27.624 43.7572 28.172 43.9858 28.6755C44.2145 29.1789 44.5523 29.6252 44.9748 29.9819C45.8561 30.7592 46.9515 31.1478 48.2608 31.1478C49.7968 31.1478 51.0265 30.4679 51.9497 29.1082H52.0454V30.7575H54.1807V23.4326C54.1807 21.8966 53.704 20.6879 52.7505 19.8066C51.7936 18.9253 50.4918 18.4846 48.845 18.4846ZM54.5433 18.8724L59.4434 30.0071L56.6786 36H58.9826L66.4334 18.8699H64.0035L60.5589 27.4085H60.5085L56.9682 18.8724H54.5433ZM49.1396 24.8351C50.3835 24.8351 51.3538 25.1121 52.0505 25.666C52.0505 26.6027 51.6811 27.4194 50.9425 28.1161C50.6139 28.4473 50.2228 28.7101 49.7918 28.889C49.3609 29.068 48.8987 29.1596 48.4321 29.1585C47.8028 29.1707 47.1887 28.9643 46.6946 28.5744C46.465 28.4077 46.2783 28.1888 46.15 27.9357C46.0217 27.6826 45.9555 27.4027 45.9568 27.1189C45.9568 26.476 46.2615 25.9329 46.8709 25.4898C47.4752 25.0533 48.2331 24.8351 49.1396 24.8351Z" fill="#FCFAF7"/>
</svg>
