<svg width="72" height="48" viewBox="0 0 72 48" fill="none" xmlns="http://www.w3.org/2000/svg">
<g clip-path="url(#clip0_355_20290)">
<path d="M67.2 48H4.8C3.52696 48 2.30606 47.4943 1.40589 46.5941C0.505713 45.6939 0 44.473 0 43.2L0 4.8C0 3.52696 0.505713 2.30606 1.40589 1.40589C2.30606 0.505713 3.52696 0 4.8 0L67.2 0C68.473 0 69.6939 0.505713 70.5941 1.40589C71.4943 2.30606 72 3.52696 72 4.8V43.2C72 44.473 71.4943 45.6939 70.5941 46.5941C69.6939 47.4943 68.473 48 67.2 48ZM55.586 33.78V36C55.904 36.044 56.27 36.07 56.642 36.07H56.674C59.462 36.07 60.784 34.986 61.924 31.776L66.952 17.676H64.044L60.672 28.568H60.612L57.24 17.676H54.248L59.098 31.102L58.838 31.918C58.7492 32.483 58.4513 32.9939 58.0035 33.3496C57.5556 33.7052 56.9904 33.8796 56.42 33.838H56.428C56.1475 33.8263 55.8674 33.807 55.588 33.78H55.586ZM11.426 16.108H11.374C10.532 16.131 9.71027 16.3716 8.98893 16.8066C8.2676 17.2416 7.67125 17.856 7.258 18.59L7.246 18.614C5.558 21.518 6.632 25.962 8.5 28.668C9.376 29.948 10.336 31.2 11.602 31.2H11.67C12.2 31.166 12.69 31.028 13.132 30.806L13.11 30.816C13.644 30.548 14.272 30.39 14.936 30.384C15.578 30.388 16.186 30.544 16.72 30.816L16.698 30.806C17.128 31.03 17.634 31.166 18.172 31.178H18.23C19.64 31.152 20.524 29.858 21.306 28.718C21.864 27.91 22.326 26.98 22.65 25.986L22.672 25.91V25.89L22.636 25.874C21.8553 25.5239 21.1918 24.9567 20.7244 24.2401C20.2571 23.5234 20.0056 22.6875 20 21.832V21.83C20.0069 21.0744 20.2038 20.3328 20.5725 19.6733C20.9412 19.0137 21.47 18.4576 22.11 18.056L22.128 18.046L22.164 18.022C21.7533 17.4261 21.2079 16.9355 20.5719 16.59C19.9359 16.2446 19.2274 16.0541 18.504 16.034H18.286C17.4282 16.0774 16.5868 16.2859 15.808 16.648L15.85 16.63C15.4827 16.8072 15.0888 16.9227 14.684 16.972L14.666 16.974C14.2306 16.9281 13.8067 16.8056 13.414 16.612L13.436 16.622C12.8105 16.3237 12.1336 16.1479 11.442 16.104H11.426V16.108ZM47.652 19.74C49.412 19.74 50.384 20.564 50.384 22.058V23.076L46.812 23.288C43.462 23.49 41.692 24.848 41.692 27.214C41.6979 27.7832 41.8239 28.3448 42.0617 28.862C42.2996 29.3792 42.644 29.8404 43.0723 30.2153C43.5007 30.5903 44.0034 30.8705 44.5475 31.0378C45.0917 31.2051 45.665 31.2556 46.23 31.186L46.21 31.188L46.34 31.19C48.078 31.19 49.598 30.254 50.422 28.856L50.434 28.834H50.494V31.038H53.144V21.866C53.144 19.206 51.022 17.49 47.738 17.49C44.71 17.49 42.458 19.226 42.368 21.616H44.948C45.0989 21.0281 45.457 20.5145 45.9563 20.1695C46.4557 19.8245 47.0627 19.6712 47.666 19.738L47.654 19.736L47.652 19.74ZM28 12.608V31.04H30.862V24.736H34.816C35.6307 24.7793 36.4455 24.652 37.2082 24.3621C37.9708 24.0722 38.6645 23.6263 39.2448 23.0528C39.8251 22.4792 40.2792 21.7908 40.578 21.0316C40.8768 20.2724 41.0137 19.4592 40.98 18.644V18.656C41.0155 17.8496 40.8823 17.0446 40.5888 16.2926C40.2954 15.5407 39.8483 14.8582 39.276 14.2889C38.7037 13.7197 38.0189 13.2761 37.2654 12.9867C36.5119 12.6972 35.7062 12.5683 34.9 12.608H34.914H28ZM18.506 11.2C17.3626 11.3084 16.3048 11.8527 15.552 12.72L15.548 12.726C15.1734 13.1459 14.8865 13.6365 14.7041 14.1688C14.5218 14.7012 14.4476 15.2646 14.486 15.826V15.814C14.554 15.814 14.626 15.822 14.706 15.822C15.2389 15.7931 15.7598 15.6522 16.2346 15.4086C16.7095 15.1649 17.1277 14.824 17.462 14.408L17.468 14.4C18.2232 13.506 18.5967 12.3509 18.508 11.184V11.198L18.506 11.2ZM46.978 29.002C45.462 29.002 44.48 28.272 44.48 27.144C44.48 25.98 45.42 25.31 47.2 25.204L50.38 25.004V26.046C50.3623 26.4687 50.2583 26.8833 50.0744 27.2643C49.8904 27.6453 49.6304 27.9846 49.3104 28.2613C48.9904 28.538 48.6172 28.7463 48.2136 28.8734C47.8101 29.0004 47.3848 29.0435 46.964 29L46.978 29.002ZM34.142 22.342H30.854V15.02H34.154C34.6623 14.9504 35.1796 14.9952 35.6684 15.1512C36.1571 15.3072 36.6048 15.5704 36.9787 15.9215C37.3527 16.2727 37.6435 16.7029 37.8299 17.1809C38.0163 17.6588 38.0935 18.1724 38.056 18.684V18.672C38.0925 19.1863 38.0134 19.7023 37.8246 20.182C37.6358 20.6618 37.342 21.0933 36.9648 21.4448C36.5876 21.7963 36.1365 22.059 35.6446 22.2135C35.1527 22.3681 34.6325 22.4106 34.122 22.338L34.142 22.342Z" fill="#0C0738"/>
</g>
<defs>
<clipPath id="clip0_355_20290">
<rect width="72" height="48" fill="white"/>
</clipPath>
</defs>
</svg>
