<svg width="29" height="28" viewBox="0 0 29 28" fill="none" xmlns="http://www.w3.org/2000/svg">
<path d="M21.771 0H6.896C3.27163 0 0.333496 2.93813 0.333496 6.5625V21.4375C0.333496 25.0619 3.27163 28 6.896 28H21.771C25.3954 28 28.3335 25.0619 28.3335 21.4375V6.5625C28.3335 2.93813 25.3954 0 21.771 0Z" fill="#FCFAF7"/>
<path d="M21.771 0H6.896C3.27163 0 0.333496 2.93813 0.333496 6.5625V21.4375C0.333496 25.0619 3.27163 28 6.896 28H21.771C25.3954 28 28.3335 25.0619 28.3335 21.4375V6.5625C28.3335 2.93813 25.3954 0 21.771 0Z" fill="#FCFAF7"/>
<path d="M14.3345 3.0625C11.3641 3.0625 10.9912 3.07552 9.82462 3.12856C8.66021 3.18194 7.86539 3.36623 7.16998 3.63672C6.45051 3.91606 5.84031 4.2898 5.2324 4.89792C4.62395 5.50594 4.25021 6.11614 3.97 6.83528C3.69875 7.53091 3.51423 8.32606 3.46184 9.48992C3.40967 10.6566 3.396 11.0296 3.396 14.0001C3.396 16.9706 3.40912 17.3423 3.46206 18.5089C3.51565 19.6733 3.69995 20.4681 3.97021 21.1635C4.24978 21.883 4.62351 22.4932 5.23164 23.1011C5.83943 23.7095 6.44964 24.0842 7.16856 24.3635C7.86451 24.634 8.65945 24.8183 9.82364 24.8717C10.9903 24.9247 11.3629 24.9377 14.3332 24.9377C17.3039 24.9377 17.6756 24.9247 18.8422 24.8717C20.0066 24.8183 20.8023 24.634 21.4982 24.3635C22.2174 24.0842 22.8267 23.7095 23.4344 23.1011C24.0428 22.4932 24.4164 21.883 24.6968 21.1638C24.9656 20.4681 25.1502 19.6731 25.2049 18.5091C25.2573 17.3425 25.271 16.9706 25.271 14.0001C25.271 11.0296 25.2573 10.6568 25.2049 9.49014C25.1502 8.32573 24.9656 7.53102 24.6968 6.83561C24.4164 6.11614 24.0428 5.50594 23.4344 4.89792C22.826 4.28958 22.2176 3.91584 21.4976 3.63683C20.8003 3.36623 20.005 3.18183 18.8406 3.12856C17.6739 3.07552 17.3025 3.0625 14.3311 3.0625H14.3345ZM13.3533 5.03355C13.6445 5.03311 13.9695 5.03355 14.3345 5.03355C17.2549 5.03355 17.601 5.04405 18.7542 5.09644C19.8206 5.14522 20.3994 5.32339 20.785 5.47313C21.2954 5.67131 21.6593 5.90833 22.0419 6.29125C22.4247 6.67406 22.6616 7.03861 22.8604 7.54906C23.0101 7.93406 23.1885 8.51288 23.2371 9.57928C23.2894 10.7323 23.3008 11.0786 23.3008 13.9976C23.3008 16.9166 23.2894 17.263 23.2371 18.4159C23.1883 19.4823 23.0101 20.0611 22.8604 20.4462C22.6622 20.9567 22.4247 21.3201 22.0419 21.7027C21.6591 22.0855 21.2957 22.3225 20.785 22.5208C20.3999 22.6711 19.8206 22.8489 18.7542 22.8977C17.6012 22.95 17.2549 22.9614 14.3345 22.9614C11.4139 22.9614 11.0678 22.95 9.91486 22.8977C8.84845 22.8484 8.26964 22.6703 7.88376 22.5205C7.37342 22.3222 7.00876 22.0853 6.62595 21.7025C6.24314 21.3197 6.00623 20.956 5.8075 20.4454C5.65776 20.0603 5.47937 19.4814 5.43081 18.415C5.37842 17.262 5.36792 16.9157 5.36792 13.9949C5.36792 11.0741 5.37842 10.7296 5.43081 9.57655C5.47959 8.51014 5.65776 7.93133 5.8075 7.54578C6.00579 7.03533 6.24314 6.67078 6.62606 6.28797C7.00887 5.90516 7.37342 5.66814 7.88387 5.46952C8.26942 5.31912 8.84845 5.14139 9.91486 5.09239C10.9238 5.04678 11.3149 5.03311 13.3533 5.03081V5.03355ZM20.1729 6.84961C19.4483 6.84961 18.8604 7.43695 18.8604 8.16167C18.8604 8.88628 19.4483 9.47417 20.1729 9.47417C20.8975 9.47417 21.4854 8.88628 21.4854 8.16167C21.4854 7.43706 20.8975 6.84917 20.1729 6.84917V6.84961ZM14.3345 8.38316C11.2326 8.38316 8.71764 10.8981 8.71764 14.0001C8.71764 17.1021 11.2326 19.6159 14.3345 19.6159C17.4365 19.6159 19.9506 17.1021 19.9506 14.0001C19.9506 10.8982 17.4362 8.38316 14.3343 8.38316H14.3345ZM14.3345 10.3542C16.348 10.3542 17.9804 11.9864 17.9804 14.0001C17.9804 16.0136 16.348 17.646 14.3345 17.646C12.3209 17.646 10.6887 16.0136 10.6887 14.0001C10.6887 11.9864 12.3209 10.3542 14.3345 10.3542Z" fill="#3511A3"/>
</svg>
