<svg width="103" height="78" viewBox="0 0 103 78" fill="none" xmlns="http://www.w3.org/2000/svg">
<path d="M68.9514 25.3266C68.4183 22.6537 68.8224 20.1149 69.684 17.6108C70.4844 15.2832 71.1287 12.9217 70.9674 10.4176C70.8655 8.83423 70.6228 7.28818 69.8011 5.89231C68.9166 4.38953 67.3539 3.54607 65.8345 3.75651C66.1451 4.24952 66.4796 4.71961 66.7521 5.22281C67.3513 6.32847 67.7223 7.49352 67.5228 8.77823C67.0653 11.7227 63.81 13.581 61.0377 12.4872C58.8086 11.6081 56.9488 7.61487 59.497 5.00218C60.4155 4.06029 61.5164 3.39927 62.8109 2.87402C61.7286 2.02801 60.5971 1.52822 59.2712 1.44421C56.476 1.26687 53.8751 2.05262 51.3464 3.0887C47.9222 4.49136 44.5668 6.06711 41.123 7.41631C38.8176 8.32001 36.4349 9.05571 34.0386 9.68448C32.2985 10.141 30.4896 9.8474 28.7393 9.50034C25.9729 8.95133 23.2193 8.33868 20.4622 7.7413C16.7061 6.92669 13.1461 7.46552 9.7261 9.19402C7.33916 10.4007 5.11095 11.8203 3.09581 13.5895C0.947393 15.4758 0.9788 18.1157 2.52369 20.2489C2.61197 20.3703 2.71213 20.4831 2.79617 20.607C3.14928 21.128 3.60426 21.3359 4.26127 21.3062C5.53283 21.2485 6.80864 21.2892 8.13113 21.2892V22.7097H6.40968V29.2266H4.58383V22.7199C4.22646 22.7199 3.92937 22.6894 3.64161 22.7267C3.12297 22.7946 2.74269 22.6155 2.37854 22.2422C1.18592 21.0177 0.30482 19.638 0.0645985 17.9103C-0.201937 15.9968 0.358297 14.349 1.7088 12.9853C3.15523 11.5241 4.82829 10.3531 6.58454 9.30009C8.84161 7.9458 11.2048 6.84438 13.7903 6.25804C15.8972 5.7803 18.0082 5.86855 20.0981 6.25549C22.7049 6.73831 25.3066 7.26781 27.8794 7.90507C31.2128 8.73071 34.4418 8.55845 37.6114 7.24829C41.1357 5.79218 44.6644 4.3471 48.1777 2.86553C50.6436 1.82521 53.101 0.775555 55.7494 0.276608C57.2145 0.000828862 58.6855 -0.100149 60.1659 0.119626C61.6819 0.344492 62.9144 1.14637 64.1011 2.05517C64.3261 2.22742 64.669 2.35131 64.9466 2.33349C68.7426 2.0959 71.1558 3.92877 72.0072 7.67172C72.7279 10.8385 72.3731 13.9162 71.385 16.965C70.8443 18.635 70.1907 20.2888 70.1491 22.0716C70.1236 23.1476 70.2281 24.2261 70.2747 25.3037C70.3511 25.3487 70.4275 25.3928 70.5031 25.4378C70.8791 25.207 71.346 25.0534 71.6168 24.7327C73.4672 22.5451 75.9552 21.8238 78.6596 21.6236C80.2325 21.5073 81.4837 22.1828 82.4794 23.3911C83.6177 24.7725 84.0268 26.4179 84.3808 28.1252C84.9826 31.0289 85.413 33.9581 85.553 36.9085C85.6999 40.0125 85.6243 43.1292 85.5989 46.2392C85.5938 46.8255 85.4198 47.4254 85.2398 47.9923C84.6108 49.9685 82.6364 50.6576 80.8284 50.4997C79.4813 50.3826 78.4576 49.6546 77.6096 48.6363C76.5451 47.3584 76.0536 45.8319 75.7167 44.2476C75.3865 42.6956 74.906 41.2081 73.9918 39.8971C73.7847 39.6001 73.5046 39.298 73.1871 39.1461C71.5921 38.3824 69.9114 38.0778 68.1679 38.5021C66.3429 38.9459 65.0043 40.0142 64.3235 41.7995C63.7777 43.2311 63.2879 44.6846 62.765 46.1246C62.0987 47.9583 60.8628 49.2787 59.1269 50.151C58.2136 50.61 57.3019 50.6321 56.3656 50.2341C54.1867 49.3075 53.1969 47.5315 52.8701 45.3015C52.5161 42.8848 52.7835 40.4834 53.0382 38.0727C53.4889 33.8011 54.4541 29.6305 55.353 25.4446C55.6679 23.9775 56.56 22.9914 57.8316 22.2778C60.2533 20.9184 62.4051 21.0907 64.5451 22.8421C65.1545 23.341 65.7479 23.8587 66.3667 24.3449C67.1315 24.9457 68.0881 25.3012 68.9548 25.3216L68.9514 25.3266ZM61.5274 36.2085C61.5105 35.9658 61.4901 35.7231 61.4774 35.4795C61.4426 34.8109 61.6344 34.6038 62.3126 34.5852C62.5936 34.5775 62.8746 34.5767 63.1555 34.5869C63.557 34.6013 63.7463 34.3934 63.7556 34.0141C63.7701 33.415 63.7726 32.8151 63.7743 32.2152C63.7752 31.8995 63.6215 31.7273 63.2939 31.7264C62.9569 31.7264 62.6199 31.7179 62.2829 31.7196C61.3008 31.7239 61.2193 31.6466 61.21 30.6878C61.2049 30.1074 61.1981 29.5261 61.1913 28.9457C61.1837 28.2592 61.0538 28.1362 60.3501 28.1727C60.0513 28.188 59.7525 28.255 59.4554 28.2457C58.9147 28.2287 58.7271 28.5036 58.7135 29.0009C58.6957 29.656 58.6405 30.3093 58.6219 30.9644C58.6091 31.4167 58.3451 31.5873 57.9479 31.6331C57.4649 31.6891 56.981 31.7374 56.4981 31.7917C56.1348 31.8325 55.965 32.0378 56.0134 32.4027C56.0872 32.9585 56.1365 33.5219 56.2706 34.0633C56.3122 34.2305 56.5804 34.4138 56.7739 34.4553C57.1534 34.5377 57.5532 34.5292 57.9453 34.5512C58.3426 34.5733 58.5684 34.7727 58.604 35.1724C58.6414 35.5831 58.694 35.9929 58.7067 36.4045C58.756 37.9531 58.7865 38.0167 60.3085 37.808C61.6785 37.6204 61.5274 37.8003 61.5266 36.435C61.5266 36.3603 61.5266 36.2848 61.5266 36.2102L61.5274 36.2085ZM59.5972 8.03405C59.7746 8.59664 59.8875 9.19147 60.143 9.71588C60.8356 11.1397 61.9943 11.6277 63.5986 11.2475C65.1053 10.8911 66.1332 9.66921 66.1443 8.23346C66.157 6.55503 65.264 5.30087 64.2106 4.13072C64.1232 4.03314 63.8567 4.01786 63.7081 4.06793C62.4883 4.47608 61.3789 5.07855 60.4808 6.02129C59.9545 6.5737 59.671 7.22708 59.5972 8.03405ZM80.0186 27.9953C79.9099 27.7094 79.7784 27.1358 79.4898 26.6563C79.0543 25.9317 78.1825 25.7458 77.4194 26.1073C75.906 26.8226 75.5927 29.3683 76.8872 30.4341C77.5213 30.9559 78.3515 30.9534 78.9966 30.4103C79.6519 29.8588 79.9405 29.1273 80.0186 27.9953ZM83.1355 33.8164C83.1355 33.8334 83.1508 33.7001 83.133 33.5712C83.0252 32.8109 82.6296 32.2483 81.937 31.9148C81.2884 31.6025 80.69 31.7663 80.1502 32.1795C78.8752 33.1554 79.1018 35.4745 80.5763 36.0998C80.9727 36.2679 81.5626 36.2466 81.9658 36.0778C82.8554 35.7053 83.1703 34.9068 83.1355 33.8164ZM76.6054 33.8011C76.5986 32.6004 75.7625 31.6382 74.749 31.6653C73.7355 31.6925 72.8883 32.6827 72.8943 33.8342C72.9002 34.9874 73.7635 35.9556 74.7872 35.9573C75.8228 35.9581 76.613 35.0222 76.6062 33.802L76.6054 33.8011Z" fill="#FCFAF7"/>
<path d="M29.5681 29.2114C28.0877 29.477 26.6617 29.7324 25.2195 29.9912C25.0803 29.3251 25.0031 28.7099 24.8206 28.127C24.2731 26.3773 23.2901 25.0111 21.3437 24.709C18.9339 24.3356 16.9306 25.6458 16.8576 28.1991C16.7634 31.4804 16.8126 34.766 16.8084 38.0491C16.8058 39.9821 16.7727 41.9159 16.8389 43.8464C16.9136 46.0365 18.3312 47.4391 20.303 47.5299C22.931 47.6504 24.3393 46.1298 24.4666 43.9753C24.5676 42.2579 24.487 40.5294 24.487 38.7423H20.2572V34.9459H29.3211C29.3304 35.1216 29.3483 35.3023 29.3483 35.483C29.35 38.1102 29.3109 40.7381 29.3576 43.3644C29.4391 47.8625 26.0004 51.1091 21.7995 51.4774C20.3395 51.6055 18.9152 51.5113 17.5256 51.0675C14.0904 49.9678 11.9513 47.0946 11.9292 43.4755C11.8995 38.5777 11.8987 33.6799 11.9292 28.7829C11.9547 24.586 14.9154 21.3343 19.0858 20.8125C20.9414 20.58 22.7621 20.6708 24.4861 21.4294C27.4732 22.7421 28.9171 25.2046 29.4501 28.3077C29.4994 28.5962 29.5274 28.8881 29.5707 29.2131L29.5681 29.2114Z" fill="#FCFAF7"/>
<path d="M38.9246 45.372C38.4645 47.2244 38.0112 49.0487 37.5579 50.8748H32.8206C35.2414 41.0461 37.6547 31.2479 40.0866 21.3724C40.764 21.3724 41.4533 21.3724 42.1417 21.3724C42.892 21.3724 43.6424 21.3903 44.3919 21.3648C44.7748 21.3521 44.9344 21.4615 45.0311 21.8612C46.239 26.8541 47.4732 31.841 48.6956 36.8296C49.8025 41.3473 50.9034 45.8667 52.006 50.3852C52.0408 50.5269 52.0604 50.6729 52.0943 50.857H47.3892C46.9707 49.1633 46.5455 47.4823 46.1482 45.7946C46.0752 45.4848 45.9767 45.3618 45.6397 45.3643C43.4277 45.3796 41.2156 45.372 38.9246 45.372ZM42.5483 31.1197C42.5084 31.1231 42.4676 31.1257 42.4277 31.1291C41.5874 34.5419 40.7462 37.954 39.8965 41.4033H45.0685C44.2222 37.9489 43.3852 34.5343 42.5483 31.1197Z" fill="#FCFAF7"/>
<path d="M88.1713 21.3995H102.022V25.3173H93.0522V34.11H99.9855V38.1414H93.0573V46.94H102.456V50.8459H88.1713V21.3995Z" fill="#FCFAF7"/>
<path d="M60.7518 55.185C63.1897 55.2928 65.6064 55.2104 67.9619 55.5524C70.8887 55.9775 72.7833 58.4842 72.7723 61.4498C72.7689 62.2899 72.7748 63.1495 72.611 63.9666C72.2978 65.5254 71.3921 66.7219 70.0534 67.5832C69.8811 67.6935 69.7079 67.8012 69.4822 67.9429C70.6595 71.1275 71.8351 74.3079 73.0456 77.5808C71.8538 77.5808 70.7232 77.5969 69.5942 77.5596C69.4618 77.5553 69.2869 77.2787 69.2182 77.0954C68.2496 74.5056 67.2752 71.9175 66.3542 69.3108C66.1428 68.7117 65.8576 68.4614 65.2346 68.5666C64.9799 68.6091 64.7125 68.5734 64.3832 68.5734V77.5477H60.7518V55.185ZM64.3857 65.6909C65.2193 65.6417 66.0036 65.6306 66.7778 65.5415C67.922 65.41 68.7479 64.7456 68.9219 63.634C69.0891 62.5631 69.0756 61.4329 68.9398 60.3544C68.7963 59.2224 67.9772 58.5283 66.8575 58.3755C66.0562 58.2661 65.2278 58.3543 64.3857 58.3543V65.6909Z" fill="#FCFAF7"/>
<path d="M89.441 71.6062C90.536 71.4085 91.5953 71.2176 92.6657 71.0241C92.8032 71.6087 92.8762 72.151 93.0579 72.6541C93.7726 74.6389 95.1902 75.3848 97.1535 74.9147C98.9938 74.4743 99.6907 72.2664 98.4955 70.6694C98.0423 70.0635 97.4591 69.5289 96.8539 69.069C95.8709 68.3223 94.8073 67.6833 93.804 66.9621C92.4739 66.0058 91.2685 64.9425 90.5147 63.4228C89.0615 60.4936 89.7083 56.2729 94.2496 55.0764C95.7411 54.6836 97.2647 54.6428 98.7281 55.2054C100.81 56.0056 101.984 57.5644 102.364 59.8266C101.269 60.0405 100.199 60.2492 99.0914 60.4656C99.0575 60.323 99.0252 60.2034 99.0023 60.0829C98.7723 58.911 97.9718 58.0464 96.9608 57.8809C95.6553 57.6671 94.422 58.1253 93.8736 59.0281C93.2972 59.976 93.3651 61.326 94.135 62.2433C94.624 62.8262 95.1902 63.3659 95.7971 63.825C97.2155 64.8967 98.7239 65.8522 100.112 66.9604C101.462 68.0389 102.354 69.4415 102.644 71.204C103.202 74.6024 101.139 77.4782 97.6951 77.8982C96.6145 78.0297 95.4669 78.0543 94.4092 77.8371C91.6361 77.2677 90.1828 75.3356 89.5615 72.6796C89.5106 72.4615 89.4758 72.2384 89.4452 72.0169C89.4299 71.9083 89.4427 71.7954 89.4427 71.6079L89.441 71.6062Z" fill="#FCFAF7"/>
<path d="M31.9708 55.1841C34.4205 55.2936 36.8533 55.2198 39.2292 55.5558C41.9896 55.9453 43.8554 58.2525 43.9819 61.0366C44.0353 62.2084 44.0532 63.4125 43.8477 64.5589C43.3868 67.1224 41.1128 69.0596 38.4958 69.2412C37.5714 69.3057 36.6385 69.2514 35.6488 69.2514V77.5553H31.9708V55.1841ZM35.6641 66.3222C36.383 66.3222 37.0392 66.3434 37.6936 66.318C39.0645 66.2645 40.0959 65.3778 40.2478 64.0133C40.3573 63.0307 40.3913 62.0252 40.3191 61.0408C40.2079 59.5262 39.5068 58.6293 38.2225 58.418C37.3932 58.2813 36.5231 58.3925 35.6641 58.3925V66.3222Z" fill="#FCFAF7"/>
<path d="M15.9549 55.2869C17.1466 55.2869 18.2858 55.2716 19.4232 55.3055C19.5743 55.3098 19.7806 55.5346 19.8553 55.7043C20.7449 57.7222 21.6141 59.7494 22.4901 61.7732C22.5699 61.9565 22.6599 62.1355 22.7829 62.3952C23.0715 61.7774 23.333 61.2233 23.5902 60.6675C24.3439 59.0383 25.1105 57.415 25.8388 55.7748C26.0119 55.3853 26.2216 55.2606 26.6367 55.2758C27.5534 55.3089 28.4719 55.286 29.4905 55.286C29.2519 55.824 29.0431 56.3094 28.8224 56.7888C27.4456 59.7782 26.0747 62.7711 24.6775 65.7503C24.4984 66.1313 24.5069 66.4326 24.6682 66.8025C26.1707 70.2459 27.6595 73.6953 29.1526 77.1421C29.2036 77.2601 29.2528 77.3789 29.3368 77.5783C28.1179 77.5783 26.9507 77.5918 25.7844 77.5596C25.6554 77.5562 25.489 77.3135 25.416 77.148C24.4543 74.9579 23.507 72.7619 22.5071 70.4547C22.3118 70.8891 22.159 71.2388 21.9986 71.585C21.143 73.434 20.2755 75.2778 19.436 77.1345C19.2815 77.4764 19.1024 77.6029 18.7229 77.5901C17.7739 77.5596 16.8232 77.58 15.7842 77.58C16.3419 76.3733 16.8648 75.2431 17.3869 74.1128C18.4598 71.7861 19.5251 69.4559 20.6124 67.136C20.7873 66.7626 20.7856 66.4555 20.6218 66.0804C19.1159 62.6387 17.6279 59.1893 16.1348 55.7417C16.0771 55.6085 16.0287 55.4718 15.9557 55.2852L15.9549 55.2869Z" fill="#FCFAF7"/>
<path d="M57.281 55.3246V58.3047H50.5166V64.9599H55.7191V68.0053H50.5132V74.5425H57.5721V77.5413H46.8267V55.3254H57.2801L57.281 55.3246Z" fill="#FCFAF7"/>
<path d="M3.35394 55.3064H13.7718V58.3162H6.99886V64.9663H12.2082V67.9888H6.99717V74.5252H14.1147V77.5435H3.35394V55.3064Z" fill="#FCFAF7"/>
<path d="M87.7344 55.3293V58.2967H82.6983V77.5512H78.999V58.3375H73.9391V55.3293H87.7344Z" fill="#FCFAF7"/>
<path d="M8.27488 39.4907H6.51354V36.2934H4.95082V39.4729H3.15637V31.5661H4.90413V34.805H6.48807V31.5746H8.27488V39.4907Z" fill="#FCFAF7"/>
<path d="M7.71856 42.1564V43.5488H5.52431V45.4267H7.14729V46.82H5.5294V48.7233H7.82636V50.0606H3.72052V42.1564H7.71856Z" fill="#FCFAF7"/>
</svg>
