<svg width="24" height="25" viewBox="0 0 24 25" fill="none" xmlns="http://www.w3.org/2000/svg">
<path d="M20.25 5H15.75V3.875C15.75 3.37772 15.5525 2.90081 15.2008 2.54917C14.8492 2.19754 14.3723 2 13.875 2H10.125C9.62772 2 9.15081 2.19754 8.79917 2.54917C8.44754 2.90081 8.25 3.37772 8.25 3.875V5H3.75C3.55109 5 3.36032 5.07902 3.21967 5.21967C3.07902 5.36032 3 5.55109 3 5.75C3 5.94891 3.07902 6.13968 3.21967 6.28033C3.36032 6.42098 3.55109 6.5 3.75 6.5H4.54688L5.4375 20.7931C5.50406 22.0517 6.46875 23 7.6875 23H16.3125C17.5373 23 18.4828 22.0728 18.5625 20.7969L19.4531 6.5H20.25C20.4489 6.5 20.6397 6.42098 20.7803 6.28033C20.921 6.13968 21 5.94891 21 5.75C21 5.55109 20.921 5.36032 20.7803 5.21967C20.6397 5.07902 20.4489 5 20.25 5ZM9.02672 20H9C8.80563 20.0001 8.61881 19.9248 8.4789 19.7899C8.33899 19.6549 8.25692 19.471 8.25 19.2767L7.875 8.77672C7.86791 8.57781 7.94014 8.38423 8.07578 8.23856C8.21142 8.0929 8.39937 8.00709 8.59828 8C8.79719 7.99291 8.99077 8.06514 9.13644 8.20078C9.2821 8.33642 9.36791 8.52437 9.375 8.72328L9.75 19.2233C9.75357 19.3218 9.73769 19.42 9.70326 19.5124C9.66884 19.6048 9.61654 19.6894 9.54937 19.7616C9.48219 19.8337 9.40146 19.8919 9.31178 19.9328C9.2221 19.9737 9.12523 19.9966 9.02672 20ZM12.75 19.25C12.75 19.4489 12.671 19.6397 12.5303 19.7803C12.3897 19.921 12.1989 20 12 20C11.8011 20 11.6103 19.921 11.4697 19.7803C11.329 19.6397 11.25 19.4489 11.25 19.25V8.75C11.25 8.55109 11.329 8.36032 11.4697 8.21967C11.6103 8.07902 11.8011 8 12 8C12.1989 8 12.3897 8.07902 12.5303 8.21967C12.671 8.36032 12.75 8.55109 12.75 8.75V19.25ZM14.25 5H9.75V3.875C9.74943 3.8256 9.75875 3.77658 9.77739 3.73083C9.79604 3.68507 9.82364 3.64351 9.85858 3.60858C9.89351 3.57364 9.93507 3.54604 9.98083 3.52739C10.0266 3.50875 10.0756 3.49943 10.125 3.5H13.875C13.9244 3.49943 13.9734 3.50875 14.0192 3.52739C14.0649 3.54604 14.1065 3.57364 14.1414 3.60858C14.1764 3.64351 14.204 3.68507 14.2226 3.73083C14.2413 3.77658 14.2506 3.8256 14.25 3.875V5ZM15.75 19.2767C15.7431 19.471 15.661 19.6549 15.5211 19.7899C15.3812 19.9248 15.1944 20.0001 15 20H14.9728C14.8743 19.9965 14.7775 19.9736 14.6879 19.9327C14.5983 19.8917 14.5176 19.8335 14.4505 19.7614C14.3833 19.6893 14.3311 19.6046 14.2967 19.5123C14.2623 19.42 14.2464 19.3217 14.25 19.2233L14.625 8.72328C14.6285 8.62479 14.6514 8.52795 14.6923 8.4383C14.7332 8.34865 14.7914 8.26794 14.8636 8.20078C14.9357 8.13361 15.0203 8.08132 15.1127 8.04687C15.205 8.01242 15.3032 7.99649 15.4017 8C15.5002 8.00351 15.597 8.02638 15.6867 8.06731C15.7763 8.10825 15.8571 8.16644 15.9242 8.23856C15.9914 8.31069 16.0437 8.39534 16.0781 8.48767C16.1126 8.58001 16.1285 8.67823 16.125 8.77672L15.75 19.2767Z" fill="url(#paint0_linear_264_15725)"/>
<defs>
<linearGradient id="paint0_linear_264_15725" x1="12" y1="2" x2="12" y2="23" gradientUnits="userSpaceOnUse">
<stop offset="1" stop-color="#3511A3"/>
<stop offset="1" stop-color="#3511A3" stop-opacity="0.6"/>
</linearGradient>
</defs>
</svg>
