<svg width="366" height="52" viewBox="0 0 366 52" fill="none" xmlns="http://www.w3.org/2000/svg">
<rect x="1" y="1" width="364" height="50" rx="9" fill="#FCFAF7"/>
<rect x="1" y="1" width="364" height="50" rx="9" stroke="#FCFAF7" stroke-width="2"/>
<g clip-path="url(#clip0_306_27396)">
<path d="M39.5709 37.1895L33.2234 30.842C34.7516 28.8076 35.5765 26.3313 35.5738 23.7869C35.5738 17.2876 30.2861 12 23.7869 12C17.2876 12 12 17.2876 12 23.7869C12 30.2861 17.2876 35.5738 23.7869 35.5738C26.3313 35.5765 28.8076 34.7516 30.842 33.2234L37.1895 39.5709C37.5108 39.8581 37.9298 40.0114 38.3606 39.9993C38.7914 39.9873 39.2013 39.8108 39.506 39.506C39.8108 39.2013 39.9873 38.7914 39.9993 38.3606C40.0114 37.9298 39.8581 37.5108 39.5709 37.1895ZM15.3677 23.7869C15.3677 22.1217 15.8615 20.494 16.7866 19.1094C17.7117 17.7249 19.0266 16.6458 20.565 16.0086C22.1034 15.3713 23.7962 15.2046 25.4294 15.5295C27.0625 15.8543 28.5627 16.6562 29.7402 17.8336C30.9176 19.0111 31.7194 20.5112 32.0443 22.1444C32.3692 23.7775 32.2024 25.4704 31.5652 27.0088C30.928 28.5472 29.8489 29.8621 28.4643 30.7872C27.0798 31.7123 25.452 32.2061 23.7869 32.2061C21.5548 32.2034 19.4149 31.3155 17.8366 29.7372C16.2582 28.1589 15.3704 26.019 15.3677 23.7869Z" fill="#3511A3"/>
</g>
<path d="M58.936 35.288C57.576 35.288 56.416 35.032 55.456 34.52C54.496 33.992 53.68 33.272 53.008 32.36L54.496 31.112C55.088 31.896 55.744 32.496 56.464 32.912C57.184 33.312 58.032 33.512 59.008 33.512C60.208 33.512 61.12 33.224 61.744 32.648C62.384 32.072 62.704 31.304 62.704 30.344C62.704 29.544 62.464 28.928 61.984 28.496C61.504 28.064 60.712 27.72 59.608 27.464L58.24 27.152C56.704 26.8 55.528 26.272 54.712 25.568C53.912 24.848 53.512 23.84 53.512 22.544C53.512 21.808 53.648 21.152 53.92 20.576C54.192 20 54.568 19.52 55.048 19.136C55.544 18.752 56.128 18.464 56.8 18.272C57.488 18.064 58.24 17.96 59.056 17.96C60.32 17.96 61.4 18.192 62.296 18.656C63.208 19.12 63.976 19.8 64.6 20.696L63.088 21.8C62.624 21.16 62.064 20.656 61.408 20.288C60.752 19.92 59.936 19.736 58.96 19.736C57.888 19.736 57.04 19.968 56.416 20.432C55.808 20.88 55.504 21.56 55.504 22.472C55.504 23.272 55.76 23.88 56.272 24.296C56.8 24.696 57.592 25.016 58.648 25.256L60.016 25.568C61.664 25.936 62.856 26.496 63.592 27.248C64.328 28 64.696 29 64.696 30.248C64.696 31.016 64.56 31.712 64.288 32.336C64.032 32.96 63.656 33.488 63.16 33.92C62.664 34.352 62.056 34.688 61.336 34.928C60.632 35.168 59.832 35.288 58.936 35.288ZM72.6413 35.288C71.7933 35.288 71.0253 35.136 70.3373 34.832C69.6653 34.528 69.0813 34.096 68.5853 33.536C68.1053 32.96 67.7293 32.28 67.4573 31.496C67.2013 30.696 67.0733 29.8 67.0733 28.808C67.0733 27.832 67.2013 26.944 67.4573 26.144C67.7293 25.344 68.1053 24.664 68.5853 24.104C69.0813 23.528 69.6653 23.088 70.3373 22.784C71.0253 22.48 71.7933 22.328 72.6413 22.328C73.4733 22.328 74.2173 22.48 74.8733 22.784C75.5293 23.088 76.0893 23.512 76.5533 24.056C77.0173 24.584 77.3693 25.216 77.6093 25.952C77.8653 26.688 77.9933 27.496 77.9933 28.376V29.288H69.0893V29.864C69.0893 30.392 69.1693 30.888 69.3293 31.352C69.5053 31.8 69.7453 32.192 70.0493 32.528C70.3693 32.864 70.7533 33.128 71.2013 33.32C71.6653 33.512 72.1853 33.608 72.7613 33.608C73.5453 33.608 74.2253 33.424 74.8013 33.056C75.3933 32.688 75.8493 32.16 76.1693 31.472L77.5373 32.456C77.1373 33.304 76.5133 33.992 75.6653 34.52C74.8173 35.032 73.8093 35.288 72.6413 35.288ZM72.6413 23.936C72.1133 23.936 71.6333 24.032 71.2013 24.224C70.7693 24.4 70.3933 24.656 70.0733 24.992C69.7693 25.328 69.5293 25.728 69.3533 26.192C69.1773 26.64 69.0893 27.136 69.0893 27.68V27.848H75.9293V27.584C75.9293 26.48 75.6253 25.6 75.0173 24.944C74.4253 24.272 73.6333 23.936 72.6413 23.936ZM90.1572 35C89.4372 35 88.9172 34.808 88.5972 34.424C88.2932 34.04 88.1012 33.56 88.0212 32.984H87.9012C87.6292 33.752 87.1812 34.328 86.5572 34.712C85.9332 35.096 85.1892 35.288 84.3252 35.288C83.0132 35.288 81.9892 34.952 81.2532 34.28C80.5332 33.608 80.1732 32.696 80.1732 31.544C80.1732 30.376 80.5972 29.48 81.4452 28.856C82.3092 28.232 83.6452 27.92 85.4532 27.92H87.9012V26.696C87.9012 25.816 87.6612 25.144 87.1812 24.68C86.7012 24.216 85.9652 23.984 84.9732 23.984C84.2212 23.984 83.5892 24.152 83.0772 24.488C82.5812 24.824 82.1652 25.272 81.8292 25.832L80.6772 24.752C81.0132 24.08 81.5492 23.512 82.2852 23.048C83.0212 22.568 83.9492 22.328 85.0692 22.328C86.5732 22.328 87.7412 22.696 88.5732 23.432C89.4052 24.168 89.8212 25.192 89.8212 26.504V33.32H91.2372V35H90.1572ZM84.6372 33.656C85.1172 33.656 85.5572 33.6 85.9572 33.488C86.3572 33.376 86.7012 33.216 86.9892 33.008C87.2772 32.8 87.5012 32.56 87.6612 32.288C87.8212 32.016 87.9012 31.72 87.9012 31.4V29.36H85.3572C84.2532 29.36 83.4452 29.52 82.9332 29.84C82.4372 30.16 82.1892 30.624 82.1892 31.232V31.736C82.1892 32.344 82.4052 32.816 82.8372 33.152C83.2852 33.488 83.8852 33.656 84.6372 33.656ZM93.9775 35V22.616H95.8975V24.896H96.0175C96.2415 24.304 96.6415 23.776 97.2175 23.312C97.7935 22.848 98.5855 22.616 99.5935 22.616H100.338V24.536H99.2095C98.1695 24.536 97.3535 24.736 96.7615 25.136C96.1855 25.52 95.8975 26.008 95.8975 26.6V35H93.9775ZM107.281 35.288C106.417 35.288 105.641 35.136 104.953 34.832C104.265 34.528 103.681 34.096 103.201 33.536C102.737 32.976 102.377 32.296 102.121 31.496C101.881 30.696 101.761 29.8 101.761 28.808C101.761 27.816 101.881 26.92 102.121 26.12C102.377 25.32 102.737 24.64 103.201 24.08C103.681 23.52 104.265 23.088 104.953 22.784C105.641 22.48 106.417 22.328 107.281 22.328C108.513 22.328 109.497 22.6 110.233 23.144C110.985 23.672 111.545 24.368 111.913 25.232L110.305 26.048C110.081 25.408 109.713 24.912 109.201 24.56C108.689 24.208 108.049 24.032 107.281 24.032C106.705 24.032 106.201 24.128 105.769 24.32C105.337 24.496 104.977 24.752 104.689 25.088C104.401 25.408 104.185 25.8 104.041 26.264C103.897 26.712 103.825 27.208 103.825 27.752V29.864C103.825 30.952 104.113 31.848 104.689 32.552C105.281 33.24 106.145 33.584 107.281 33.584C108.833 33.584 109.953 32.864 110.641 31.424L112.033 32.36C111.633 33.256 111.033 33.968 110.233 34.496C109.449 35.024 108.465 35.288 107.281 35.288ZM114.743 17.24H116.663V24.632H116.759C117.063 23.928 117.487 23.368 118.031 22.952C118.591 22.536 119.335 22.328 120.263 22.328C121.543 22.328 122.551 22.744 123.287 23.576C124.039 24.392 124.415 25.552 124.415 27.056V35H122.495V27.392C122.495 25.168 121.559 24.056 119.687 24.056C119.303 24.056 118.927 24.104 118.559 24.2C118.207 24.296 117.887 24.44 117.599 24.632C117.311 24.824 117.079 25.072 116.903 25.376C116.743 25.664 116.663 26.008 116.663 26.408V35H114.743V17.24Z" fill="#848189"/>
<defs>
<clipPath id="clip0_306_27396">
<rect width="28" height="28" fill="white" transform="translate(12 12)"/>
</clipPath>
</defs>
</svg>
