<svg width="28" height="28" viewBox="0 0 28 28" fill="none" xmlns="http://www.w3.org/2000/svg">
<rect width="28" height="28" rx="4" fill="#EFECF2"/>
<path d="M24 20.6057C24 20.8046 23.921 20.9953 23.7803 21.136C23.6397 21.2766 23.4489 21.3557 23.25 21.3557H18.15C17.983 21.9785 17.6151 22.5289 17.1034 22.9214C16.5918 23.314 15.9649 23.5267 15.32 23.5267C14.6751 23.5267 14.0482 23.314 13.5366 22.9214C13.0249 22.5289 12.657 21.9785 12.49 21.3557H4.75C4.55109 21.3557 4.36032 21.2766 4.21967 21.136C4.07902 20.9953 4 20.8046 4 20.6057C4 20.4068 4.07902 20.216 4.21967 20.0753C4.36032 19.9347 4.55109 19.8557 4.75 19.8557H12.49C12.657 19.2328 13.0249 18.6824 13.5366 18.2899C14.0482 17.8974 14.6751 17.6846 15.32 17.6846C15.9649 17.6846 16.5918 17.8974 17.1034 18.2899C17.6151 18.6824 17.983 19.2328 18.15 19.8557H23.25C23.4489 19.8557 23.6397 19.9347 23.7803 20.0753C23.921 20.216 24 20.4068 24 20.6057ZM24 7.39566C24 7.59458 23.921 7.78534 23.7803 7.92599C23.6397 8.06665 23.4489 8.14566 23.25 8.14566H20.8C20.633 8.76854 20.2651 9.31891 19.7534 9.71143C19.2418 10.104 18.6149 10.3167 17.97 10.3167C17.3251 10.3167 16.6982 10.104 16.1866 9.71143C15.6749 9.31891 15.307 8.76854 15.14 8.14566H4.75C4.65151 8.14566 4.55398 8.12626 4.46299 8.08857C4.37199 8.05088 4.28931 7.99564 4.21967 7.92599C4.15003 7.85635 4.09478 7.77367 4.05709 7.68268C4.0194 7.59168 4 7.49415 4 7.39566C4 7.29717 4.0194 7.19964 4.05709 7.10865C4.09478 7.01766 4.15003 6.93498 4.21967 6.86533C4.28931 6.79569 4.37199 6.74044 4.46299 6.70275C4.55398 6.66506 4.65151 6.64566 4.75 6.64566H15.14C15.307 6.02279 15.6749 5.47242 16.1866 5.07989C16.6982 4.68737 17.3251 4.47461 17.97 4.47461C18.6149 4.47461 19.2418 4.68737 19.7534 5.07989C20.2651 5.47242 20.633 6.02279 20.8 6.64566H23.25C23.3489 6.64432 23.447 6.6628 23.5386 6.70001C23.6302 6.73723 23.7134 6.79242 23.7833 6.86234C23.8532 6.93225 23.9084 7.01546 23.9457 7.10707C23.9829 7.19867 24.0013 7.2968 24 7.39566ZM24 13.9957C24.0013 14.0945 23.9829 14.1927 23.9457 14.2843C23.9084 14.3759 23.8532 14.4591 23.7833 14.529C23.7134 14.5989 23.6302 14.6541 23.5386 14.6913C23.447 14.7285 23.3489 14.747 23.25 14.7457H11.55C11.383 15.3685 11.0151 15.9189 10.5034 16.3114C9.99176 16.704 9.36489 16.9167 8.72 16.9167C8.07511 16.9167 7.44824 16.704 6.93658 16.3114C6.42491 15.9189 6.05704 15.3685 5.89 14.7457H4.75C4.55109 14.7457 4.36032 14.6666 4.21967 14.526C4.07902 14.3853 4 14.1946 4 13.9957C4 13.7968 4.07902 13.606 4.21967 13.4653C4.36032 13.3247 4.55109 13.2457 4.75 13.2457H5.89C6.05704 12.6228 6.42491 12.0724 6.93658 11.6799C7.44824 11.2874 8.07511 11.0746 8.72 11.0746C9.36489 11.0746 9.99176 11.2874 10.5034 11.6799C11.0151 12.0724 11.383 12.6228 11.55 13.2457H23.25C23.4489 13.2457 23.6397 13.3247 23.7803 13.4653C23.921 13.606 24 13.7968 24 13.9957Z" fill="#3511A3"/>
</svg>
