<svg width="29" height="20" viewBox="0 0 29 20" fill="none" xmlns="http://www.w3.org/2000/svg">
<path d="M27.6479 2.69694L10.9007 19.5357C10.7548 19.6829 10.5815 19.7996 10.3907 19.8793C10.1998 19.959 9.99522 20 9.78858 20C9.58193 20 9.37733 19.959 9.18649 19.8793C8.99564 19.7996 8.82232 19.6829 8.67646 19.5357L1.34957 12.1687C1.20352 12.0219 1.08768 11.8476 1.00864 11.6557C0.929597 11.4638 0.888916 11.2582 0.888916 11.0505C0.888916 10.8429 0.929597 10.6372 1.00864 10.4454C1.08768 10.2535 1.20352 10.0792 1.34957 9.93234C1.49562 9.7855 1.669 9.66901 1.85981 9.58954C2.05063 9.51007 2.25515 9.46917 2.46169 9.46917C2.66823 9.46917 2.87274 9.51007 3.06356 9.58954C3.25438 9.66901 3.42776 9.7855 3.5738 9.93234L9.78988 16.1824L25.4262 0.463173C25.7212 0.166608 26.1212 0 26.5384 0C26.9555 0 27.3555 0.166608 27.6505 0.463173C27.9454 0.759737 28.1111 1.16197 28.1111 1.58137C28.1111 2.00078 27.9454 2.403 27.6505 2.69957L27.6479 2.69694Z" fill="#FCFAF7"/>
</svg>
