<svg width="32" height="32" viewBox="0 0 32 32" fill="none" xmlns="http://www.w3.org/2000/svg">
<g clip-path="url(#clip0_79_8272)">
<path fill-rule="evenodd" clip-rule="evenodd" d="M16 2.66675C17.368 2.66675 18.7712 2.70341 20.1312 2.76341L21.7376 2.84341L23.2752 2.93841L24.7152 3.04008L26.0304 3.14675C27.4577 3.26054 28.8007 3.89499 29.8232 4.93848C30.8458 5.98197 31.4823 7.36765 31.6208 8.85175L31.6848 9.56008L31.8048 11.0767C31.9168 12.6484 32 14.3617 32 16.0001C32 17.6384 31.9168 19.3517 31.8048 20.9234L31.6848 22.4401C31.664 22.6834 31.6432 22.9184 31.6208 23.1484C31.4822 24.6328 30.8455 26.0187 29.8226 27.0622C28.7998 28.1057 27.4564 28.74 26.0288 28.8534L24.7168 28.9584L23.2768 29.0617L21.7376 29.1567L20.1312 29.2367C18.7549 29.299 17.3776 29.3313 16 29.3334C14.6224 29.3313 13.2451 29.299 11.8688 29.2367L10.2624 29.1567L8.7248 29.0617L7.2848 28.9584L5.9696 28.8534C4.54232 28.7396 3.19928 28.1052 2.17676 27.0617C1.15423 26.0182 0.517719 24.6325 0.3792 23.1484L0.3152 22.4401L0.1952 20.9234C0.0728601 19.2853 0.00775043 17.6431 0 16.0001C0 14.3617 0.0832 12.6484 0.1952 11.0767L0.3152 9.56008C0.336 9.31675 0.3568 9.08175 0.3792 8.85175C0.517665 7.36791 1.15395 5.98244 2.17615 4.93899C3.19835 3.89553 4.54101 3.26092 5.968 3.14675L7.2816 3.04008L8.7216 2.93841L10.2608 2.84341L11.8672 2.76341C13.244 2.70114 14.6219 2.66891 16 2.66675ZM12.8 11.9584V20.0417C12.8 20.8117 13.6 21.2917 14.24 20.9084L20.96 16.8667C21.1062 16.7791 21.2277 16.6528 21.3121 16.5006C21.3966 16.3485 21.4411 16.1758 21.4411 16.0001C21.4411 15.8243 21.3966 15.6517 21.3121 15.4995C21.2277 15.3474 21.1062 15.2211 20.96 15.1334L14.24 11.0934C14.094 11.0056 13.9284 10.9594 13.7598 10.9594C13.5913 10.9595 13.4257 11.0057 13.2797 11.0936C13.1338 11.1814 13.0126 11.3077 12.9284 11.4599C12.8442 11.612 12.7999 11.7845 12.8 11.9601V11.9584Z" fill="#3511A3"/>
</g>
<defs>
<clipPath id="clip0_79_8272">
<rect width="32" height="32" fill="white"/>
</clipPath>
</defs>
</svg>
